<svg width="23" height="24" viewBox="0 0 23 24" fill="none" xmlns="http://www.w3.org/2000/svg">
<g clip-path="url(#clip0_2547_29865)">
<path d="M11.0626 7.22587C11.4801 7.22587 11.8901 7.29828 12.2809 7.44416L18.5426 9.76441V8.89019C18.5426 7.47185 17.7247 6.23985 16.5353 5.63397C16.6552 5.39651 16.7237 5.12924 16.7237 4.84493V3.88234C16.7237 3.74923 16.7087 3.61826 16.6787 3.49261H17.8446C18.23 3.49261 18.5415 3.18168 18.5415 2.79941C18.5415 2.41714 18.2289 2.10622 17.8446 2.10622H13.4553L13.0345 0.517503C12.9532 0.211899 12.677 0 12.3612 0H9.7704C9.45351 0 9.17731 0.211899 9.09701 0.517503L8.67521 2.10622H4.2859C3.9005 2.10622 3.58896 2.41714 3.58896 2.79941C3.58896 3.18168 3.90157 3.49261 4.2859 3.49261H5.45174C5.42391 3.61933 5.40678 3.74923 5.40678 3.88234V4.84493C5.40678 5.12924 5.4753 5.39758 5.5952 5.63397C4.4058 6.23985 3.58789 7.47185 3.58789 8.89019V9.76334L9.84641 7.44523C10.2372 7.29935 10.6472 7.22694 11.0626 7.22694V7.22587ZM6.80065 4.84281V3.88021C6.80065 3.66511 6.97623 3.49048 7.19248 3.49048H14.9359C15.1521 3.49048 15.3277 3.66511 15.3277 3.88021V4.84281C15.3277 5.0579 15.1521 5.23253 14.9359 5.23253H7.19248C6.97623 5.23253 6.80065 5.0579 6.80065 4.84281Z" fill="#D7D1FF"/>
<path d="M4.27703 19.9171C4.39801 19.9065 4.52005 19.9001 4.6421 19.9001C5.02536 19.9001 5.40113 19.9491 5.76191 20.0449C6.49846 20.2376 7.17398 20.621 7.72746 21.1715C7.76921 21.213 7.81953 21.2226 7.85272 21.2226C7.88591 21.2226 7.93622 21.213 7.98012 21.1715C8.80338 20.3526 9.89857 19.9022 11.0644 19.9022C12.2303 19.9022 13.3265 20.3526 14.1498 21.1715C14.1915 21.213 14.2418 21.2226 14.275 21.2226C14.3082 21.2226 14.3585 21.213 14.4003 21.1715C14.9527 20.622 15.6282 20.2387 16.3648 20.046C16.7256 19.9501 17.1024 19.9012 17.4867 19.9012C17.6098 19.9012 17.7308 19.9065 17.8518 19.9182C18.3089 18.3444 18.9994 16.3478 20.0143 14.1841C20.2584 13.6624 20.2723 13.0565 20.0529 12.5219C19.8313 11.9853 19.3913 11.5615 18.8463 11.3592L11.7935 8.74609C11.7838 8.74183 11.7721 8.73863 11.7624 8.73544V15.9145C11.7624 16.2978 11.4498 16.6077 11.0655 16.6077C10.6811 16.6077 10.3685 16.2967 10.3685 15.9145V8.73438C10.3578 8.73863 10.345 8.74289 10.3332 8.74715L3.28141 11.3602C2.73649 11.5625 2.29649 11.9863 2.07595 12.523C1.85542 13.0575 1.86934 13.6634 2.11342 14.1852C3.12618 16.35 3.81776 18.3465 4.27596 19.9182L4.27703 19.9171Z" fill="#D7D1FF"/>
<path d="M22.7955 22.1537C22.5236 21.8832 22.0814 21.8832 21.8095 22.1537C21.5119 22.4497 21.1179 22.6116 20.6972 22.6116C20.2764 22.6116 19.8825 22.4487 19.5849 22.1537C18.4276 21.0026 16.5445 21.0026 15.3872 22.1537C14.7737 22.7638 13.776 22.7638 13.1625 22.1537C12.0053 21.0026 10.1221 21.0026 8.96487 22.1537C8.35143 22.7638 7.35367 22.7638 6.74024 22.1537C6.17926 21.5957 5.43415 21.2891 4.64193 21.2891C3.84971 21.2891 3.10353 21.5957 2.54363 22.1537C2.11647 22.5786 1.49447 22.7223 0.922791 22.5285C0.557729 22.405 0.16162 22.5988 0.0374349 22.9619C-0.0867505 23.325 0.108092 23.719 0.473155 23.8425C0.791112 23.95 1.11656 24.0033 1.4388 24.0022C2.21068 24.0022 2.96115 23.7009 3.53069 23.1355C3.8283 22.8394 4.22227 22.6776 4.643 22.6776C5.06373 22.6776 5.4577 22.8405 5.75532 23.1355C6.9126 24.2865 8.79572 24.2865 9.953 23.1355C10.5664 22.5253 11.5642 22.5253 12.1776 23.1355C13.3349 24.2865 15.218 24.2865 16.3753 23.1355C16.9887 22.5253 17.9865 22.5253 18.5999 23.1355C19.1609 23.6934 19.906 24.0001 20.6983 24.0001C21.4905 24.0001 22.2367 23.6934 22.7966 23.1355C23.0685 22.865 23.0685 22.4252 22.7966 22.1548L22.7955 22.1537Z" fill="#D7D1FF"/>
</g>
<defs>
<clipPath id="clip0_2547_29865">
<rect width="23" height="24" fill="white"/>
</clipPath>
</defs>
</svg>
