<svg width="23" height="24" viewBox="0 0 23 24" fill="none" xmlns="http://www.w3.org/2000/svg">
<g clip-path="url(#clip0_2787_29983)">
<path d="M11.0645 7.22978C11.482 7.22978 11.8921 7.30219 12.2828 7.44807L18.5446 9.76831V8.8941C18.5446 7.47575 17.7266 6.24376 16.5372 5.63787C16.6571 5.40042 16.7257 5.13315 16.7257 4.84884V3.88624C16.7257 3.75314 16.7107 3.62217 16.6807 3.49652H17.8465C18.2319 3.49652 18.5435 3.18559 18.5435 2.80332C18.5435 2.42105 18.2309 2.11012 17.8465 2.11012H13.4572L13.0365 0.521409C12.9551 0.215806 12.6789 0.00390625 12.3631 0.00390625H9.77235C9.45546 0.00390625 9.17926 0.215806 9.09897 0.521409L8.67716 2.11012H4.28785C3.90245 2.11012 3.59091 2.42105 3.59091 2.80332C3.59091 3.18559 3.90352 3.49652 4.28785 3.49652H5.4537C5.42586 3.62323 5.40873 3.75314 5.40873 3.88624V4.84884C5.40873 5.13315 5.47725 5.40148 5.59715 5.63787C4.40775 6.24376 3.58984 7.47575 3.58984 8.8941V9.76725L9.84836 7.44913C10.2391 7.30325 10.6491 7.23085 11.0645 7.23085V7.22978ZM6.80261 4.84671V3.88411C6.80261 3.66902 6.97818 3.49439 7.19443 3.49439H14.9378C15.1541 3.49439 15.3296 3.66902 15.3296 3.88411V4.84671C15.3296 5.06181 15.1541 5.23644 14.9378 5.23644H7.19443C6.97818 5.23644 6.80261 5.06181 6.80261 4.84671Z" fill="#998EE0"/>
<path d="M4.27508 19.9171C4.39605 19.9065 4.5181 19.9001 4.64014 19.9001C5.02341 19.9001 5.39917 19.9491 5.75995 20.0449C6.4965 20.2376 7.17203 20.621 7.72551 21.1715C7.76726 21.213 7.81758 21.2226 7.85077 21.2226C7.88395 21.2226 7.93427 21.213 7.97816 21.1715C8.80143 20.3526 9.89661 19.9022 11.0625 19.9022C12.2283 19.9022 13.3246 20.3526 14.1478 21.1715C14.1896 21.213 14.2399 21.2226 14.2731 21.2226C14.3063 21.2226 14.3566 21.213 14.3983 21.1715C14.9507 20.622 15.6263 20.2387 16.3628 20.046C16.7236 19.9501 17.1004 19.9012 17.4848 19.9012C17.6079 19.9012 17.7289 19.9065 17.8498 19.9182C18.307 18.3444 18.9975 16.3478 20.0124 14.1841C20.2565 13.6624 20.2704 13.0565 20.0509 12.5219C19.8293 11.9853 19.3893 11.5615 18.8444 11.3592L11.7915 8.74609C11.7819 8.74183 11.7701 8.73863 11.7605 8.73544V15.9145C11.7605 16.2978 11.4479 16.6077 11.0635 16.6077C10.6792 16.6077 10.3666 16.2967 10.3666 15.9145V8.73438C10.3559 8.73863 10.343 8.74289 10.3313 8.74715L3.27946 11.3602C2.73454 11.5625 2.29454 11.9863 2.074 12.523C1.85346 13.0575 1.86738 13.6634 2.11147 14.1852C3.12422 16.35 3.81581 18.3465 4.27401 19.9182L4.27508 19.9171Z" fill="#998EE0"/>
<path d="M22.7955 22.1498C22.5236 21.8793 22.0814 21.8793 21.8095 22.1498C21.5119 22.4458 21.1179 22.6077 20.6972 22.6077C20.2764 22.6077 19.8825 22.4447 19.5849 22.1498C18.4276 20.9987 16.5445 20.9987 15.3872 22.1498C14.7737 22.7599 13.776 22.7599 13.1625 22.1498C12.0053 20.9987 10.1221 20.9987 8.96487 22.1498C8.35143 22.7599 7.35367 22.7599 6.74024 22.1498C6.17926 21.5918 5.43415 21.2852 4.64193 21.2852C3.84971 21.2852 3.10353 21.5918 2.54363 22.1498C2.11647 22.5747 1.49447 22.7184 0.922791 22.5246C0.557729 22.4011 0.16162 22.5949 0.0374349 22.958C-0.0867505 23.3211 0.108092 23.7151 0.473155 23.8386C0.791112 23.9461 1.11656 23.9994 1.4388 23.9983C2.21068 23.9983 2.96115 23.697 3.53069 23.1316C3.8283 22.8355 4.22227 22.6737 4.643 22.6737C5.06373 22.6737 5.4577 22.8366 5.75532 23.1316C6.9126 24.2826 8.79572 24.2826 9.953 23.1316C10.5664 22.5214 11.5642 22.5214 12.1776 23.1316C13.3349 24.2826 15.218 24.2826 16.3753 23.1316C16.9887 22.5214 17.9865 22.5214 18.5999 23.1316C19.1609 23.6895 19.906 23.9962 20.6983 23.9962C21.4905 23.9962 22.2367 23.6895 22.7966 23.1316C23.0685 22.8611 23.0685 22.4213 22.7966 22.1509L22.7955 22.1498Z" fill="#998EE0"/>
</g>
<defs>
<clipPath id="clip0_2787_29983">
<rect width="23" height="24" fill="white"/>
</clipPath>
</defs>
</svg>
