<svg width="27" height="28" viewBox="0 0 27 28" fill="none" xmlns="http://www.w3.org/2000/svg">
<g id="Ship">
<path id="Vector" d="M4.09298 13.9453L1 15.3602L3.69916 26.4056" stroke="#2A2E4A" stroke-miterlimit="10"/>
<path id="Vector_2" d="M23.3056 26.4056L26 15.3602L22.907 13.9453" stroke="#2A2E4A" stroke-miterlimit="10"/>
<path id="Vector_3" d="M22.9062 13.9449L13.5408 9.65234H13.4592L4.09375 13.9449" stroke="#2A2E4A" stroke-miterlimit="10"/>
<path id="Vector_4" d="M25.8031 27.0003C24.7705 27.0003 24.7705 26.3672 23.7379 26.3672C22.7053 26.3672 22.7053 27.0003 21.6727 27.0003C20.6401 27.0003 20.6401 26.3672 19.6075 26.3672C18.5749 26.3672 18.5749 27.0003 17.5423 27.0003C16.5097 27.0003 16.5097 26.3672 15.4771 26.3672C14.4445 26.3672 14.4445 27.0003 13.4119 27.0003C12.3793 27.0003 12.3793 26.3672 11.3467 26.3672C10.3141 26.3672 10.3141 27.0003 9.28152 27.0003C8.24892 27.0003 8.24892 26.3672 7.21633 26.3672C6.18373 26.3672 6.18373 27.0003 5.15114 27.0003C4.11854 27.0003 4.11854 26.3672 3.08594 26.3672C2.05335 26.3672 2.05335 27.0003 1.02075 27.0003" stroke="#2A2E4A" stroke-miterlimit="10"/>
<path id="Vector_5" d="M13.5022 9.64844V20.1759" stroke="#2A2E4A" stroke-miterlimit="10" stroke-linecap="round"/>
<path id="Vector_6" d="M4.09375 13.9462V7.95111L11.3796 4.81445" stroke="#2A2E4A" stroke-miterlimit="10"/>
<path id="Vector_7" d="M15.4387 4.7825L13.4215 3.93359L11.3804 4.81128" stroke="#2A2E4A" stroke-miterlimit="10"/>
<path id="Vector_8" d="M22.9065 13.9457H22.9834V7.95059L15.4382 4.78516" stroke="#2A2E4A" stroke-miterlimit="10"/>
<path id="Vector_9" d="M15.4379 4.77933V2.19903C15.4379 1.53716 14.9144 1 14.266 1H12.5466C11.8983 1 11.3748 1.53716 11.3748 2.19903V4.80811" stroke="#2A2E4A" stroke-miterlimit="10"/>
<path id="Vector_10" d="M7.16787 8.37695L5.75586 8.96687" stroke="#2A2E4A" stroke-miterlimit="10" stroke-linecap="round"/>
<path id="Vector_11" d="M7.97534 8.03612L9.38736 7.44141" stroke="#2A2E4A" stroke-miterlimit="10" stroke-linecap="round"/>
<path id="Vector_12" d="M17.7534 7.51953L19.1606 8.12384" stroke="#2A2E4A" stroke-miterlimit="10" stroke-linecap="round"/>
<path id="Vector_13" d="M19.9617 8.4668L21.3737 9.07111" stroke="#2A2E4A" stroke-miterlimit="10" stroke-linecap="round"/>
</g>
</svg>
