<svg width="42" height="43" viewBox="0 0 42 43" fill="none" xmlns="http://www.w3.org/2000/svg">
<path d="M26.4459 26.4746C26.5992 26.2569 26.7547 26.008 26.9013 25.7303C27.2368 25.1016 27.4323 24.5107 27.55 24.0219H21.3027V19.3809H32.251C32.3821 19.9851 32.5132 20.8005 32.5265 21.7714C32.5354 22.449 32.4976 23.8553 31.9755 25.5371C31.4579 27.2055 30.7159 28.3275 30.5137 28.6229C30.3826 28.8162 29.9161 29.4872 29.1629 30.2492C29.0718 30.3403 28.983 30.4291 28.8919 30.5136L28.843 30.4602L25.144 27.5543C25.6061 27.2388 26.0304 26.8678 26.4059 26.4502L26.4459 26.479V26.4746Z" fill="#4285F5"/>
<path d="M29.0208 12.5704L25.6039 16.045C24.4198 15.0831 22.9224 14.5099 21.2939 14.5099C18.2169 14.5099 15.6087 16.5582 14.6956 19.3953L14.6379 19.3753L10.6855 16.2561C12.6095 12.3304 16.6218 9.62891 21.2606 9.62891C24.2332 9.62891 26.9503 10.7375 29.0231 12.5682L29.0208 12.5704Z" fill="#EA4335"/>
<path d="M28.8431 30.4557L28.892 30.509C28.2388 31.1288 27.6168 31.5843 27.1191 31.9064L27.0791 31.8442C25.3618 32.8284 23.3756 33.3905 21.2606 33.3905C16.6218 33.3905 12.6095 30.6889 10.6855 26.7633L14.6379 23.6641C15.4932 26.6011 18.1503 28.7405 21.2962 28.7405C22.7202 28.7405 24.0421 28.3029 25.1441 27.5497L28.8431 30.4557Z" fill="#35A854"/>
<path d="M14.638 19.3748L14.6958 19.3948C14.4714 20.0968 14.347 20.8455 14.347 21.6253C14.347 22.334 14.4492 23.0183 14.6358 23.6648L10.6835 26.764C9.9081 25.1822 9.47266 23.3982 9.47266 21.512C9.47266 19.6258 9.9081 17.8419 10.6857 16.2578L14.638 19.377V19.3748Z" fill="#FBBC04"/>
</svg>
