<svg width="43" height="43" viewBox="0 0 43 43" fill="none" xmlns="http://www.w3.org/2000/svg">
<path d="M18.518 12.5232C19.3342 10.5135 21.0915 9.50977 23.7875 9.50977H24.3805C26.0153 9.50977 26.834 9.62447 26.834 9.85389V13.3453H24.4957C23.0913 13.4719 22.3879 14.1339 22.3879 15.3287V18.1319C22.3879 18.2848 22.4647 18.3613 22.6184 18.3613H26.6035V18.5907C26.361 21.1477 26.1618 22.4262 26.0105 22.4262H22.6184C22.4911 22.4262 22.4143 22.5099 22.3879 22.6748V33.5098H18.2299L18.1723 32.8048V22.7895C18.057 22.5481 17.9418 22.4262 17.8266 22.4262H15.834V18.3637H17.8266C18.057 18.237 18.1723 18.1152 18.1723 18.0005L18.057 14.3944C18.2107 13.5675 18.3643 12.9438 18.518 12.5256V12.5232Z" fill="#006AF5"/>
</svg>
