<svg width="42" height="43" viewBox="0 0 42 43" fill="none" xmlns="http://www.w3.org/2000/svg">
<path d="M29.8734 15.0478C29.973 15.152 30.2597 15.479 30.3165 15.5856C30.3284 15.6093 30.3331 15.633 30.3284 15.6591C28.9944 16.4149 27.9755 17.711 27.7504 19.2583C27.4116 21.597 28.4565 23.6821 30.5108 24.81C30.6222 24.8716 30.8473 24.945 30.935 25.0066C30.9539 25.0209 30.98 25.028 30.9729 25.0611C30.4706 26.5326 29.7147 27.8926 28.774 29.1271C27.4898 30.8118 26.3666 31.7904 24.1275 31.0677C22.8811 30.6673 22.175 30.2479 20.7747 30.4493C19.3317 30.6578 17.9242 31.7881 16.4409 31.172C14.9576 30.5559 13.2493 28.0182 12.5503 26.6108C10.6523 22.7888 9.88698 16.7822 14.1141 14.1995C15.6306 13.273 17.0949 13.1119 18.7891 13.6403C19.4431 13.8441 20.3742 14.299 21.0235 14.3654C21.6135 14.4246 23.1489 13.7256 23.8171 13.536C25.9283 12.9389 28.3475 13.4176 29.8734 15.0478Z" fill="black"/>
<path d="M24.0751 12.0658C23.3927 12.6819 22.5753 13.1558 21.6417 13.2482C21.4379 13.2672 21.2341 13.279 21.0304 13.2387C20.9119 12.4829 21.0967 11.6441 21.4 10.9474C21.9 9.79825 22.7767 8.84573 23.8903 8.26758C24.5135 7.94296 25.2457 7.66099 25.9565 7.6681C25.9826 7.68469 25.9778 7.71549 25.9802 7.74392C26.1745 9.35753 25.2314 11.0256 24.0751 12.0658Z" fill="black"/>
</svg>
