<svg width="14" height="13" viewBox="0 0 14 13" fill="none" xmlns="http://www.w3.org/2000/svg">
<path d="M10.4438 8.5649C10.5461 8.26988 10.9633 8.26988 11.0656 8.5649C11.2471 9.08879 11.6589 9.50052 12.1828 9.6821C12.4778 9.78435 12.4778 10.2016 12.1828 10.3038C11.6589 10.4854 11.2471 10.8971 11.0656 11.421C10.9633 11.7161 10.5461 11.7161 10.4438 11.421C10.2622 10.8971 9.85051 10.4854 9.32662 10.3038C9.0316 10.2016 9.0316 9.78435 9.32662 9.6821C9.85051 9.50052 10.2622 9.08879 10.4438 8.5649Z" fill="#7B7F97"/>
<path d="M5.23042 2.03536C5.49851 1.32633 6.50149 1.32633 6.76958 2.03536L6.7866 2.08039C7.26518 3.34612 8.29653 4.32336 9.58619 4.7331C10.3342 4.97076 10.3342 6.02924 9.58619 6.2669C8.29653 6.67664 7.26519 7.65388 6.78661 8.91961L6.76958 8.96464C6.50149 9.67367 5.49851 9.67367 5.23042 8.96464L5.21339 8.91961C4.73481 7.65388 3.70347 6.67664 2.41381 6.2669C1.66578 6.02924 1.66578 4.97076 2.41381 4.7331C3.70347 4.32336 4.73481 3.34612 5.21339 2.08039L5.23042 2.03536Z" fill="#7B7F97"/>
</svg>
