<svg width="19" height="19" viewBox="0 0 19 19" fill="none" xmlns="http://www.w3.org/2000/svg">
<path d="M15.8576 6.11117L11.7013 1.95492C11.6461 1.8998 11.5806 1.85609 11.5086 1.82629C11.4365 1.7965 11.3592 1.78119 11.2812 1.78125H4.15625C3.84131 1.78125 3.53926 1.90636 3.31656 2.12906C3.09386 2.35176 2.96875 2.65381 2.96875 2.96875V16.0312C2.96875 16.3462 3.09386 16.6482 3.31656 16.8709C3.53926 17.0936 3.84131 17.2188 4.15625 17.2188H14.8438C15.1587 17.2188 15.4607 17.0936 15.6834 16.8709C15.9061 16.6482 16.0312 16.3462 16.0312 16.0312V6.53125C16.0313 6.45325 16.016 6.37601 15.9862 6.30393C15.9564 6.23185 15.9127 6.16635 15.8576 6.11117ZM11.875 3.80816L14.0043 5.9375H11.875V3.80816ZM14.8438 16.0312H4.15625V2.96875H10.6875V6.53125C10.6875 6.68872 10.7501 6.83975 10.8614 6.95109C10.9728 7.06244 11.1238 7.125 11.2812 7.125H14.8438V16.0312ZM11.7013 11.4549C11.7565 11.5101 11.8003 11.5755 11.8302 11.6476C11.8601 11.7197 11.8755 11.797 11.8755 11.875C11.8755 11.953 11.8601 12.0303 11.8302 12.1024C11.8003 12.1745 11.7565 12.2399 11.7013 12.2951L9.92008 14.0763C9.86493 14.1315 9.79945 14.1753 9.72737 14.2052C9.65529 14.2351 9.57803 14.2505 9.5 14.2505C9.42197 14.2505 9.34471 14.2351 9.27263 14.2052C9.20055 14.1753 9.13507 14.1315 9.07992 14.0763L7.29867 12.2951C7.18726 12.1837 7.12467 12.0326 7.12467 11.875C7.12467 11.7174 7.18726 11.5663 7.29867 11.4549C7.41008 11.3435 7.56119 11.2809 7.71875 11.2809C7.87631 11.2809 8.02742 11.3435 8.13883 11.4549L8.90625 12.2231V8.90625C8.90625 8.74878 8.96881 8.59775 9.08016 8.48641C9.1915 8.37506 9.34253 8.3125 9.5 8.3125C9.65747 8.3125 9.8085 8.37506 9.91985 8.48641C10.0312 8.59775 10.0938 8.74878 10.0938 8.90625V12.2231L10.8612 11.4549C10.9163 11.3997 10.9818 11.3559 11.0539 11.326C11.126 11.2962 11.2032 11.2808 11.2812 11.2808C11.3593 11.2808 11.4365 11.2962 11.5086 11.326C11.5807 11.3559 11.6462 11.3997 11.7013 11.4549Z" fill="#7B7F97"/>
</svg>
