<svg width="19" height="19" viewBox="0 0 19 19" fill="none" xmlns="http://www.w3.org/2000/svg">
<path d="M18.355 9.25953C18.3291 9.2009 17.7004 7.80633 16.3029 6.40879C14.4407 4.54664 12.0887 3.5625 9.49999 3.5625C6.91124 3.5625 4.55925 4.54664 2.6971 6.40879C1.29956 7.80633 0.667962 9.20312 0.644954 9.25953C0.611194 9.33547 0.59375 9.41764 0.59375 9.50074C0.59375 9.58384 0.611194 9.66602 0.644954 9.74195C0.67093 9.80059 1.29956 11.1944 2.6971 12.592C4.55925 14.4534 6.91124 15.4375 9.49999 15.4375C12.0887 15.4375 14.4407 14.4534 16.3029 12.592C17.7004 11.1944 18.3291 9.80059 18.355 9.74195C18.3888 9.66602 18.4062 9.58384 18.4062 9.50074C18.4062 9.41764 18.3888 9.33547 18.355 9.25953ZM9.49999 14.25C7.21554 14.25 5.2198 13.4195 3.56769 11.7822C2.88981 11.1081 2.31309 10.3394 1.85546 9.5C2.31296 8.66054 2.8897 7.89181 3.56769 7.21777C5.2198 5.58051 7.21554 4.75 9.49999 4.75C11.7844 4.75 13.7802 5.58051 15.4323 7.21777C16.1115 7.89165 16.6895 8.66038 17.1482 9.5C16.6131 10.499 14.2819 14.25 9.49999 14.25ZM9.49999 5.9375C8.7954 5.9375 8.10662 6.14644 7.52077 6.53789C6.93492 6.92934 6.47831 7.48573 6.20867 8.13669C5.93903 8.78765 5.86848 9.50395 6.00594 10.195C6.1434 10.8861 6.4827 11.5208 6.98092 12.0191C7.47915 12.5173 8.11393 12.8566 8.80498 12.994C9.49604 13.1315 10.2123 13.061 10.8633 12.7913C11.5143 12.5217 12.0707 12.0651 12.4621 11.4792C12.8536 10.8934 13.0625 10.2046 13.0625 9.5C13.0615 8.55547 12.6859 7.6499 12.018 6.98202C11.3501 6.31413 10.4445 5.93848 9.49999 5.9375ZM9.49999 11.875C9.03026 11.875 8.57108 11.7357 8.18051 11.4747C7.78995 11.2138 7.48554 10.8428 7.30578 10.4089C7.12602 9.9749 7.07899 9.49737 7.17063 9.03666C7.26227 8.57596 7.48846 8.15277 7.82061 7.82062C8.15276 7.48847 8.57595 7.26227 9.03665 7.17063C9.49736 7.07899 9.97489 7.12603 10.4089 7.30579C10.8428 7.48554 11.2138 7.78995 11.4747 8.18052C11.7357 8.57109 11.875 9.03027 11.875 9.5C11.875 10.1299 11.6248 10.734 11.1794 11.1794C10.734 11.6248 10.1299 11.875 9.49999 11.875Z" fill="#7B7F97"/>
</svg>
