<svg width="14" height="14" viewBox="0 0 14 14" fill="none" xmlns="http://www.w3.org/2000/svg">
<path d="M7.60645 0.5V0V0.5ZM11.7295 1.03223L12.0073 0.616495L12.0073 0.616492L11.7295 1.03223ZM12.6006 1.90332L13.0163 1.62554L13.0163 1.62548L12.6006 1.90332ZM13.1328 6.02734H13.6328H13.1328ZM12.6006 10.1504L13.0163 10.4282L13.0163 10.4282L12.6006 10.1504ZM11.7295 11.0215L12.0073 11.4372L12.0073 11.4372L11.7295 11.0215ZM8.39551 11.5488L8.39333 11.0488C8.11804 11.05 7.89551 11.2735 7.89551 11.5488H8.39551ZM8.39551 11.5537L8.84278 11.7772C8.87746 11.7078 8.89551 11.6313 8.89551 11.5537H8.39551ZM7.71094 12.9238L8.15812 13.1475L8.15822 13.1473L7.71094 12.9238ZM5.92188 12.9238L5.4746 13.1473L5.47469 13.1475L5.92188 12.9238ZM5.2373 11.5537H4.7373C4.7373 11.6313 4.75535 11.7078 4.79003 11.7772L5.2373 11.5537ZM5.2373 11.5488H5.7373C5.7373 11.2735 5.51477 11.05 5.23949 11.0488L5.2373 11.5488ZM1.90332 11.0215L1.62549 11.4372L1.62554 11.4372L1.90332 11.0215ZM1.03223 10.1504L0.616492 10.4282L0.616492 10.4282L1.03223 10.1504ZM0.5 6.02734H0H0.5ZM1.03223 1.90332L0.616528 1.62548L0.616492 1.62554L1.03223 1.90332ZM1.90332 1.03223L1.62554 0.616492L1.62553 0.616495L1.90332 1.03223ZM6.02637 0.5V0V0.5ZM7.60645 0.5V1C8.72563 1 9.52743 1.0006 10.1502 1.06396C10.7647 1.12646 11.1493 1.24589 11.4517 1.44796L11.7295 1.03223L12.0073 0.616492C11.5132 0.286328 10.945 0.13964 10.2514 0.0690922C9.56627 -0.000606537 8.70482 0 7.60645 0V0.5ZM11.7295 1.03223L11.4517 1.44796C11.7418 1.6418 11.9909 1.89098 12.1849 2.18116L12.6006 1.90332L13.0163 1.62548C12.7495 1.22626 12.4066 0.883342 12.0073 0.616495L11.7295 1.03223ZM12.6006 1.90332L12.1849 2.18111C12.3869 2.48353 12.5064 2.86823 12.5689 3.48294C12.6322 4.10597 12.6328 4.908 12.6328 6.02734H13.1328H13.6328C13.6328 4.92882 13.6334 4.06714 13.5637 3.38178C13.4932 2.68809 13.3465 2.11972 13.0163 1.62554L12.6006 1.90332ZM13.1328 6.02734H12.6328C12.6328 7.14661 12.6322 7.94839 12.5689 8.57119C12.5064 9.18563 12.3869 9.57017 12.1849 9.87261L12.6006 10.1504L13.0163 10.4282C13.3465 9.93404 13.4932 9.36591 13.5637 8.67239C13.6334 7.98724 13.6328 7.12579 13.6328 6.02734H13.1328ZM12.6006 10.1504L12.1849 9.8726C11.991 10.1628 11.7419 10.4118 11.4517 10.6058L11.7295 11.0215L12.0073 11.4372C12.4066 11.1703 12.7495 10.8276 13.0163 10.4282L12.6006 10.1504ZM11.7295 11.0215L11.4517 10.6057C11.188 10.782 10.8612 10.8947 10.3728 10.9613C9.87636 11.0291 9.24809 11.0451 8.39333 11.0488L8.39551 11.5488L8.39769 12.0488C9.24663 12.0451 9.9374 12.03 10.508 11.9522C11.0867 11.8732 11.5751 11.726 12.0073 11.4372L11.7295 11.0215ZM8.39551 11.5488H7.89551V11.5537H8.39551H8.89551V11.5488H8.39551ZM8.39551 11.5537L7.94823 11.3302L7.26366 12.7003L7.71094 12.9238L8.15822 13.1473L8.84278 11.7772L8.39551 11.5537ZM7.71094 12.9238L7.26375 12.7002C7.07948 13.0686 6.55334 13.0686 6.36906 12.7002L5.92188 12.9238L5.47469 13.1475C6.02754 14.2528 7.60528 14.2528 8.15812 13.1475L7.71094 12.9238ZM5.92188 12.9238L6.36915 12.7003L5.68458 11.3302L5.2373 11.5537L4.79003 11.7772L5.4746 13.1473L5.92188 12.9238ZM5.2373 11.5537H5.7373V11.5488H5.2373H4.7373V11.5537H5.2373ZM5.2373 11.5488L5.23949 11.0488C4.38473 11.0451 3.75645 11.0291 3.25997 10.9613C2.77159 10.8947 2.44483 10.782 2.18111 10.6057L1.90332 11.0215L1.62554 11.4372C2.05772 11.726 2.54609 11.8732 3.12481 11.9522C3.69542 12.03 4.38618 12.0451 5.23512 12.0488L5.2373 11.5488ZM1.90332 11.0215L2.18115 10.6058C1.89094 10.4118 1.64183 10.1628 1.44796 9.8726L1.03223 10.1504L0.616492 10.4282C0.883358 10.8276 1.22621 11.1703 1.62549 11.4372L1.90332 11.0215ZM1.03223 10.1504L1.44796 9.87261C1.24588 9.57017 1.12645 9.18563 1.06395 8.57119C1.0006 7.94839 1 7.14661 1 6.02734H0.5H0C0 7.12579 -0.000611007 7.98724 0.0690856 8.67239C0.139633 9.36591 0.286323 9.93404 0.616492 10.4282L1.03223 10.1504ZM0.5 6.02734H1C1 4.908 1.00059 4.10597 1.06395 3.48294C1.12645 2.86823 1.24589 2.48353 1.44796 2.18111L1.03223 1.90332L0.616492 1.62554C0.28629 2.11972 0.139615 2.68809 0.0690764 3.38178C-0.000615418 4.06714 0 4.92882 0 6.02734H0.5ZM1.03223 1.90332L1.44792 2.18116C1.64187 1.89098 1.89101 1.6418 2.18111 1.44796L1.90332 1.03223L1.62553 0.616495C1.22618 0.883342 0.883354 1.22626 0.616528 1.62548L1.03223 1.90332ZM1.90332 1.03223L2.18111 1.44796C2.48353 1.24589 2.86809 1.12646 3.48256 1.06396C4.10539 1.0006 4.90718 1 6.02637 1V0.5V0C4.92799 0 4.06654 -0.000606537 3.38136 0.0690922C2.68784 0.13964 2.11966 0.286328 1.62554 0.616492L1.90332 1.03223ZM6.02637 0.5V1H7.60645V0.5V0H6.02637V0.5Z" fill="#7B7F97"/>
<circle cx="9.97122" cy="6.02884" r="0.789579" fill="#7B7F97"/>
<circle cx="6.81302" cy="6.02884" r="0.789579" fill="#7B7F97"/>
<circle cx="3.65481" cy="6.02884" r="0.789579" fill="#7B7F97"/>
</svg>
