<svg width="16" height="15" viewBox="0 0 16 15" fill="none" xmlns="http://www.w3.org/2000/svg">
<path d="M8.00004 0C7.08617 0 6.47233 0.289369 6.08012 0.616211C5.88812 0.776223 5.75707 0.938704 5.67191 1.06641C5.62932 1.1303 5.59714 1.18592 5.57523 1.22852C5.5644 1.2496 5.55636 1.26785 5.54984 1.28223C5.54663 1.28932 5.5433 1.2955 5.54105 1.30078C5.53992 1.30346 5.53902 1.30642 5.53813 1.30859C5.53771 1.3096 5.53751 1.31063 5.53715 1.31152L5.53617 1.31348V1.31445C5.43362 1.57084 5.5581 1.86131 5.81449 1.96387C6.07088 2.06642 6.36135 1.94194 6.46391 1.68555V1.68652L6.46293 1.68848V1.68945C6.46349 1.68834 6.46415 1.68697 6.46488 1.68555C6.47112 1.67343 6.48409 1.65088 6.50395 1.62109C6.5438 1.56135 6.61203 1.47358 6.71977 1.38379C6.92756 1.21063 7.31391 1 8.00004 1C8.6862 1 9.07253 1.21067 9.28031 1.38379C9.38809 1.4736 9.4563 1.56137 9.49613 1.62109C9.51603 1.65094 9.52898 1.67346 9.5352 1.68555C9.53827 1.69153 9.54 1.69515 9.54008 1.69531C9.54008 1.69531 9.53974 1.69387 9.5391 1.69238C9.53879 1.69164 9.5376 1.69054 9.53715 1.68945V1.6875L9.53617 1.68652C9.53616 1.68648 9.53604 1.68604 9.53715 1.68555C9.63989 1.94155 9.9294 2.06629 10.1856 1.96387C10.4419 1.86132 10.5663 1.57078 10.4639 1.31445L10 1.5C10.4352 1.32591 10.4623 1.31446 10.4639 1.31348V1.3125L10.4629 1.31152C10.4626 1.31065 10.4624 1.30957 10.462 1.30859C10.4611 1.30641 10.4602 1.30346 10.459 1.30078C10.4568 1.29546 10.4535 1.28941 10.4502 1.28223C10.4437 1.26778 10.4348 1.24977 10.4239 1.22852C10.402 1.18593 10.3708 1.13029 10.3282 1.06641C10.243 0.938722 10.112 0.776233 9.91996 0.616211C9.52775 0.289446 8.91388 0 8.00004 0Z" fill="#7B7F97"/>
<path d="M12.3887 7.61108C12.3887 7.10061 12.3889 6.68973 12.4141 6.35718C12.4396 6.01939 12.4932 5.7215 12.623 5.44312C12.6968 5.28501 12.7882 5.13747 12.8916 4.99976H3.1084C3.21183 5.13747 3.30322 5.28501 3.37695 5.44312C3.50677 5.7215 3.56036 6.01939 3.58594 6.35718C3.61111 6.68973 3.61133 7.10061 3.61133 7.61108V10.4998C3.61133 11.4567 3.61199 12.1241 3.67969 12.6277C3.74546 13.1169 3.86627 13.3758 4.05078 13.5603C4.23528 13.7447 4.49431 13.8656 4.9834 13.9314C5.48694 13.9991 6.15455 13.9998 7.11133 13.9998H8.88867C9.84545 13.9998 10.5131 13.9991 11.0166 13.9314C11.5057 13.8656 11.7647 13.7447 11.9492 13.5603C12.1337 13.3758 12.2545 13.1169 12.3203 12.6277C12.388 12.1241 12.3887 11.4567 12.3887 10.4998V7.61108ZM13.3887 10.4998C13.3887 11.4282 13.3902 12.1749 13.3115 12.7605C13.2308 13.3606 13.0575 13.8661 12.6562 14.2673C12.2551 14.6684 11.7502 14.8409 11.1504 14.9216C10.5647 15.0004 9.81735 14.9998 8.88867 14.9998H7.11133C6.18265 14.9998 5.4353 15.0004 4.84961 14.9216C4.24976 14.8409 3.74492 14.6684 3.34375 14.2673C2.94247 13.8661 2.76915 13.3606 2.68848 12.7605C2.6098 12.1749 2.61133 11.4282 2.61133 10.4998V7.61108C2.61133 7.0853 2.61053 6.71843 2.58887 6.43237C2.56761 6.15175 2.52822 5.98938 2.4707 5.86597C2.32168 5.54639 2.06468 5.28943 1.74512 5.14038C1.62171 5.08284 1.45932 5.04349 1.17871 5.02222C0.892655 5.00055 0.525789 4.99976 0 4.99976V3.99976H16V4.99976C15.4742 4.99976 15.1073 5.00055 14.8213 5.02222C14.5407 5.04349 14.3783 5.08284 14.2549 5.14038C13.9353 5.28943 13.6783 5.54639 13.5293 5.86597C13.4718 5.98938 13.4324 6.15175 13.4111 6.43237C13.3895 6.71843 13.3887 7.0853 13.3887 7.61108V10.4998Z" fill="#7B7F97"/>
<path d="M5.5 7.49988C5.5 7.22374 5.72386 6.99988 6 6.99988C6.27614 6.99988 6.5 7.22374 6.5 7.49988L6.5 9.49988C6.5 9.77602 6.27614 9.99988 6 9.99988C5.72386 9.99988 5.5 9.77602 5.5 9.49988L5.5 7.49988Z" fill="#7B7F97"/>
<path d="M9.5 7.49988C9.5 7.22374 9.72386 6.99988 10 6.99988C10.2761 6.99988 10.5 7.22374 10.5 7.49988L10.5 9.49988C10.5 9.77602 10.2761 9.99988 10 9.99988C9.72386 9.99988 9.5 9.77602 9.5 9.49988L9.5 7.49988Z" fill="#7B7F97"/>
</svg>
