<svg width="14" height="13" viewBox="0 0 14 13" fill="none" xmlns="http://www.w3.org/2000/svg">
<path d="M11.3845 4.45606C12.9456 5.2366 13.7261 5.6272 13.7261 6.24523C13.7259 6.86309 12.9454 7.25398 11.3845 8.0344L4.99987 11.2261C3.29814 12.0769 2.44694 12.5022 1.94702 12.489C0.88382 12.461 0.0284667 11.6056 0.000402932 10.5424C-0.0124933 10.0424 0.413451 9.19152 1.26408 7.49026C1.43536 7.1477 1.52066 6.9756 1.57137 6.80042C1.67635 6.43733 1.67646 6.05173 1.57137 5.68866C1.52065 5.51351 1.43468 5.34209 1.26339 4.99951C0.41252 3.29777 -0.0127924 2.44655 0.000402932 1.94666C0.0286102 0.883589 0.883914 0.0281021 1.94702 4.0453e-05C2.44692 -0.0130863 3.29765 0.412954 4.99918 1.26372L11.3845 4.45606Z" fill="white"/>
</svg>
