<svg width="19" height="19" viewBox="0 0 19 19" fill="none" xmlns="http://www.w3.org/2000/svg">
<path d="M16.0312 3.5625H13.0625V2.96875C13.0625 2.49633 12.8748 2.04327 12.5408 1.70922C12.2067 1.37517 11.7537 1.1875 11.2812 1.1875H7.71875C7.24633 1.1875 6.79326 1.37517 6.45922 1.70922C6.12517 2.04327 5.9375 2.49633 5.9375 2.96875V3.5625H2.96875C2.81128 3.5625 2.66026 3.62506 2.54891 3.73641C2.43756 3.84776 2.375 3.99878 2.375 4.15625C2.375 4.31372 2.43756 4.46474 2.54891 4.57609C2.66026 4.68744 2.81128 4.75 2.96875 4.75H3.5625V15.4375C3.5625 15.7524 3.68761 16.0545 3.91031 16.2772C4.13301 16.4999 4.43506 16.625 4.75 16.625H14.25C14.5649 16.625 14.867 16.4999 15.0897 16.2772C15.3124 16.0545 15.4375 15.7524 15.4375 15.4375V4.75H16.0312C16.1887 4.75 16.3397 4.68744 16.4511 4.57609C16.5624 4.46474 16.625 4.31372 16.625 4.15625C16.625 3.99878 16.5624 3.84776 16.4511 3.73641C16.3397 3.62506 16.1887 3.5625 16.0312 3.5625ZM7.125 2.96875C7.125 2.81128 7.18756 2.66026 7.29891 2.54891C7.41025 2.43756 7.56128 2.375 7.71875 2.375H11.2812C11.4387 2.375 11.5897 2.43756 11.7011 2.54891C11.8124 2.66026 11.875 2.81128 11.875 2.96875V3.5625H7.125V2.96875ZM14.25 15.4375H4.75V4.75H14.25V15.4375ZM8.3125 7.71875V12.4688C8.3125 12.6262 8.24994 12.7772 8.13859 12.8886C8.02725 12.9999 7.87622 13.0625 7.71875 13.0625C7.56128 13.0625 7.41025 12.9999 7.29891 12.8886C7.18756 12.7772 7.125 12.6262 7.125 12.4688V7.71875C7.125 7.56128 7.18756 7.41025 7.29891 7.29891C7.41025 7.18756 7.56128 7.125 7.71875 7.125C7.87622 7.125 8.02725 7.18756 8.13859 7.29891C8.24994 7.41025 8.3125 7.56128 8.3125 7.71875ZM11.875 7.71875V12.4688C11.875 12.6262 11.8124 12.7772 11.7011 12.8886C11.5897 12.9999 11.4387 13.0625 11.2812 13.0625C11.1238 13.0625 10.9728 12.9999 10.8614 12.8886C10.7501 12.7772 10.6875 12.6262 10.6875 12.4688V7.71875C10.6875 7.56128 10.7501 7.41025 10.8614 7.29891C10.9728 7.18756 11.1238 7.125 11.2812 7.125C11.4387 7.125 11.5897 7.18756 11.7011 7.29891C11.8124 7.41025 11.875 7.56128 11.875 7.71875Z" fill="#7B7F97"/>
</svg>
