<svg xmlns="http://www.w3.org/2000/svg" width="18" height="18" viewBox="0 0 18 18" fill="none">
	<rect x="0.5" y="0.5" width="17" height="17" rx="8.5" stroke="#D50000" />
	<path
		d="M8.10606 3H9.89394V5.87635L9.45455 10.8338H8.54545L8.10606 5.87635V3ZM9.00758 14C8.71465 14 8.47222 13.9108 8.2803 13.7324C8.09343 13.5491 8 13.3088 8 13.0115C8 12.7191 8.09343 12.4813 8.2803 12.298C8.47222 12.1146 8.71465 12.023 9.00758 12.023C9.2904 12.023 9.52525 12.1146 9.71212 12.298C9.90404 12.4813 10 12.7191 10 13.0115C10 13.3088 9.90657 13.5491 9.7197 13.7324C9.53283 13.9108 9.29545 14 9.00758 14Z"
		fill="#D50000" />
</svg>