<svg width="64" height="64" viewBox="0 0 64 64" fill="none" xmlns="http://www.w3.org/2000/svg">
<path d="M62 32C62 48.5685 48.5685 62 32 62C15.4315 62 2 48.5685 2 32C2 15.4315 15.4315 2 32 2C48.5685 2 62 15.4315 62 32Z" fill="#64DB78"/>
<path d="M60.5 32C60.5 16.2599 47.7401 3.5 32 3.5C16.2599 3.5 3.5 16.2599 3.5 32C3.5 47.7401 16.2599 60.5 32 60.5C47.7401 60.5 60.5 47.7401 60.5 32ZM63.5 32C63.5 49.397 49.397 63.5 32 63.5C14.603 63.5 0.5 49.397 0.5 32C0.5 14.603 14.603 0.5 32 0.5C49.397 0.5 63.5 14.603 63.5 32Z" fill="#64DB78"/>
<path d="M46.6164 20.4637C47.4649 21.1708 47.5794 22.4315 46.8723 23.2801L28.8039 44.9627L17.2551 33.4138C16.4743 32.6328 16.4743 31.3667 17.2551 30.5857C18.0361 29.8047 19.3022 29.8048 20.0832 30.5857L28.5354 39.0369L43.8 20.7195C44.5072 19.871 45.7679 19.7566 46.6164 20.4637Z" fill="white"/>
</svg>
