<svg width="109" height="102" viewBox="0 0 109 102" fill="none" xmlns="http://www.w3.org/2000/svg">
<path d="M7.5 41.0771C7.33333 32.5771 13.9997 15.5587 26.4996 16.5679C38.9995 17.5771 43 32.5586 44.5 47.5679C46 62.5771 42 78.5673 55 78.5673C68 78.5673 62.3821 35.0575 61 29.0673C59.6179 23.0771 51.5 -0.932699 30.5 0.567301C13.7 1.7673 8.16679 27.4103 7.5 41.0771Z" stroke="white"/>
<path d="M7.50028 49.0769C6.5 41.5771 7.22734 32.7146 18.0003 33.5769C30.4999 34.5774 24.5009 65.0772 28.0005 78.5776C31.5001 92.078 40.5005 101.078 54.5005 101.078C68.5005 101.078 79.0005 91.5774 81.5005 75.5776C84.0005 59.5778 80.5005 33.578 91.5005 33.5769C102.501 33.5758 101.501 48.5776 101.501 49.0769" stroke="white"/>
<circle cx="7" cy="55.0771" r="6.5" stroke="white"/>
<circle cx="102" cy="55.0771" r="6.5" stroke="white"/>
<circle cx="26" cy="55.0771" r="6.5" stroke="white"/>
<circle cx="45" cy="55.0771" r="6.5" stroke="white"/>
<circle cx="64" cy="55.0771" r="6.5" stroke="white"/>
<circle cx="83" cy="55.0771" r="6.5" stroke="white"/>
</svg>
