<svg width="93" height="77" viewBox="0 0 93 77" fill="none" xmlns="http://www.w3.org/2000/svg">
<line x1="66.5" y1="27" x2="66.5" y2="48" stroke="white"/>
<line x1="92.5" y1="48" x2="92.5" y2="2.18556e-08" stroke="white"/>
<line x1="66.5" y1="48" x2="66.5" y2="68" stroke="white"/>
<line x1="92.5" y1="68" x2="92.5" y2="47" stroke="white"/>
<line x1="0.5" y1="42" x2="0.500001" y2="65" stroke="white"/>
<line x1="12.5" y1="2.18558e-08" x2="12.5" y2="16" stroke="white"/>
<line x1="12" y1="15.5" x2="47" y2="15.5" stroke="white"/>
<line x1="66" y1="47.5" x2="93" y2="47.5" stroke="white"/>
<line x1="93" y1="0.5" x2="12" y2="0.499993" stroke="white"/>
<line x1="47.2491" y1="15.4336" x2="0.249063" y2="42.4336" stroke="white"/>
<line x1="0.266997" y1="42.5773" x2="19.267" y2="54.5773" stroke="white"/>
<line x1="18.7481" y1="54.5681" x2="66.7481" y2="26.5681" stroke="white"/>
<line x1="66" y1="67.5" x2="93" y2="67.5" stroke="white"/>
<line x1="0.27735" y1="64.584" x2="18.2774" y2="76.584" stroke="white"/>
<line x1="18.5" y1="77" x2="18.5" y2="54" stroke="white"/>
<line x1="18.7414" y1="76.572" x2="66.7414" y2="47.572" stroke="white"/>
</svg>
