<svg width="24" height="24" viewBox="0 0 24 24" fill="none" xmlns="http://www.w3.org/2000/svg">
<g clip-path="url(#clip0_4645_19471)">
<path d="M23.6544 14.8707C25.241 8.43523 21.3103 1.93201 14.8748 0.34535C8.43934 -1.24131 1.93612 2.68943 0.349462 9.1249C-1.2372 15.5604 2.69354 22.0636 9.12901 23.6502C15.5645 25.2369 22.0677 21.3062 23.6544 14.8707Z" fill="url(#paint0_linear_4645_19471)"/>
<path d="M9.49156 9.67578H7.3125V16.715H9.49156V9.67578Z" fill="white"/>
<path d="M8.38969 8.75067C9.10133 8.75067 9.67782 8.16866 9.67782 7.45151C9.67782 6.73435 9.10133 6.15234 8.38969 6.15234C7.67805 6.15234 7.10156 6.73435 7.10156 7.45151C7.10156 8.16866 7.67805 8.75067 8.38969 8.75067Z" fill="white"/>
<path d="M12.9764 13.0191C12.9764 12.0289 13.4315 11.4386 14.3031 11.4386C15.1058 11.4386 15.4892 12.0041 15.4892 13.0191V16.7153H17.6572V12.2579C17.6572 10.3712 16.587 9.46094 15.0947 9.46094C13.6025 9.46094 12.9736 10.6249 12.9736 10.6249V9.67609H10.8828V16.7153H12.9736V13.0191H12.9764Z" fill="white"/>
</g>
<defs>
<linearGradient id="paint0_linear_4645_19471" x1="4.86015" y1="21.6462" x2="19.1399" y2="2.35183" gradientUnits="userSpaceOnUse">
<stop stop-color="#0090C3"/>
<stop offset="1" stop-color="#52C3F1"/>
</linearGradient>
<clipPath id="clip0_4645_19471">
<rect width="24" height="24" fill="white"/>
</clipPath>
</defs>
</svg>
