<svg width="24" height="24" viewBox="0 0 24 24" fill="none" xmlns="http://www.w3.org/2000/svg">
<path d="M12 24C18.6274 24 24 18.6274 24 12C24 5.37258 18.6274 0 12 0C5.37258 0 0 5.37258 0 12C0 18.6274 5.37258 24 12 24Z" fill="url(#paint0_linear_4645_19478)"/>
<path d="M13.0163 11.159L16.9945 6.53125H16.0528L12.5983 10.5497L9.83879 6.53125H6.65625L10.8308 12.6043L6.65625 17.4536H7.59792L11.2488 13.2136L14.1644 17.4536H17.347L13.0163 11.154V11.159ZM11.7221 12.6597L11.2991 12.0554L7.93531 7.24128H9.38558L12.0998 11.1238L12.5228 11.7281L16.0528 16.7788H14.6025L11.7221 12.6597Z" fill="white"/>
<defs>
<linearGradient id="paint0_linear_4645_19478" x1="3.5149" y1="3.5149" x2="20.4851" y2="20.4851" gradientUnits="userSpaceOnUse">
<stop stop-color="#23004A"/>
<stop offset="0.96" stop-color="#010003"/>
<stop offset="1"/>
</linearGradient>
</defs>
</svg>
