<svg width="48" height="40" viewBox="0 0 48 40" fill="none" xmlns="http://www.w3.org/2000/svg">
<path opacity="0.4" d="M14.656 1.05389C16.3199 -0.0972238 18.5392 0.914028 18.9529 2.89456L19.1085 3.63953C19.2561 4.34626 19.0094 5.07573 18.4756 5.56186C16.2737 7.56715 14.3122 9.66016 12.5912 11.8409C10.7486 14.3053 9.82725 17.1059 9.82725 20.2425C9.82725 21.5868 9.82725 22.819 9.82725 23.9392C9.92962 24.9474 10.1344 25.8436 10.4415 26.6278C9.92962 26.6278 9.00832 26.6278 7.67754 26.6278C6.44914 26.6278 5.6302 26.6278 5.22073 26.6278C5.22073 24.7234 6.03967 23.0991 7.67754 21.7548C9.41779 20.4105 11.158 19.7384 12.8983 19.7384C15.048 19.7384 16.9418 20.5786 18.5797 22.2589C20.3199 23.8272 21.19 26.0676 21.19 28.9802C21.19 32.1168 20.3199 34.7493 18.5797 36.8778C16.8394 38.8941 14.4338 39.9023 11.3628 39.9023C8.08701 39.9023 5.37428 38.8381 3.22457 36.7097C1.07486 34.4693 0 30.7726 0 25.6196C0 20.9146 1.58669 16.0977 4.76008 11.1687C7.33265 7.20985 10.6313 3.83824 14.656 1.05389ZM42.5966 0.299451C43.7309 -0.430503 45.2091 0.243465 45.4849 1.56382L45.9184 3.63953C46.0661 4.34626 45.8194 5.07573 45.2856 5.56186C43.0837 7.56715 41.1222 9.66016 39.4012 11.8409C37.5585 14.3053 36.6372 17.1059 36.6372 20.2425C36.6372 21.5868 36.6372 22.819 36.6372 23.9392C36.7396 24.9474 36.9443 25.8436 37.2514 26.6278C36.7396 26.6278 35.8183 26.6278 34.4875 26.6278C33.2591 26.6278 32.4402 26.6278 32.0307 26.6278C32.0307 24.7234 32.8497 23.0991 34.4875 21.7548C36.2278 20.4105 37.968 19.7384 39.7083 19.7384C41.858 19.7384 43.7518 20.5786 45.3896 22.2589C47.1299 23.8272 48 26.0676 48 28.9802C48 32.1168 47.1299 34.7493 45.3896 36.8778C43.6494 38.8941 41.2438 39.9023 38.1727 39.9023C34.897 39.9023 32.1843 38.8381 30.0345 36.7097C27.8848 34.4693 26.81 30.7726 26.81 25.6196C26.81 20.9146 28.3967 16.0977 31.5701 11.1687C34.3796 6.8452 38.0551 3.22211 42.5966 0.299451Z" fill="#998EE0"/>
</svg>
