<svg width="34" height="34" viewBox="0 0 34 34" fill="none" xmlns="http://www.w3.org/2000/svg">
<rect width="34" height="34" rx="17" fill="#998EE0"/>
<path d="M9.92893 24.0711C11.3275 25.4696 13.1093 26.422 15.0491 26.8079C16.9889 27.1937 18.9996 26.9957 20.8268 26.2388C22.6541 25.4819 24.2159 24.2002 25.3147 22.5557C26.4135 20.9112 27 18.9778 27 17C27 15.0222 26.4135 13.0888 25.3147 11.4443C24.2159 9.79981 22.6541 8.51808 20.8268 7.76121C18.9996 7.00433 16.9889 6.8063 15.0491 7.19215C13.1093 7.578 11.3275 8.53041 9.92893 9.92893" stroke="white" stroke-width="1.2" stroke-linecap="round"/>
<path d="M16 12L20 17M20 17L16 22M20 17H8" stroke="white" stroke-width="1.2" stroke-linecap="round"/>
</svg>
