<svg width="34" height="34" viewBox="0 0 34 34" fill="none" xmlns="http://www.w3.org/2000/svg">
<g id="Compass_light">
<rect width="34" height="34" rx="17" fill="#998EE0"/>
<path id="Vector 26" d="M19.0156 14.9764C19.9056 15.8666 20.4605 17.1541 20.798 18.4229C21.0972 19.5476 21.2102 20.6075 21.2546 21.2547C20.6075 21.2104 19.5477 21.0981 18.4227 20.799C17.2328 20.4826 16.0261 19.9748 15.1465 19.1791L14.9748 19.0166C14.0848 18.1265 13.53 16.8389 13.1925 15.57C12.8931 14.4445 12.7805 13.3839 12.7363 12.7369C13.3834 12.7811 14.4435 12.8943 15.5686 13.1934C16.7582 13.5097 17.964 14.0175 18.8435 14.813L19.0156 14.9764Z" stroke="white" stroke-width="1.2"/>
<circle id="Ellipse 47" cx="17" cy="17" r="10.4" stroke="white" stroke-width="1.2"/>
</g>
</svg>
