<svg width="71" height="57" viewBox="0 0 71 57" fill="none" xmlns="http://www.w3.org/2000/svg">
<line x1="2.49609" y1="9.96875" x2="2.49609" y2="46.0845" stroke="#EEF1F4" stroke-width="2" stroke-linecap="round"/>
<line x1="58.5469" y1="1" x2="58.5469" y2="37.8632" stroke="#EEF1F4" stroke-width="2" stroke-linecap="round"/>
<line x1="13.707" y1="9.96875" x2="13.707" y2="50.5687" stroke="#EEF1F4" stroke-width="2" stroke-linecap="round"/>
<line x1="24.9141" y1="23.4219" x2="24.9141" y2="55.0535" stroke="#EEF1F4" stroke-width="2" stroke-linecap="round"/>
<line x1="69.0117" y1="11.4648" x2="69.0117" y2="43.0964" stroke="#EEF1F4" stroke-width="2" stroke-linecap="round"/>
<line x1="36.875" y1="22.6758" x2="36.875" y2="46.0863" stroke="#EEF1F4" stroke-width="2" stroke-linecap="round"/>
<line x1="47.3359" y1="13.707" x2="47.3359" y2="44.5912" stroke="#EEF1F4" stroke-width="2" stroke-linecap="round"/>
<rect x="0.5" y="19.1836" width="3.48421" height="18.4316" rx="1.74211" fill="#EEF1F4" stroke="#EEF1F4"/>
<rect x="22.9219" y="33.3867" width="3.48421" height="10.2105" rx="1.74211" fill="#EEF1F4" stroke="#EEF1F4"/>
<rect x="67.0156" y="21.4258" width="3.48421" height="10.2105" rx="1.74211" fill="#EEF1F4" stroke="#EEF1F4"/>
<rect x="34.8789" y="30.3945" width="3.48421" height="7.22105" rx="1.74211" fill="#EEF1F4" stroke="#EEF1F4"/>
<rect x="45.3438" y="23.668" width="3.48421" height="11.7053" rx="1.74211" fill="#EEF1F4" stroke="#EEF1F4"/>
<rect x="56.5508" y="10.2188" width="3.48421" height="18.4316" rx="1.74211" fill="#EEF1F4" stroke="#EEF1F4"/>
<rect x="11.7109" y="19.1836" width="3.48421" height="22.1684" rx="1.74211" fill="#EEF1F4" stroke="#EEF1F4"/>
</svg>
