<svg width="31" height="35" viewBox="0 0 31 35" fill="none" xmlns="http://www.w3.org/2000/svg">
<g clip-path="url(#clip0_1760_25159)">
<path d="M15.4297 0.5C15.4516 0.5 15.4764 0.501495 15.4983 0.502989C15.5217 0.502989 15.5451 0.5 15.567 0.5H15.4297Z" fill="#998EE0"/>
<path d="M15.5006 0.50293C13.9599 0.556732 11.8554 2.46073 11.9504 9.28016C12.0468 16.2012 13.4984 25.9095 13.8226 30.7024C13.881 31.5588 14.8186 34.3191 15.4991 34.5014C16.1797 34.3206 17.1187 31.5603 17.1757 30.7024C17.4999 25.9095 18.953 16.2012 19.0494 9.28016C19.1443 2.46073 17.0413 0.556732 15.5006 0.50293Z" fill="#998EE0"/>
<path d="M12.061 12.2783L0.617242 20.8359C0.036001 21.3201 -0.0180339 21.5831 0.00387212 21.9448C0.00387212 21.9478 0.00387212 21.9523 0.00387212 21.9553C0.0403822 22.6024 0.650831 23.0522 1.26274 22.8804L12.6846 19.6776C12.4275 17.1998 12.1953 14.6531 12.061 12.2769V12.2783Z" fill="#998EE0"/>
<path d="M30.3837 20.8359L18.94 12.2783C18.8071 14.6546 18.5734 17.2012 18.3164 19.6791L29.7368 22.8818C30.3487 23.0537 30.9591 22.6054 30.9971 21.9567C30.9971 21.9538 30.9971 21.9493 30.9971 21.9463C31.019 21.5846 30.9635 21.3201 30.3837 20.8374V20.8359Z" fill="#998EE0"/>
<path d="M13.8223 30.7012L11.4127 32.7696C11.0943 33.0819 11.0636 33.2508 11.0739 33.481C11.0739 33.4839 11.0739 33.4854 11.0739 33.4884C11.0914 33.8979 11.4784 34.1849 11.8639 34.0743L14.608 33.2807C14.1947 32.3705 13.8545 31.2048 13.8209 30.7012H13.8223Z" fill="#998EE0"/>
<path d="M19.5874 32.7696L17.1778 30.7012C17.1442 31.2063 16.8039 32.372 16.3906 33.2807L19.1347 34.0743C19.5203 34.1864 19.9073 33.8994 19.9263 33.4899C19.9263 33.4869 19.9263 33.4854 19.9263 33.4824C19.9365 33.2523 19.9044 33.0819 19.5874 32.7711V32.7696Z" fill="#998EE0"/>
</g>
<defs>
<clipPath id="clip0_1760_25159">
<rect width="31" height="34" fill="white" transform="translate(0 0.5)"/>
</clipPath>
</defs>
</svg>
