<svg width="33" height="35" viewBox="0 0 33 35" fill="none" xmlns="http://www.w3.org/2000/svg">
<g clip-path="url(#clip0_1760_25151)">
<path d="M15.873 10.741C16.472 10.741 17.0603 10.8436 17.621 11.0503L26.6052 14.3373V13.0988C26.6052 11.0895 25.4317 9.34418 23.7251 8.48585C23.8972 8.14945 23.9955 7.77082 23.9955 7.36805V6.00437C23.9955 5.81581 23.974 5.63027 23.931 5.45226H25.6037C26.1567 5.45226 26.6037 5.01178 26.6037 4.47023C26.6037 3.92868 26.1551 3.4882 25.6037 3.4882H19.306L18.7023 1.23752C18.5856 0.804585 18.1893 0.504395 17.7362 0.504395H14.019C13.5643 0.504395 13.168 0.804585 13.0528 1.23752L12.4476 3.4882H6.14993C5.59696 3.4882 5.14997 3.92868 5.14997 4.47023C5.14997 5.01178 5.59849 5.45226 6.14993 5.45226H7.82266C7.78272 5.63177 7.75815 5.81581 7.75815 6.00437V7.36805C7.75815 7.77082 7.85645 8.15096 8.02849 8.48585C6.32196 9.34418 5.14844 11.0895 5.14844 13.0988V14.3358L14.128 11.0518C14.6887 10.8451 15.277 10.7426 15.873 10.7426V10.741ZM9.75805 7.36504V6.00136C9.75805 5.69664 10.01 5.44925 10.3202 5.44925H21.4303C21.7406 5.44925 21.9925 5.69664 21.9925 6.00136V7.36504C21.9925 7.66975 21.7406 7.91715 21.4303 7.91715H10.3202C10.01 7.91715 9.75805 7.66975 9.75805 7.36504Z" fill="#998EE0"/>
<path d="M6.13585 28.7148C6.30942 28.6997 6.48453 28.6907 6.65963 28.6907C7.20953 28.6907 7.74868 28.76 8.26632 28.8958C9.32311 29.1688 10.2923 29.7119 11.0865 30.4918C11.1464 30.5506 11.2186 30.5642 11.2662 30.5642C11.3138 30.5642 11.386 30.5506 11.449 30.4918C12.6302 29.3318 14.2015 28.6937 15.8743 28.6937C17.547 28.6937 19.1199 29.3318 20.3011 30.4918C20.361 30.5506 20.4332 30.5642 20.4808 30.5642C20.5284 30.5642 20.6006 30.5506 20.6605 30.4918C21.4531 29.7134 22.4223 29.1704 23.4791 28.8973C23.9968 28.7616 24.5375 28.6922 25.0889 28.6922C25.2655 28.6922 25.4391 28.6997 25.6127 28.7163C26.2686 26.4867 27.2593 23.6583 28.7154 20.593C29.0657 19.8539 29.0856 18.9955 28.7707 18.2383C28.4528 17.478 27.8215 16.8776 27.0396 16.591L16.9203 12.8892C16.9065 12.8831 16.8896 12.8786 16.8757 12.8741V23.0443C16.8757 23.5874 16.4272 24.0264 15.8758 24.0264C15.3244 24.0264 14.8758 23.5859 14.8758 23.0443V12.8726C14.8605 12.8786 14.842 12.8846 14.8252 12.8907L4.70734 16.5925C3.92551 16.8791 3.2942 17.4795 2.97778 18.2398C2.66136 18.9971 2.68133 19.8554 3.03154 20.5946C4.48462 23.6613 5.47689 26.4898 6.13431 28.7163L6.13585 28.7148Z" fill="#998EE0"/>
<path d="M32.7066 31.8811C32.3164 31.498 31.682 31.498 31.2919 31.8811C30.8649 32.3005 30.2996 32.5298 29.696 32.5298C29.0923 32.5298 28.527 32.299 28.1 31.8811C26.4396 30.2505 23.7377 30.2505 22.0773 31.8811C21.1971 32.7455 19.7655 32.7455 18.8854 31.8811C17.225 30.2505 14.5231 30.2505 12.8626 31.8811C11.9825 32.7455 10.5509 32.7455 9.67077 31.8811C8.8659 31.0907 7.79682 30.6562 6.66016 30.6562C5.5235 30.6562 4.45289 31.0907 3.64955 31.8811C3.03667 32.483 2.14424 32.6867 1.32401 32.4121C0.80022 32.2372 0.23189 32.5117 0.053711 33.0261C-0.124468 33.5405 0.155089 34.0986 0.678874 34.2736C1.13507 34.426 1.60203 34.5014 2.06437 34.4999C3.17185 34.4999 4.2486 34.073 5.06577 33.272C5.49278 32.8526 6.05804 32.6233 6.6617 32.6233C7.26536 32.6233 7.83061 32.8541 8.25763 33.272C9.91807 34.9027 12.6199 34.9027 14.2804 33.272C15.1605 32.4076 16.5921 32.4076 17.4723 33.272C19.1327 34.9027 21.8346 34.9027 23.495 33.272C24.3752 32.4076 25.8067 32.4076 26.6869 33.272C27.4918 34.0624 28.5608 34.4969 29.6975 34.4969C30.8342 34.4969 31.9048 34.0624 32.7081 33.272C33.0983 32.8888 33.0983 32.2658 32.7081 31.8827L32.7066 31.8811Z" fill="#998EE0"/>
</g>
<defs>
<clipPath id="clip0_1760_25151">
<rect width="33" height="34" fill="white" transform="translate(0 0.5)"/>
</clipPath>
</defs>
</svg>
