<svg width="336" height="198" viewBox="0 0 336 198" fill="none" xmlns="http://www.w3.org/2000/svg">
<path d="M24.9766 39V27.5625H29.4219C31.0104 27.5625 32.2552 28.0625 33.1562 29.0625C34.0625 30.0573 34.5156 31.4661 34.5156 33.2891C34.5156 35.1172 34.0729 36.526 33.1875 37.5156C32.3021 38.5052 31.0625 39 29.4688 39H24.9766ZM26.8828 29.1797V37.3828H29.3281C31.5156 37.3828 32.6094 36.0182 32.6094 33.2891C32.6094 30.5495 31.5156 29.1797 29.3281 29.1797H26.8828ZM40.6797 32.9688C40.6797 32.276 40.1901 31.9297 39.2109 31.9297C38.5443 31.9297 38.0677 32.0417 37.7812 32.2656C37.4948 32.4896 37.3307 32.8672 37.2891 33.3984H35.6562C35.6979 32.5547 36.0078 31.8776 36.5859 31.3672C37.1693 30.8568 38.0443 30.6016 39.2109 30.6016C41.3099 30.6016 42.3594 31.5547 42.3594 33.4609V37.3516C42.3594 37.6641 42.4115 37.888 42.5156 38.0234C42.625 38.1536 42.8359 38.2031 43.1484 38.1719V38.9688C42.8359 39.0833 42.5104 39.1406 42.1719 39.1406C41.724 39.1406 41.3854 39.0547 41.1562 38.8828C40.9271 38.7109 40.7734 38.4245 40.6953 38.0234H40.6641C40.3932 38.3984 40.026 38.6953 39.5625 38.9141C39.1042 39.1328 38.5703 39.2422 37.9609 39.2422C37.138 39.2422 36.4844 39.0286 36 38.6016C35.5156 38.1693 35.2734 37.6042 35.2734 36.9062C35.2734 36.5573 35.3255 36.2474 35.4297 35.9766C35.5391 35.7005 35.6849 35.4688 35.8672 35.2812C36.0495 35.0885 36.2865 34.9193 36.5781 34.7734C36.875 34.6276 37.1823 34.5104 37.5 34.4219C37.8229 34.3281 38.2057 34.237 38.6484 34.1484C38.8724 34.1068 39.0443 34.0729 39.1641 34.0469C39.2839 34.0208 39.4271 33.987 39.5938 33.9453C39.7656 33.9036 39.8958 33.8646 39.9844 33.8281C40.0729 33.7917 40.1693 33.7448 40.2734 33.6875C40.3776 33.6302 40.4531 33.5703 40.5 33.5078C40.5521 33.4401 40.5938 33.362 40.625 33.2734C40.6615 33.1797 40.6797 33.0781 40.6797 32.9688ZM38.3281 37.9141C39.0417 37.9141 39.612 37.7396 40.0391 37.3906C40.4661 37.0417 40.6797 36.5443 40.6797 35.8984V34.6641C40.4141 34.8516 39.8438 35.0339 38.9688 35.2109C38.2552 35.3672 37.7422 35.5599 37.4297 35.7891C37.1224 36.0182 36.9688 36.3359 36.9688 36.7422C36.9688 37.5234 37.4219 37.9141 38.3281 37.9141ZM47.875 32.2031H46.3438V36.6328C46.3438 36.862 46.3724 37.0469 46.4297 37.1875C46.487 37.3229 46.5781 37.4245 46.7031 37.4922C46.8281 37.5599 46.987 37.6016 47.1797 37.6172C47.3724 37.6276 47.6042 37.625 47.875 37.6094V38.9844C47.5156 39.0677 47.1328 39.1094 46.7266 39.1094C46.0286 39.1094 45.5052 38.9297 45.1562 38.5703C44.8125 38.2109 44.6406 37.612 44.6406 36.7734V32.2031H43.4609V30.8203H44.6406V28.25H46.3438V30.8203H47.875V32.2031ZM54.0859 32.9688C54.0859 32.276 53.5964 31.9297 52.6172 31.9297C51.9505 31.9297 51.474 32.0417 51.1875 32.2656C50.901 32.4896 50.737 32.8672 50.6953 33.3984H49.0625C49.1042 32.5547 49.4141 31.8776 49.9922 31.3672C50.5755 30.8568 51.4505 30.6016 52.6172 30.6016C54.7161 30.6016 55.7656 31.5547 55.7656 33.4609V37.3516C55.7656 37.6641 55.8177 37.888 55.9219 38.0234C56.0312 38.1536 56.2422 38.2031 56.5547 38.1719V38.9688C56.2422 39.0833 55.9167 39.1406 55.5781 39.1406C55.1302 39.1406 54.7917 39.0547 54.5625 38.8828C54.3333 38.7109 54.1797 38.4245 54.1016 38.0234H54.0703C53.7995 38.3984 53.4323 38.6953 52.9688 38.9141C52.5104 39.1328 51.9766 39.2422 51.3672 39.2422C50.5443 39.2422 49.8906 39.0286 49.4062 38.6016C48.9219 38.1693 48.6797 37.6042 48.6797 36.9062C48.6797 36.5573 48.7318 36.2474 48.8359 35.9766C48.9453 35.7005 49.0911 35.4688 49.2734 35.2812C49.4557 35.0885 49.6927 34.9193 49.9844 34.7734C50.2812 34.6276 50.5885 34.5104 50.9062 34.4219C51.2292 34.3281 51.612 34.237 52.0547 34.1484C52.2786 34.1068 52.4505 34.0729 52.5703 34.0469C52.6901 34.0208 52.8333 33.987 53 33.9453C53.1719 33.9036 53.3021 33.8646 53.3906 33.8281C53.4792 33.7917 53.5755 33.7448 53.6797 33.6875C53.7839 33.6302 53.8594 33.5703 53.9062 33.5078C53.9583 33.4401 54 33.362 54.0312 33.2734C54.0677 33.1797 54.0859 33.0781 54.0859 32.9688ZM51.7344 37.9141C52.4479 37.9141 53.0182 37.7396 53.4453 37.3906C53.8724 37.0417 54.0859 36.5443 54.0859 35.8984V34.6641C53.8203 34.8516 53.25 35.0339 52.375 35.2109C51.6615 35.3672 51.1484 35.5599 50.8359 35.7891C50.5286 36.0182 50.375 36.3359 50.375 36.7422C50.375 37.5234 50.8281 37.9141 51.7344 37.9141ZM59.6172 32.5078H64.5547V34.1328H59.6172V39H57.7109V27.5625H65.7109V29.1797H59.6172V32.5078ZM70.2812 30.6328C70.5312 30.6328 70.776 30.6484 71.0156 30.6797V32.2656H70.9844C70.1719 32.1302 69.4818 32.3073 68.9141 32.7969C68.3516 33.2812 68.0703 33.9557 68.0703 34.8203V39H66.3906V30.8203H68.0703V32.3594H68.1094C68.5938 31.2083 69.3177 30.6328 70.2812 30.6328ZM75.4297 37.8672C75.7578 37.8672 76.0547 37.8203 76.3203 37.7266C76.5859 37.6328 76.7969 37.513 76.9531 37.3672C77.1146 37.2214 77.2396 37.0781 77.3281 36.9375C77.4219 36.7917 77.4896 36.6484 77.5312 36.5078H79.2109C78.9922 37.3307 78.5651 37.9922 77.9297 38.4922C77.2943 38.9922 76.4766 39.2422 75.4766 39.2422C74.2161 39.2422 73.2188 38.8464 72.4844 38.0547C71.75 37.263 71.3828 36.2188 71.3828 34.9219C71.3828 33.5938 71.7448 32.5417 72.4688 31.7656C73.1927 30.9896 74.1693 30.6016 75.3984 30.6016C76.6901 30.6016 77.6693 31.0208 78.3359 31.8594C79.0026 32.6979 79.3359 33.862 79.3359 35.3516H73.0625C73.0625 36.0651 73.276 36.6641 73.7031 37.1484C74.1354 37.6276 74.7109 37.8672 75.4297 37.8672ZM75.3984 31.9297C74.7161 31.9297 74.1562 32.1354 73.7188 32.5469C73.2812 32.9531 73.0625 33.4714 73.0625 34.1016H77.6562C77.6562 33.4661 77.4479 32.9453 77.0312 32.5391C76.6198 32.1328 76.0755 31.9297 75.3984 31.9297ZM81.4297 29.4453C81.1797 29.4453 80.9583 29.3646 80.7656 29.2031C80.5781 29.0417 80.4844 28.8255 80.4844 28.5547C80.4844 28.2839 80.5781 28.0703 80.7656 27.9141C80.9583 27.7526 81.1797 27.6719 81.4297 27.6719C81.6953 27.6719 81.9219 27.75 82.1094 27.9062C82.2969 28.0625 82.3906 28.2786 82.3906 28.5547C82.3906 28.8307 82.2943 29.0495 82.1016 29.2109C81.9141 29.3672 81.6901 29.4453 81.4297 29.4453ZM80.6016 30.8203H82.2812V39H80.6016V30.8203ZM89.6484 30.8203H91.3281V38.4375C91.3281 39.5833 91.0026 40.4349 90.3516 40.9922C89.7005 41.5495 88.7786 41.8281 87.5859 41.8281C86.4661 41.8281 85.5729 41.5781 84.9062 41.0781C84.2396 40.5781 83.8594 39.9609 83.7656 39.2266H85.4609C85.6432 40.0651 86.3307 40.4844 87.5234 40.4844C88.237 40.4844 88.7682 40.3125 89.1172 39.9688C89.4714 39.6302 89.6484 39.099 89.6484 38.375V37.3828H89.6172C89.0443 38.1953 88.2188 38.6016 87.1406 38.6016C86.0833 38.6016 85.2214 38.25 84.5547 37.5469C83.888 36.8385 83.5547 35.8568 83.5547 34.6016C83.5547 33.3411 83.888 32.3594 84.5547 31.6562C85.2214 30.9531 86.0833 30.6016 87.1406 30.6016C88.2083 30.6016 89.0339 30.9948 89.6172 31.7812H89.6484V30.8203ZM87.4609 37.2266C88.1484 37.2266 88.6823 37.0026 89.0625 36.5547C89.4427 36.1068 89.6328 35.4557 89.6328 34.6016C89.6328 33.7474 89.4427 33.0964 89.0625 32.6484C88.6823 32.2005 88.1484 31.9766 87.4609 31.9766C86.7474 31.9766 86.1979 32.2188 85.8125 32.7031C85.4271 33.1823 85.2344 33.8151 85.2344 34.6016C85.2344 35.3828 85.4271 36.0156 85.8125 36.5C86.1979 36.9844 86.7474 37.2266 87.4609 37.2266ZM97.2969 30.6016C98.1146 30.6016 98.776 30.8359 99.2812 31.3047C99.7917 31.7682 100.047 32.4505 100.047 33.3516V39H98.3516V33.8281C98.3516 32.625 97.8073 32.0234 96.7188 32.0234C96.0938 32.0234 95.5833 32.2057 95.1875 32.5703C94.7969 32.9349 94.6016 33.4193 94.6016 34.0234V39H92.9219V27.5625H94.6016V31.8828H94.6406C94.8854 31.5182 95.2292 31.2135 95.6719 30.9688C96.1198 30.724 96.6615 30.6016 97.2969 30.6016ZM105.328 32.2031H103.797V36.6328C103.797 36.862 103.826 37.0469 103.883 37.1875C103.94 37.3229 104.031 37.4245 104.156 37.4922C104.281 37.5599 104.44 37.6016 104.633 37.6172C104.826 37.6276 105.057 37.625 105.328 37.6094V38.9844C104.969 39.0677 104.586 39.1094 104.18 39.1094C103.482 39.1094 102.958 38.9297 102.609 38.5703C102.266 38.2109 102.094 37.612 102.094 36.7734V32.2031H100.914V30.8203H102.094V28.25H103.797V30.8203H105.328V32.2031Z" fill="#2A2E4A"/>
<path d="M252.201 32.8604H256.665V33.9746H252.201V38.5H250.937V28.4922H257.725V29.6133H252.201V32.8604ZM261.491 31.165C261.733 31.165 261.954 31.1787 262.154 31.2061V32.3271H262.127C261.366 32.2041 260.735 32.375 260.233 32.8398C259.737 33.3001 259.488 33.9176 259.488 34.6924V38.5H258.374V31.3633H259.488V32.7715H259.522C259.728 32.2611 259.985 31.8669 260.295 31.5889C260.609 31.3063 261.008 31.165 261.491 31.165ZM263.87 29.9756C263.701 29.9756 263.542 29.9141 263.392 29.791C263.246 29.6634 263.173 29.4993 263.173 29.2988C263.173 29.0983 263.246 28.9365 263.392 28.8135C263.537 28.6904 263.697 28.6289 263.87 28.6289C264.048 28.6289 264.207 28.6904 264.349 28.8135C264.494 28.9365 264.567 29.0983 264.567 29.2988C264.567 29.4993 264.494 29.6634 264.349 29.791C264.207 29.9141 264.048 29.9756 263.87 29.9756ZM263.31 31.3633H264.431V38.5H263.31V31.3633ZM266.796 38.582C266.568 38.6549 266.37 38.6276 266.201 38.5C266.037 38.377 265.955 38.1673 265.955 37.8711C265.955 37.6159 266.026 37.4176 266.167 37.2764C266.313 37.1305 266.495 37.0576 266.714 37.0576C266.969 37.0576 267.163 37.1556 267.295 37.3516C267.427 37.5475 267.493 37.8141 267.493 38.1514C267.493 38.3564 267.47 38.5638 267.425 38.7734C267.379 38.9831 267.306 39.195 267.206 39.4092C267.11 39.6279 266.967 39.8148 266.775 39.9697C266.584 40.1292 266.358 40.2318 266.099 40.2773V39.5801C266.313 39.5345 266.481 39.4206 266.604 39.2383C266.732 39.0605 266.796 38.8418 266.796 38.582ZM273.119 32.8604H277.583V33.9746H273.119V38.5H271.854V28.4922H278.643V29.6133H273.119V32.8604ZM282.19 37.7139C282.464 37.7139 282.715 37.6797 282.942 37.6113C283.17 37.543 283.357 37.4587 283.503 37.3584C283.653 37.2581 283.783 37.1419 283.893 37.0098C284.007 36.8776 284.091 36.7546 284.146 36.6406C284.205 36.5221 284.248 36.4082 284.275 36.2988H285.396C285.201 37.0143 284.834 37.5931 284.296 38.0352C283.763 38.4772 283.075 38.6982 282.231 38.6982C281.16 38.6982 280.311 38.3542 279.682 37.666C279.057 36.9779 278.745 36.0664 278.745 34.9316C278.745 33.7513 279.053 32.8285 279.668 32.1631C280.288 31.4977 281.124 31.165 282.177 31.165C283.28 31.165 284.109 31.5182 284.665 32.2246C285.226 32.931 285.506 33.9313 285.506 35.2256H279.866C279.866 35.6676 279.948 36.0732 280.112 36.4424C280.281 36.8115 280.545 37.1169 280.905 37.3584C281.265 37.5954 281.694 37.7139 282.19 37.7139ZM282.177 32.1426C281.511 32.1426 280.96 32.3477 280.522 32.7578C280.085 33.1634 279.866 33.6579 279.866 34.2412H284.392C284.392 33.6533 284.187 33.1566 283.776 32.751C283.366 32.3454 282.833 32.1426 282.177 32.1426ZM290.004 31.165C290.451 31.165 290.87 31.2516 291.262 31.4248C291.654 31.598 291.993 31.8441 292.28 32.1631C292.572 32.4821 292.802 32.8809 292.971 33.3594C293.139 33.8333 293.224 34.3574 293.224 34.9316C293.224 35.5059 293.139 36.0322 292.971 36.5107C292.802 36.9847 292.572 37.3812 292.28 37.7002C291.993 38.0192 291.654 38.2653 291.262 38.4385C290.87 38.6117 290.451 38.6982 290.004 38.6982C289.061 38.6982 288.315 38.3382 287.769 37.6182H287.734V38.5H286.62V28.4922H287.734V32.2861H287.769C288.274 31.5387 289.02 31.165 290.004 31.165ZM289.895 37.7139C290.364 37.7139 290.77 37.5771 291.111 37.3037C291.453 37.0303 291.704 36.6885 291.863 36.2783C292.023 35.8636 292.103 35.4147 292.103 34.9316C292.103 34.4486 292.023 33.9997 291.863 33.585C291.704 33.1702 291.453 32.8262 291.111 32.5527C290.77 32.2793 290.364 32.1426 289.895 32.1426C289.234 32.1426 288.707 32.3955 288.315 32.9014C287.928 33.4072 287.734 34.084 287.734 34.9316C287.734 35.7747 287.928 36.4492 288.315 36.9551C288.703 37.4609 289.229 37.7139 289.895 37.7139ZM302.131 38.4385C301.712 38.6117 301.244 38.6982 300.729 38.6982C300.215 38.6982 299.747 38.6117 299.328 38.4385C298.909 38.2653 298.556 38.026 298.269 37.7207C297.986 37.4154 297.747 37.0508 297.551 36.627C297.359 36.1986 297.22 35.7383 297.134 35.2461C297.047 34.7539 297.004 34.2275 297.004 33.667C297.004 33.1064 297.047 32.5801 297.134 32.0879C297.22 31.5957 297.359 31.1377 297.551 30.7139C297.747 30.2855 297.986 29.9186 298.269 29.6133C298.556 29.3079 298.909 29.0687 299.328 28.8955C299.747 28.7178 300.215 28.6289 300.729 28.6289C301.244 28.6289 301.712 28.7178 302.131 28.8955C302.55 29.0687 302.901 29.3079 303.184 29.6133C303.471 29.9186 303.71 30.2855 303.901 30.7139C304.097 31.1377 304.239 31.5957 304.325 32.0879C304.412 32.5801 304.455 33.1064 304.455 33.667C304.455 34.2275 304.412 34.7539 304.325 35.2461C304.239 35.7383 304.097 36.1986 303.901 36.627C303.71 37.0508 303.471 37.4154 303.184 37.7207C302.901 38.026 302.55 38.2653 302.131 38.4385ZM300.729 37.5771C301.176 37.5771 301.561 37.4723 301.885 37.2627C302.213 37.0531 302.468 36.7614 302.65 36.3877C302.837 36.014 302.974 35.6038 303.061 35.1572C303.147 34.7061 303.19 34.2093 303.19 33.667C303.19 33.1247 303.147 32.6302 303.061 32.1836C302.974 31.7324 302.837 31.32 302.65 30.9463C302.468 30.5726 302.213 30.2809 301.885 30.0713C301.561 29.8571 301.176 29.75 300.729 29.75C300.283 29.75 299.896 29.8571 299.567 30.0713C299.239 30.2809 298.982 30.5726 298.795 30.9463C298.613 31.32 298.478 31.7324 298.392 32.1836C298.305 32.6348 298.262 33.1292 298.262 33.667C298.262 34.0954 298.287 34.4964 298.337 34.8701C298.392 35.2393 298.478 35.5924 298.597 35.9297C298.72 36.2669 298.875 36.5563 299.062 36.7979C299.248 37.0348 299.483 37.224 299.766 37.3652C300.048 37.5065 300.369 37.5771 300.729 37.5771ZM305.036 28.8271H311.742V29.8047C311.013 30.4154 310.345 31.2015 309.739 32.1631C309.133 33.1247 308.652 34.166 308.297 35.2871C307.941 36.4082 307.764 37.4792 307.764 38.5H306.438C306.438 37.7253 306.558 36.9027 306.8 36.0322C307.046 35.1572 307.36 34.3438 307.743 33.5918C308.131 32.8353 308.55 32.1426 309.001 31.5137C309.452 30.8802 309.899 30.3675 310.341 29.9756V29.9482H305.036V28.8271Z" fill="#7B7F97"/>
<path d="M24.9365 163.5V153.492H26.4746L31.4785 161.736H31.5059V153.492H32.7637V163.5H31.2256L26.2285 155.283H26.2012V163.5H24.9365ZM37.3981 163.698C36.3225 163.698 35.4703 163.354 34.8414 162.666C34.2125 161.973 33.8981 161.062 33.8981 159.932C33.8981 158.801 34.2125 157.892 34.8414 157.204C35.4703 156.511 36.3225 156.165 37.3981 156.165C38.469 156.165 39.3167 156.511 39.941 157.204C40.5699 157.897 40.8844 158.806 40.8844 159.932C40.8844 161.057 40.5699 161.966 39.941 162.659C39.3167 163.352 38.469 163.698 37.3981 163.698ZM37.3981 162.714C38.1591 162.714 38.7425 162.452 39.1481 161.928C39.5582 161.404 39.7633 160.738 39.7633 159.932C39.7633 159.125 39.5582 158.46 39.1481 157.936C38.7425 157.407 38.1591 157.143 37.3981 157.143C36.6279 157.143 36.0377 157.407 35.6275 157.936C35.2219 158.46 35.0191 159.125 35.0191 159.932C35.0191 160.738 35.2219 161.404 35.6275 161.928C36.0377 162.452 36.6279 162.714 37.3981 162.714ZM40.8293 156.363H42.0461L44.0217 162.379H44.0354L46.011 156.363H47.2278L44.6643 163.5H43.3928L40.8293 156.363Z" fill="#7B7F97"/>
<path d="M84.9365 163.5V153.492H88.5664C89.9564 153.492 91.0456 153.93 91.834 154.805C92.6224 155.675 93.0166 156.908 93.0166 158.503C93.0166 160.098 92.6224 161.331 91.834 162.201C91.0456 163.067 89.9564 163.5 88.5664 163.5H84.9365ZM86.2012 154.613V162.379H88.5664C89.0586 162.379 89.4938 162.306 89.8721 162.16C90.2549 162.014 90.5625 161.823 90.7949 161.586C91.0273 161.344 91.2165 161.053 91.3623 160.711C91.5127 160.369 91.6152 160.021 91.6699 159.665C91.7292 159.31 91.7588 158.922 91.7588 158.503C91.7588 158.084 91.7292 157.696 91.6699 157.341C91.6152 156.985 91.5127 156.637 91.3623 156.295C91.2165 155.949 91.0273 155.655 90.7949 155.413C90.5625 155.172 90.2549 154.978 89.8721 154.832C89.4938 154.686 89.0586 154.613 88.5664 154.613H86.2012ZM97.0699 162.714C97.3434 162.714 97.594 162.68 97.8219 162.611C98.0497 162.543 98.2366 162.459 98.3824 162.358C98.5328 162.258 98.6627 162.142 98.7721 162.01C98.886 161.878 98.9703 161.755 99.025 161.641C99.0843 161.522 99.1275 161.408 99.1549 161.299H100.276C100.08 162.014 99.7132 162.593 99.1754 163.035C98.6422 163.477 97.954 163.698 97.1109 163.698C96.04 163.698 95.19 163.354 94.5611 162.666C93.9368 161.978 93.6246 161.066 93.6246 159.932C93.6246 158.751 93.9322 157.828 94.5475 157.163C95.1673 156.498 96.0035 156.165 97.0563 156.165C98.1591 156.165 98.9885 156.518 99.5445 157.225C100.105 157.931 100.385 158.931 100.385 160.226H94.7457C94.7457 160.668 94.8277 161.073 94.9918 161.442C95.1604 161.812 95.4247 162.117 95.7848 162.358C96.1448 162.595 96.5732 162.714 97.0699 162.714ZM97.0563 157.143C96.3909 157.143 95.8395 157.348 95.402 157.758C94.9645 158.163 94.7457 158.658 94.7457 159.241H99.2711C99.2711 158.653 99.066 158.157 98.6559 157.751C98.2457 157.345 97.7125 157.143 97.0563 157.143ZM106.257 158.934C106.243 158.724 106.196 158.519 106.113 158.318C106.036 158.118 105.92 157.926 105.765 157.744C105.614 157.562 105.407 157.416 105.143 157.307C104.883 157.197 104.582 157.143 104.24 157.143C103.912 157.143 103.614 157.197 103.345 157.307C103.081 157.411 102.86 157.555 102.682 157.737C102.509 157.915 102.361 158.127 102.238 158.373C102.119 158.615 102.032 158.865 101.978 159.125C101.928 159.385 101.903 159.654 101.903 159.932C101.903 160.283 101.946 160.618 102.032 160.937C102.119 161.256 102.251 161.552 102.429 161.825C102.607 162.094 102.85 162.311 103.16 162.475C103.475 162.634 103.835 162.714 104.24 162.714C104.587 162.714 104.89 162.659 105.15 162.55C105.414 162.44 105.621 162.295 105.772 162.112C105.922 161.925 106.036 161.729 106.113 161.524C106.196 161.315 106.243 161.096 106.257 160.868H107.378C107.328 161.688 107.011 162.365 106.428 162.898C105.845 163.432 105.115 163.698 104.24 163.698C103.201 163.698 102.365 163.352 101.732 162.659C101.098 161.966 100.781 161.057 100.781 159.932C100.781 158.806 101.098 157.897 101.732 157.204C102.365 156.511 103.201 156.165 104.24 156.165C105.106 156.165 105.824 156.425 106.394 156.944C106.963 157.459 107.292 158.122 107.378 158.934H106.257Z" fill="#7B7F97"/>
<path d="M150.146 160.451C150.146 160.793 150.116 161.114 150.057 161.415C150.002 161.716 149.904 162.01 149.763 162.297C149.621 162.579 149.441 162.823 149.223 163.028C149.008 163.229 148.73 163.391 148.389 163.514C148.047 163.637 147.657 163.698 147.22 163.698C146.782 163.698 146.393 163.637 146.051 163.514C145.709 163.391 145.431 163.229 145.217 163.028C145.003 162.823 144.825 162.579 144.684 162.297C144.547 162.01 144.449 161.716 144.39 161.415C144.335 161.114 144.308 160.793 144.308 160.451V160.171H145.565V160.451C145.565 160.72 145.575 160.95 145.593 161.142C145.616 161.333 145.661 161.524 145.729 161.716C145.798 161.907 145.891 162.062 146.01 162.181C146.128 162.299 146.288 162.395 146.488 162.468C146.693 162.541 146.937 162.577 147.22 162.577C147.502 162.577 147.746 162.541 147.951 162.468C148.156 162.395 148.318 162.299 148.437 162.181C148.555 162.062 148.648 161.907 148.717 161.716C148.785 161.524 148.831 161.333 148.854 161.142C148.876 160.946 148.888 160.715 148.888 160.451V153.492H150.146V160.451ZM155.792 158.182C155.792 157.489 155.306 157.143 154.336 157.143C153.666 157.143 153.194 157.25 152.921 157.464C152.647 157.678 152.492 158.047 152.456 158.571H151.335C151.371 157.838 151.633 157.254 152.121 156.821C152.613 156.384 153.351 156.165 154.336 156.165C154.618 156.165 154.88 156.188 155.122 156.233C155.368 156.279 155.602 156.356 155.826 156.466C156.049 156.575 156.238 156.714 156.393 156.883C156.548 157.051 156.671 157.268 156.762 157.532C156.858 157.792 156.906 158.088 156.906 158.421V161.887C156.906 162.197 156.958 162.415 157.063 162.543C157.168 162.666 157.387 162.709 157.719 162.673V163.459C157.496 163.532 157.277 163.568 157.063 163.568C156.703 163.568 156.425 163.502 156.229 163.37C156.033 163.233 155.887 162.978 155.792 162.604H155.764C155.272 163.334 154.463 163.698 153.338 163.698C152.622 163.698 152.05 163.511 151.622 163.138C151.198 162.764 150.986 162.274 150.986 161.668C150.986 161.349 151.034 161.069 151.129 160.827C151.23 160.586 151.36 160.385 151.519 160.226C151.679 160.066 151.897 159.925 152.175 159.802C152.453 159.674 152.731 159.574 153.009 159.501C153.287 159.428 153.631 159.353 154.042 159.275C154.707 159.152 155.165 159.022 155.416 158.886C155.666 158.749 155.792 158.514 155.792 158.182ZM153.454 162.714C154.16 162.714 154.725 162.55 155.149 162.222C155.577 161.894 155.792 161.401 155.792 160.745V159.549C155.609 159.731 155.058 159.918 154.137 160.109C153.413 160.264 152.893 160.451 152.579 160.67C152.264 160.889 152.107 161.203 152.107 161.613C152.107 162.347 152.556 162.714 153.454 162.714ZM161.752 156.165C162.085 156.165 162.392 156.213 162.675 156.309C162.958 156.4 163.21 156.539 163.434 156.726C163.657 156.908 163.83 157.154 163.953 157.464C164.081 157.769 164.145 158.12 164.145 158.517V163.5H163.024V158.797C163.024 158.3 162.898 157.901 162.648 157.601C162.397 157.295 162.005 157.143 161.472 157.143C160.848 157.143 160.339 157.323 159.947 157.683C159.56 158.038 159.366 158.494 159.366 159.05V163.5H158.252V156.363H159.366V157.211H159.401C159.619 156.915 159.925 156.666 160.317 156.466C160.713 156.265 161.192 156.165 161.752 156.165Z" fill="#2A2E4A"/>
<rect x="201" y="144" width="52" height="28" rx="14" fill="#2A2E4A"/>
<path d="M217.701 157.86H222.165V158.975H217.701V163.5H216.437V153.492H223.225V154.613H217.701V157.86ZM226.464 162.714C226.738 162.714 226.989 162.68 227.216 162.611C227.444 162.543 227.631 162.459 227.777 162.358C227.927 162.258 228.057 162.142 228.167 162.01C228.281 161.878 228.365 161.755 228.42 161.641C228.479 161.522 228.522 161.408 228.549 161.299H229.671C229.475 162.014 229.108 162.593 228.57 163.035C228.037 163.477 227.349 163.698 226.505 163.698C225.435 163.698 224.585 163.354 223.956 162.666C223.331 161.978 223.019 161.066 223.019 159.932C223.019 158.751 223.327 157.828 223.942 157.163C224.562 156.498 225.398 156.165 226.451 156.165C227.554 156.165 228.383 156.518 228.939 157.225C229.5 157.931 229.78 158.931 229.78 160.226H224.14C224.14 160.668 224.222 161.073 224.386 161.442C224.555 161.812 224.819 162.117 225.179 162.358C225.539 162.595 225.968 162.714 226.464 162.714ZM226.451 157.143C225.785 157.143 225.234 157.348 224.796 157.758C224.359 158.163 224.14 158.658 224.14 159.241H228.666C228.666 158.653 228.461 158.157 228.05 157.751C227.64 157.345 227.107 157.143 226.451 157.143ZM233.97 156.165C234.417 156.165 234.836 156.252 235.228 156.425C235.62 156.598 235.959 156.844 236.246 157.163C236.538 157.482 236.768 157.881 236.937 158.359C237.105 158.833 237.19 159.357 237.19 159.932C237.19 160.506 237.105 161.032 236.937 161.511C236.768 161.985 236.538 162.381 236.246 162.7C235.959 163.019 235.62 163.265 235.228 163.438C234.836 163.612 234.417 163.698 233.97 163.698C233.027 163.698 232.281 163.338 231.735 162.618H231.7V163.5H230.586V153.492H231.7V157.286H231.735C232.24 156.539 232.986 156.165 233.97 156.165ZM233.861 162.714C234.33 162.714 234.736 162.577 235.077 162.304C235.419 162.03 235.67 161.688 235.829 161.278C235.989 160.864 236.069 160.415 236.069 159.932C236.069 159.449 235.989 159 235.829 158.585C235.67 158.17 235.419 157.826 235.077 157.553C234.736 157.279 234.33 157.143 233.861 157.143C233.2 157.143 232.673 157.396 232.281 157.901C231.894 158.407 231.7 159.084 231.7 159.932C231.7 160.775 231.894 161.449 232.281 161.955C232.669 162.461 233.195 162.714 233.861 162.714Z" fill="white"/>
<path d="M289.938 163.5V153.492H291.661L294.799 161.805H294.826L297.964 153.492H299.687V163.5H298.422V155.27H298.395L295.373 163.5H294.252L291.23 155.27H291.203V163.5H289.938ZM305.456 158.182C305.456 157.489 304.97 157.143 304 157.143C303.33 157.143 302.858 157.25 302.585 157.464C302.311 157.678 302.156 158.047 302.12 158.571H300.999C301.035 157.838 301.297 157.254 301.785 156.821C302.277 156.384 303.015 156.165 304 156.165C304.282 156.165 304.544 156.188 304.786 156.233C305.032 156.279 305.267 156.356 305.49 156.466C305.713 156.575 305.902 156.714 306.057 156.883C306.212 157.051 306.335 157.268 306.426 157.532C306.522 157.792 306.57 158.088 306.57 158.421V161.887C306.57 162.197 306.622 162.415 306.727 162.543C306.832 162.666 307.051 162.709 307.383 162.673V163.459C307.16 163.532 306.941 163.568 306.727 163.568C306.367 163.568 306.089 163.502 305.893 163.37C305.697 163.233 305.551 162.978 305.456 162.604H305.428C304.936 163.334 304.127 163.698 303.002 163.698C302.286 163.698 301.714 163.511 301.286 163.138C300.862 162.764 300.65 162.274 300.65 161.668C300.65 161.349 300.698 161.069 300.794 160.827C300.894 160.586 301.024 160.385 301.183 160.226C301.343 160.066 301.561 159.925 301.839 159.802C302.117 159.674 302.395 159.574 302.673 159.501C302.951 159.428 303.296 159.353 303.706 159.275C304.371 159.152 304.829 159.022 305.08 158.886C305.33 158.749 305.456 158.514 305.456 158.182ZM303.118 162.714C303.824 162.714 304.389 162.55 304.813 162.222C305.241 161.894 305.456 161.401 305.456 160.745V159.549C305.273 159.731 304.722 159.918 303.801 160.109C303.077 160.264 302.557 160.451 302.243 160.67C301.928 160.889 301.771 161.203 301.771 161.613C301.771 162.347 302.22 162.714 303.118 162.714ZM311.033 156.165C311.275 156.165 311.496 156.179 311.697 156.206V157.327H311.669C310.908 157.204 310.277 157.375 309.776 157.84C309.279 158.3 309.03 158.918 309.03 159.692V163.5H307.916V156.363H309.03V157.771H309.065C309.27 157.261 309.527 156.867 309.837 156.589C310.152 156.306 310.55 156.165 311.033 156.165Z" fill="#2A2E4A"/>
<g filter="url(#filter0_f_950_9987)">
<circle cx="169" cy="98" r="24" fill="#998EE0"/>
</g>
<path d="M172.027 75.4648C172.027 76.5326 171.646 77.4212 170.885 78.1309C170.123 78.8405 169.02 79.2246 167.574 79.2832V80.6992H166.373V79.2441C165.689 79.166 165.058 79.0098 164.479 78.7754C163.906 78.5345 163.391 78.2188 162.936 77.8281C162.486 77.431 162.125 76.9427 161.852 76.3633C161.578 75.7773 161.419 75.123 161.373 74.4004H163.17C163.359 76.3014 164.426 77.3757 166.373 77.623V72.6035C166.054 72.5189 165.771 72.4375 165.523 72.3594C165.283 72.2812 164.999 72.1771 164.674 72.0469C164.355 71.9167 164.075 71.7865 163.834 71.6562C163.6 71.5195 163.359 71.3535 163.111 71.1582C162.864 70.9564 162.662 70.7448 162.506 70.5234C162.35 70.2956 162.219 70.0319 162.115 69.7324C162.018 69.4329 161.969 69.1139 161.969 68.7754C161.969 67.6686 162.363 66.7767 163.15 66.0996C163.938 65.416 165.012 65.0547 166.373 65.0156V63.8633H167.574V65.1035C168.714 65.2858 169.651 65.7546 170.387 66.5098C171.129 67.265 171.542 68.2741 171.627 69.5371H169.83C169.661 67.9811 168.909 67.0436 167.574 66.7246V71.1973C167.919 71.3079 168.196 71.3991 168.404 71.4707C168.613 71.5358 168.863 71.6237 169.156 71.7344C169.456 71.8451 169.693 71.946 169.869 72.0371C170.051 72.1283 170.253 72.2422 170.475 72.3789C170.702 72.5156 170.882 72.6556 171.012 72.7988C171.148 72.9355 171.288 73.0983 171.432 73.2871C171.581 73.4759 171.692 73.6777 171.764 73.8926C171.842 74.1009 171.904 74.3385 171.949 74.6055C172.001 74.8724 172.027 75.1589 172.027 75.4648ZM163.775 68.5801C163.775 68.8926 163.837 69.1693 163.961 69.4102C164.085 69.6445 164.277 69.8496 164.537 70.0254C164.798 70.1947 165.061 70.3379 165.328 70.4551C165.602 70.5658 165.95 70.6862 166.373 70.8164V66.6172C165.572 66.6432 164.938 66.8353 164.469 67.1934C164.007 67.5449 163.775 68.0072 163.775 68.5801ZM167.574 77.6816C168.466 77.6361 169.13 77.4147 169.566 77.0176C170.009 76.6204 170.23 76.1029 170.23 75.4648C170.23 74.8073 170.035 74.3027 169.645 73.9512C169.254 73.5996 168.564 73.2708 167.574 72.9648V77.6816ZM184.84 78.9121C184.241 79.1595 183.574 79.2832 182.838 79.2832C182.102 79.2832 181.435 79.1595 180.836 78.9121C180.237 78.6647 179.732 78.3229 179.322 77.8867C178.919 77.4505 178.577 76.9297 178.297 76.3242C178.023 75.7122 177.825 75.0547 177.701 74.3516C177.577 73.6484 177.516 72.8965 177.516 72.0957C177.516 71.2949 177.577 70.543 177.701 69.8398C177.825 69.1367 178.023 68.4824 178.297 67.877C178.577 67.265 178.919 66.7409 179.322 66.3047C179.732 65.8685 180.237 65.5267 180.836 65.2793C181.435 65.0254 182.102 64.8984 182.838 64.8984C183.574 64.8984 184.241 65.0254 184.84 65.2793C185.439 65.5267 185.94 65.8685 186.344 66.3047C186.754 66.7409 187.096 67.265 187.369 67.877C187.649 68.4824 187.851 69.1367 187.975 69.8398C188.098 70.543 188.16 71.2949 188.16 72.0957C188.16 72.8965 188.098 73.6484 187.975 74.3516C187.851 75.0547 187.649 75.7122 187.369 76.3242C187.096 76.9297 186.754 77.4505 186.344 77.8867C185.94 78.3229 185.439 78.6647 184.84 78.9121ZM182.838 77.6816C183.476 77.6816 184.026 77.5319 184.488 77.2324C184.957 76.9329 185.322 76.5163 185.582 75.9824C185.849 75.4486 186.044 74.8626 186.168 74.2246C186.292 73.5801 186.354 72.8704 186.354 72.0957C186.354 71.321 186.292 70.6146 186.168 69.9766C186.044 69.332 185.849 68.7428 185.582 68.209C185.322 67.6751 184.957 67.2585 184.488 66.959C184.026 66.653 183.476 66.5 182.838 66.5C182.2 66.5 181.646 66.653 181.178 66.959C180.709 67.2585 180.341 67.6751 180.074 68.209C179.814 68.7428 179.622 69.332 179.498 69.9766C179.374 70.6211 179.312 71.3275 179.312 72.0957C179.312 72.7077 179.348 73.2806 179.42 73.8145C179.498 74.3418 179.622 74.8464 179.791 75.3281C179.967 75.8099 180.188 76.2233 180.455 76.5684C180.722 76.9069 181.057 77.1771 181.461 77.3789C181.865 77.5807 182.324 77.6816 182.838 77.6816ZM191.295 78.8438C191.093 79.0391 190.833 79.1367 190.514 79.1367C190.195 79.1367 189.931 79.0391 189.723 78.8438C189.514 78.6419 189.41 78.375 189.41 78.043C189.41 77.7174 189.514 77.4538 189.723 77.252C189.938 77.0436 190.201 76.9395 190.514 76.9395C190.826 76.9395 191.087 77.0436 191.295 77.252C191.503 77.4538 191.607 77.7174 191.607 78.043C191.607 78.375 191.503 78.6419 191.295 78.8438ZM195.016 69.3223H193.219C193.219 68.0007 193.652 66.9329 194.518 66.1191C195.39 65.3053 196.65 64.8984 198.297 64.8984C199.098 64.8984 199.83 65.0449 200.494 65.3379C201.158 65.6243 201.699 66.0638 202.115 66.6562C202.532 67.2422 202.74 67.929 202.74 68.7168C202.74 70.11 202.031 71.0898 200.611 71.6562V71.6953C201.549 71.9492 202.219 72.3691 202.623 72.9551C203.033 73.5345 203.238 74.2572 203.238 75.123C203.238 76.4577 202.799 77.4863 201.92 78.209C201.041 78.9251 199.846 79.2832 198.336 79.2832C196.585 79.2832 195.234 78.8503 194.283 77.9844C193.333 77.112 192.857 75.8913 192.857 74.3223H194.654C194.654 76.5618 195.836 77.6816 198.199 77.6816C199.358 77.6816 200.185 77.4701 200.68 77.0469C201.181 76.6237 201.432 75.9824 201.432 75.123C201.432 73.4303 200.458 72.584 198.512 72.584H197.037V70.9824H198.434C199.189 70.9824 199.794 70.7969 200.25 70.4258C200.706 70.0482 200.934 69.4785 200.934 68.7168C200.934 68.0983 200.712 67.5742 200.27 67.1445C199.833 66.7148 199.176 66.5 198.297 66.5C196.109 66.5 195.016 67.4408 195.016 69.3223ZM209.879 69.7227C211.161 69.7227 212.219 70.1589 213.053 71.0312C213.886 71.9036 214.303 72.9876 214.303 74.2832C214.303 75.2533 214.081 76.1224 213.639 76.8906C213.202 77.6589 212.607 78.2513 211.852 78.668C211.103 79.0781 210.266 79.2832 209.342 79.2832C208.574 79.2832 207.874 79.166 207.242 78.9316C206.611 78.6973 206.09 78.3815 205.68 77.9844C205.27 77.5807 204.947 77.125 204.713 76.6172C204.485 76.1094 204.361 75.5755 204.342 75.0156H206.139C206.178 75.3737 206.262 75.7025 206.393 76.002C206.523 76.3014 206.705 76.5814 206.939 76.8418C207.18 77.1022 207.496 77.3073 207.887 77.457C208.284 77.6068 208.743 77.6816 209.264 77.6816C210.24 77.6816 211.025 77.3854 211.617 76.793C212.21 76.2005 212.506 75.3639 212.506 74.2832C212.506 73.2871 212.232 72.5449 211.686 72.0566C211.139 71.5684 210.396 71.3242 209.459 71.3242C208.124 71.3242 207.118 71.7572 206.441 72.623H204.527L205.963 65.1816H213.561V66.7832H207.418L206.607 70.9629V71.002C207.356 70.1491 208.447 69.7227 209.879 69.7227Z" fill="#2A2E4A"/>
<path d="M1 119.926C5.05903 119.926 17.816 108.278 24.7743 115.815C30.0961 121.579 37.5595 126.563 45.6493 124.722C53.7391 122.881 61.5484 120.752 68.9028 121.63C76.2572 122.509 81.4052 130.226 85.8179 132.678C90.2305 135.13 91.7014 136.358 96.114 132.678C100.527 128.998 107.881 70.6899 115.235 62.7115C122.59 54.733 132.15 76.83 139.505 84.1924C146.859 91.5547 154.949 99.5355 163.039 99.5355C171.129 99.5355 175.541 98.9218 183.631 104.445C191.721 109.969 202.017 99.5355 209.371 97.0806C216.726 94.6256 227.022 95.239 234.376 104.445C241.731 113.652 258.325 114.808 263.058 113.652C274.807 110.782 279.156 114.686 284.857 116.836C288.894 117.898 304.192 126.891 319.059 116.836C329.747 109.608 331.437 99.3704 335 99.3704" stroke="#998EE0" stroke-width="3"/>
<g filter="url(#filter1_d_950_9987)">
<ellipse cx="166.014" cy="98" rx="9.92813" ry="10" fill="#998EE0"/>
<path d="M166.014 90C170.379 90 173.942 93.5681 173.942 98C173.942 102.432 170.379 106 166.014 106C161.649 106 158.086 102.432 158.086 98C158.086 93.5682 161.649 90.0002 166.014 90Z" stroke="white" stroke-width="4"/>
</g>
<defs>
<filter id="filter0_f_950_9987" x="92.1" y="21.1" width="153.8" height="153.8" filterUnits="userSpaceOnUse" color-interpolation-filters="sRGB">
<feFlood flood-opacity="0" result="BackgroundImageFix"/>
<feBlend mode="normal" in="SourceGraphic" in2="BackgroundImageFix" result="shape"/>
<feGaussianBlur stdDeviation="26.45" result="effect1_foregroundBlur_950_9987"/>
</filter>
<filter id="filter1_d_950_9987" x="153.386" y="86.3" width="25.2555" height="25.4" filterUnits="userSpaceOnUse" color-interpolation-filters="sRGB">
<feFlood flood-opacity="0" result="BackgroundImageFix"/>
<feColorMatrix in="SourceAlpha" type="matrix" values="0 0 0 0 0 0 0 0 0 0 0 0 0 0 0 0 0 0 127 0" result="hardAlpha"/>
<feOffset dy="1"/>
<feGaussianBlur stdDeviation="1.35"/>
<feComposite in2="hardAlpha" operator="out"/>
<feColorMatrix type="matrix" values="0 0 0 0 0.392617 0 0 0 0 0.352334 0 0 0 0 0.65262 0 0 0 1 0"/>
<feBlend mode="normal" in2="BackgroundImageFix" result="effect1_dropShadow_950_9987"/>
<feBlend mode="normal" in="SourceGraphic" in2="effect1_dropShadow_950_9987" result="shape"/>
</filter>
</defs>
</svg>
