<svg width="78" height="58" viewBox="0 0 78 58" fill="none" xmlns="http://www.w3.org/2000/svg">
<path d="M24.8634 1.82259C26.5501 0.847645 28.6553 1.83492 29.0921 3.73349L29.8644 7.09038C30.0372 7.84145 29.7617 8.62357 29.165 9.11141C25.5808 12.0421 22.399 15.106 19.6196 18.3033C16.7485 21.7896 15.3129 25.7514 15.3129 30.1885C15.3129 32.0902 15.3129 33.8333 15.3129 35.418C15.4724 36.8443 15.7914 38.112 16.2699 39.2213C15.4724 39.2213 14.0368 39.2213 11.9632 39.2213C10.0491 39.2213 8.77301 39.2213 8.13497 39.2213C8.13497 36.5273 9.41104 34.2295 11.9632 32.3279C14.6748 30.4262 17.3865 29.4754 20.0982 29.4754C23.4479 29.4754 26.3988 30.6639 28.9509 33.041C31.6626 35.2596 33.0184 38.429 33.0184 42.5492C33.0184 46.9863 31.6626 50.7104 28.9509 53.7213C26.2393 56.5738 22.4908 58 17.7055 58C12.6012 58 8.37423 56.4945 5.02454 53.4836C1.67485 50.3142 0 45.0847 0 37.7951C0 31.1393 2.47239 24.3251 7.41718 17.3525C11.8495 11.1602 17.6649 5.98355 24.8634 1.82259ZM70.9567 1.19417C72.0934 0.565806 73.4962 1.22328 73.7874 2.48899L74.846 7.09038C75.0188 7.84145 74.7433 8.62357 74.1466 9.11141C70.5624 12.0421 67.3806 15.106 64.6012 18.3033C61.7301 21.7896 60.2945 25.7514 60.2945 30.1885C60.2945 32.0902 60.2945 33.8333 60.2945 35.418C60.454 36.8443 60.773 38.112 61.2515 39.2213C60.454 39.2213 59.0184 39.2213 56.9448 39.2213C55.0307 39.2213 53.7546 39.2213 53.1166 39.2213C53.1166 36.5273 54.3926 34.2295 56.9448 32.3279C59.6564 30.4262 62.3681 29.4754 65.0798 29.4754C68.4295 29.4754 71.3804 30.6639 73.9325 33.041C76.6442 35.2596 78 38.429 78 42.5492C78 46.9863 76.6442 50.7104 73.9325 53.7213C71.2209 56.5738 67.4724 58 62.6871 58C57.5828 58 53.3558 56.4945 50.0061 53.4836C46.6564 50.3142 44.9816 45.0847 44.9816 37.7951C44.9816 31.1393 47.454 24.3251 52.3988 17.3525C57.057 10.8445 63.243 5.45841 70.9567 1.19417Z" fill="#D4CEF8"/>
</svg>
