<svg width="17" height="16" viewBox="0 0 17 16" fill="none" xmlns="http://www.w3.org/2000/svg">
<g clip-path="url(#clip0_3554_15075)">
<path d="M14.2881 1.26172H2.59012C2.59012 1.26172 2.45229 11.6734 8.28221 11.951V11.9569C8.33499 11.9569 8.38778 11.9569 8.44056 11.9569C8.49335 11.9569 8.5432 11.9569 8.59599 11.9569V11.951C14.4259 11.6734 14.2881 1.26172 14.2881 1.26172Z" fill="#FFD13D"/>
<path d="M14.2858 1.26172H11.148C11.1333 2.5377 10.8752 10.1552 6.64062 11.5552C7.12743 11.7827 7.66995 11.9215 8.27992 11.951V11.9569C8.33271 11.9569 8.38549 11.9569 8.43828 11.9569C8.49107 11.9569 8.54092 11.9569 8.5937 11.9569V11.951C14.4236 11.6734 14.2858 1.26172 14.2858 1.26172Z" fill="#FCAF00"/>
<path d="M11.8254 9.77969L11.5703 9.20373C11.6231 9.1801 16.8049 6.83194 16.3416 4.18545C16.2448 3.63312 16.0395 3.2964 15.7316 3.19007C14.9515 2.91833 13.5351 3.97279 13.1011 4.36563L12.6847 3.89599C12.8841 3.71582 14.67 2.15333 15.9369 2.59343C16.4765 2.78246 16.8196 3.27868 16.9603 4.07617C17.5087 7.20705 12.0571 9.67927 11.8254 9.78265V9.77969Z" fill="#FCAF00"/>
<path d="M5.17363 9.77958C4.94196 9.6762 -0.50965 7.20694 0.038737 4.0731C0.179499 3.27856 0.522608 2.77939 1.0622 2.59036C2.32906 2.14731 4.11498 3.71275 4.3144 3.89293L3.89797 4.36256C3.4317 3.94314 2.05047 2.91526 1.26748 3.187C0.959558 3.29333 0.75428 3.63005 0.657505 4.18238C0.194162 6.82887 5.37598 9.17703 5.42877 9.20066L5.17363 9.77663V9.77958Z" fill="#FFD13D"/>
<path d="M14.1485 1.32124H2.73208C2.37138 1.32124 2.07812 1.02587 2.07812 0.662573C2.07812 0.299273 2.37138 0.00390625 2.73208 0.00390625H14.1485C14.5092 0.00390625 14.8025 0.299273 14.8025 0.662573C14.8025 1.02587 14.5092 1.32124 14.1485 1.32124Z" fill="#FFD527"/>
<path d="M9.13545 11.4961C9.13545 11.4961 9.47856 15.7435 11.5695 16.0004H8.4375V11.5256L9.13545 11.4961Z" fill="#FCAF00"/>
<path d="M9.13545 11.4961C9.13545 11.4961 9.47856 15.7435 11.5695 16.0004H8.4375V11.5256L9.13545 11.4961Z" fill="#FCAF00"/>
<path d="M7.7348 11.4961C7.7348 11.4961 7.39169 15.7435 5.30078 16.0004H8.43275V11.5256L7.7348 11.4961Z" fill="#FCAF00"/>
<path d="M12.2829 15.9983H4.58203C4.58203 15.381 5.07763 14.8789 5.69347 14.8789H11.1744C11.7873 14.8789 12.2858 15.3781 12.2858 15.9983H12.2829Z" fill="#FED03A"/>
<path d="M7.62911 15.1953C7.62911 15.3312 7.13351 15.4375 6.52354 15.4375C5.91357 15.4375 5.41797 15.3282 5.41797 15.1953C5.41797 15.0624 5.91357 14.9531 6.52354 14.9531C7.13351 14.9531 7.62911 15.0624 7.62911 15.1953Z" fill="#FEF68E"/>
<path d="M4.58236 5.24666C5.32252 5.24666 5.92254 4.47702 5.92254 3.52763C5.92254 2.57823 5.32252 1.80859 4.58236 1.80859C3.8422 1.80859 3.24219 2.57823 3.24219 3.52763C3.24219 4.47702 3.8422 5.24666 4.58236 5.24666Z" fill="#FEF68E"/>
<path d="M4.07455 0.774902C4.81471 0.774902 5.41473 0.626793 5.41473 0.444092C5.41473 0.26139 4.81471 0.113281 4.07455 0.113281C3.33439 0.113281 2.73438 0.26139 2.73438 0.444092C2.73438 0.626793 3.33439 0.774902 4.07455 0.774902Z" fill="#FEF68E"/>
<path d="M6.47624 0.774902C6.84713 0.774902 7.1478 0.626793 7.1478 0.444092C7.1478 0.26139 6.84713 0.113281 6.47624 0.113281C6.10535 0.113281 5.80469 0.26139 5.80469 0.444092C5.80469 0.626793 6.10535 0.774902 6.47624 0.774902Z" fill="#FEF68E"/>
<path d="M8.45148 2.85291L9.05265 4.07868L10.3958 4.27657C10.3958 4.27657 10.4134 4.29134 10.4046 4.3002L9.43095 5.25424L9.65969 6.60111C9.65969 6.60111 9.65089 6.62178 9.63916 6.61588L8.43682 5.97788L7.23447 6.61588C7.23447 6.61588 7.21101 6.61292 7.21394 6.60111L7.44268 5.25424L6.46908 4.3002C6.46908 4.3002 6.46614 4.27657 6.47787 4.27657L7.82098 4.07868L8.42216 2.85291C8.42216 2.85291 8.44268 2.84109 8.44855 2.85291H8.45148Z" fill="#E9A600"/>
</g>
<defs>
<clipPath id="clip0_3554_15075">
<rect width="17" height="16" fill="white"/>
</clipPath>
</defs>
</svg>
