<svg width="9" height="9" viewBox="0 0 9 9" fill="none" xmlns="http://www.w3.org/2000/svg">
<path d="M4.21484 0C4.76713 2.41414e-08 5.21484 0.447715 5.21484 1V3.21094H7.41406C7.96635 3.21094 8.41406 3.65865 8.41406 4.21094C8.41406 4.76322 7.96635 5.21094 7.41406 5.21094H5.21484V7.41504C5.21484 7.96732 4.76713 8.41504 4.21484 8.41504C3.66256 8.41504 3.21484 7.96732 3.21484 7.41504V5.21094H0.999023C0.446739 5.21094 -0.00097626 4.76322 -0.000976562 4.21094C-0.000976514 3.65865 0.446739 3.21094 0.999023 3.21094H3.21484V1C3.21484 0.447715 3.66256 -5.17547e-10 4.21484 0Z" fill="#998EE0"/>
</svg>
