<svg width="301" height="135" viewBox="0 0 301 135" fill="none" xmlns="http://www.w3.org/2000/svg">
<g filter="url(#filter0_g_2810_29848)">
<mask id="path-1-outside-1_2810_29848" maskUnits="userSpaceOnUse" x="6.5" y="7" width="288" height="121" fill="black">
<rect fill="white" x="6.5" y="7" width="288" height="121"/>
<path d="M87.5109 124H59.6437V100.057H8.3136V72.6699L59.6437 10.6895H87.5109V77.5547H104.247V100.057H87.5109V124ZM59.6437 41.0391L28.8136 77.5547H59.6437V41.0391ZM149.158 10.6895H172.061V124H144.193V47.4453C142.699 48.9935 140.99 50.248 139.068 51.209C137.2 52.1699 135.038 52.8372 132.582 53.2109C130.18 53.5846 128.204 53.8249 126.656 53.9316C125.108 53.985 122.973 54.0117 120.25 54.0117V34.3125C125.428 34.3125 129.939 33.6719 133.783 32.3906C137.627 31.1094 140.617 29.3477 142.752 27.1055C144.941 24.8633 146.542 22.3809 147.557 19.6582C148.624 16.8822 149.158 13.8926 149.158 10.6895ZM265.259 77.5547C257.998 84.4414 248.976 87.8848 238.192 87.8848C230.558 87.8848 223.752 86.2031 217.772 82.8398C211.793 79.4232 207.202 74.832 203.999 69.0664C200.796 63.2474 199.194 56.7344 199.194 49.5273C199.194 36.9284 203.198 26.8652 211.206 19.3379C219.267 11.8105 230.078 8.04688 243.638 8.04688C250.898 8.04688 257.384 9.11458 263.097 11.25C268.862 13.3854 273.587 16.2415 277.27 19.8184C280.954 23.3952 284.024 27.6927 286.479 32.7109C288.935 37.7292 290.67 42.9609 291.684 48.4062C292.699 53.8516 293.206 59.6439 293.206 65.7832C293.206 85.7493 288.828 100.884 280.073 111.188C271.371 121.491 259.546 126.643 244.599 126.643C233.761 126.643 224.472 123.733 216.731 117.914C209.044 112.042 204.293 104.514 202.477 95.332H230.345C230.878 97.9479 232.32 100.35 234.669 102.539C237.018 104.728 240.488 105.822 245.079 105.822C251.806 105.822 256.797 103.34 260.054 98.375C263.363 93.3568 265.099 86.5501 265.259 77.9551V77.5547ZM245.239 28.8672C239.26 28.8672 234.455 30.6823 230.825 34.3125C227.248 37.8893 225.46 42.4805 225.46 48.0859C225.46 53.5846 227.248 58.1224 230.825 61.6992C234.455 65.276 239.26 67.0645 245.239 67.0645C251.272 67.0645 256.103 65.276 259.733 61.6992C263.417 58.1224 265.259 53.5846 265.259 48.0859C265.259 42.4805 263.444 37.8893 259.813 34.3125C256.183 30.6823 251.325 28.8672 245.239 28.8672Z"/>
</mask>
<path d="M87.5109 124H59.6437V100.057H8.3136V72.6699L59.6437 10.6895H87.5109V77.5547H104.247V100.057H87.5109V124ZM59.6437 41.0391L28.8136 77.5547H59.6437V41.0391ZM149.158 10.6895H172.061V124H144.193V47.4453C142.699 48.9935 140.99 50.248 139.068 51.209C137.2 52.1699 135.038 52.8372 132.582 53.2109C130.18 53.5846 128.204 53.8249 126.656 53.9316C125.108 53.985 122.973 54.0117 120.25 54.0117V34.3125C125.428 34.3125 129.939 33.6719 133.783 32.3906C137.627 31.1094 140.617 29.3477 142.752 27.1055C144.941 24.8633 146.542 22.3809 147.557 19.6582C148.624 16.8822 149.158 13.8926 149.158 10.6895ZM265.259 77.5547C257.998 84.4414 248.976 87.8848 238.192 87.8848C230.558 87.8848 223.752 86.2031 217.772 82.8398C211.793 79.4232 207.202 74.832 203.999 69.0664C200.796 63.2474 199.194 56.7344 199.194 49.5273C199.194 36.9284 203.198 26.8652 211.206 19.3379C219.267 11.8105 230.078 8.04688 243.638 8.04688C250.898 8.04688 257.384 9.11458 263.097 11.25C268.862 13.3854 273.587 16.2415 277.27 19.8184C280.954 23.3952 284.024 27.6927 286.479 32.7109C288.935 37.7292 290.67 42.9609 291.684 48.4062C292.699 53.8516 293.206 59.6439 293.206 65.7832C293.206 85.7493 288.828 100.884 280.073 111.188C271.371 121.491 259.546 126.643 244.599 126.643C233.761 126.643 224.472 123.733 216.731 117.914C209.044 112.042 204.293 104.514 202.477 95.332H230.345C230.878 97.9479 232.32 100.35 234.669 102.539C237.018 104.728 240.488 105.822 245.079 105.822C251.806 105.822 256.797 103.34 260.054 98.375C263.363 93.3568 265.099 86.5501 265.259 77.9551V77.5547ZM245.239 28.8672C239.26 28.8672 234.455 30.6823 230.825 34.3125C227.248 37.8893 225.46 42.4805 225.46 48.0859C225.46 53.5846 227.248 58.1224 230.825 61.6992C234.455 65.276 239.26 67.0645 245.239 67.0645C251.272 67.0645 256.103 65.276 259.733 61.6992C263.417 58.1224 265.259 53.5846 265.259 48.0859C265.259 42.4805 263.444 37.8893 259.813 34.3125C256.183 30.6823 251.325 28.8672 245.239 28.8672Z" fill="url(#paint0_linear_2810_29848)"/>
<path d="M87.5109 124V125H88.5109V124H87.5109ZM59.6437 124H58.6437V125H59.6437V124ZM59.6437 100.057H60.6437V99.0566H59.6437V100.057ZM8.3136 100.057H7.3136V101.057H8.3136V100.057ZM8.3136 72.6699L7.54342 72.0321L7.3136 72.3096V72.6699H8.3136ZM59.6437 10.6895V9.68945H59.1734L58.8735 10.0516L59.6437 10.6895ZM87.5109 10.6895H88.5109V9.68945H87.5109V10.6895ZM87.5109 77.5547H86.5109V78.5547H87.5109V77.5547ZM104.247 77.5547H105.247V76.5547H104.247V77.5547ZM104.247 100.057V101.057H105.247V100.057H104.247ZM87.5109 100.057V99.0566H86.5109V100.057H87.5109ZM59.6437 41.0391H60.6437V38.3045L58.8796 40.3939L59.6437 41.0391ZM28.8136 77.5547L28.0495 76.9096L26.6605 78.5547H28.8136V77.5547ZM59.6437 77.5547V78.5547H60.6437V77.5547H59.6437ZM87.5109 124V123H59.6437V124V125H87.5109V124ZM59.6437 124H60.6437V100.057H59.6437H58.6437V124H59.6437ZM59.6437 100.057V99.0566H8.3136V100.057V101.057H59.6437V100.057ZM8.3136 100.057H9.3136V72.6699H8.3136H7.3136V100.057H8.3136ZM8.3136 72.6699L9.08377 73.3078L60.4139 11.3273L59.6437 10.6895L58.8735 10.0516L7.54342 72.0321L8.3136 72.6699ZM59.6437 10.6895V11.6895H87.5109V10.6895V9.68945H59.6437V10.6895ZM87.5109 10.6895H86.5109V77.5547H87.5109H88.5109V10.6895H87.5109ZM87.5109 77.5547V78.5547H104.247V77.5547V76.5547H87.5109V77.5547ZM104.247 77.5547H103.247V100.057H104.247H105.247V77.5547H104.247ZM104.247 100.057V99.0566H87.5109V100.057V101.057H104.247V100.057ZM87.5109 100.057H86.5109V124H87.5109H88.5109V100.057H87.5109ZM59.6437 41.0391L58.8796 40.3939L28.0495 76.9096L28.8136 77.5547L29.5777 78.1998L60.4078 41.6842L59.6437 41.0391ZM28.8136 77.5547V78.5547H59.6437V77.5547V76.5547H28.8136V77.5547ZM59.6437 77.5547H60.6437V41.0391H59.6437H58.6437V77.5547H59.6437ZM149.158 10.6895V9.68945H148.158V10.6895H149.158ZM172.061 10.6895H173.061V9.68945H172.061V10.6895ZM172.061 124V125H173.061V124H172.061ZM144.193 124H143.193V125H144.193V124ZM144.193 47.4453H145.193V44.9699L143.474 46.7507L144.193 47.4453ZM139.068 51.209L138.621 50.3145L138.611 50.3197L139.068 51.209ZM132.582 53.2109L132.432 52.2223L132.428 52.2228L132.582 53.2109ZM126.656 53.9316L126.691 54.931L126.708 54.9305L126.725 54.9293L126.656 53.9316ZM120.25 54.0117H119.25V55.0117H120.25V54.0117ZM120.25 34.3125V33.3125H119.25V34.3125H120.25ZM142.752 27.1055L142.036 26.4069L142.028 26.4158L142.752 27.1055ZM147.557 19.6582L146.623 19.2992L146.62 19.3091L147.557 19.6582ZM149.158 10.6895V11.6895H172.061V10.6895V9.68945H149.158V10.6895ZM172.061 10.6895H171.061V124H172.061H173.061V10.6895H172.061ZM172.061 124V123H144.193V124V125H172.061V124ZM144.193 124H145.193V47.4453H144.193H143.193V124H144.193ZM144.193 47.4453L143.474 46.7507C142.058 48.2175 140.441 49.4044 138.621 50.3146L139.068 51.209L139.516 52.1034C141.539 51.0917 143.339 49.7695 144.913 48.1399L144.193 47.4453ZM139.068 51.209L138.611 50.3197C136.854 51.2231 134.799 51.862 132.432 52.2223L132.582 53.2109L132.732 54.1996C135.276 53.8125 137.545 53.1168 139.526 52.0983L139.068 51.209ZM132.582 53.2109L132.428 52.2228C130.04 52.5943 128.096 52.83 126.587 52.934L126.656 53.9316L126.725 54.9293C128.313 54.8198 130.319 54.575 132.736 54.1991L132.582 53.2109ZM126.656 53.9316L126.622 52.9322C125.091 52.985 122.968 53.0117 120.25 53.0117V54.0117V55.0117C122.977 55.0117 125.126 54.985 126.691 54.931L126.656 53.9316ZM120.25 54.0117H121.25V34.3125H120.25H119.25V54.0117H120.25ZM120.25 34.3125V35.3125C125.507 35.3125 130.13 34.6625 134.099 33.3393L133.783 32.3906L133.467 31.4419C129.749 32.6813 125.349 33.3125 120.25 33.3125V34.3125ZM133.783 32.3906L134.099 33.3393C138.052 32.0218 141.199 30.1866 143.476 27.7951L142.752 27.1055L142.028 26.4158C140.035 28.5087 137.202 30.197 133.467 31.4419L133.783 32.3906ZM142.752 27.1055L143.468 27.804C145.746 25.47 147.427 22.8706 148.494 20.0073L147.557 19.6582L146.62 19.3091C145.658 21.8911 144.136 24.2566 142.036 26.4069L142.752 27.1055ZM147.557 19.6582L148.49 20.0172C149.605 17.118 150.158 14.0058 150.158 10.6895H149.158H148.158C148.158 13.7793 147.644 16.6463 146.623 19.2992L147.557 19.6582ZM265.259 77.5547H266.259V75.2279L264.57 76.8292L265.259 77.5547ZM217.772 82.8398L217.276 83.7081L217.282 83.7114L217.772 82.8398ZM203.999 69.0664L203.123 69.5486L203.125 69.552L203.999 69.0664ZM211.206 19.3379L210.523 18.607L210.521 18.6093L211.206 19.3379ZM263.097 11.25L262.746 12.1867L262.749 12.1877L263.097 11.25ZM280.073 111.188L279.311 110.54L279.309 110.542L280.073 111.188ZM216.731 117.914L216.124 118.709L216.13 118.713L216.731 117.914ZM202.477 95.332V94.332H201.26L201.496 95.526L202.477 95.332ZM230.345 95.332L231.324 95.1321L231.161 94.332H230.345V95.332ZM234.669 102.539L233.987 103.271L234.669 102.539ZM260.054 98.375L259.219 97.8244L259.217 97.8265L260.054 98.375ZM265.259 77.9551L266.259 77.9737L266.259 77.9644V77.9551H265.259ZM230.825 34.3125L230.118 33.6054L230.825 34.3125ZM230.825 61.6992L230.118 62.4063L230.123 62.4115L230.825 61.6992ZM259.733 61.6992L259.037 60.9818L259.031 60.9869L259.733 61.6992ZM259.813 34.3125L259.106 35.0196L259.112 35.0248L259.813 34.3125ZM265.259 77.5547L264.57 76.8292C257.511 83.5252 248.742 86.8848 238.192 86.8848V87.8848V88.8848C249.21 88.8848 258.485 85.3576 265.947 78.2802L265.259 77.5547ZM238.192 87.8848V86.8848C230.71 86.8848 224.076 85.2382 218.263 81.9683L217.772 82.8398L217.282 83.7114C223.427 87.1681 230.406 88.8848 238.192 88.8848V87.8848ZM217.772 82.8398L218.268 81.9716C212.441 78.6414 207.983 74.1795 204.873 68.5808L203.999 69.0664L203.125 69.552C206.421 75.4846 211.146 80.205 217.276 83.7081L217.772 82.8398ZM203.999 69.0664L204.875 68.5842C201.76 62.9253 200.194 56.5805 200.194 49.5273H199.194H198.194C198.194 56.8883 199.832 63.5695 203.123 69.5486L203.999 69.0664ZM199.194 49.5273H200.194C200.194 37.16 204.114 27.3765 211.891 20.0665L211.206 19.3379L210.521 18.6093C202.282 26.3539 198.194 36.6967 198.194 49.5273H199.194ZM211.206 19.3379L211.888 20.0688C219.724 12.752 230.27 9.04688 243.638 9.04688V8.04688V7.04688C229.885 7.04688 218.81 10.8691 210.523 18.607L211.206 19.3379ZM243.638 8.04688V9.04688C250.801 9.04688 257.165 10.1003 262.746 12.1867L263.097 11.25L263.447 10.3133C257.603 8.12889 250.995 7.04688 243.638 7.04688V8.04688ZM263.097 11.25L262.749 12.1877C268.41 14.2842 273.008 17.0731 276.574 20.5358L277.27 19.8184L277.967 19.1009C274.166 15.41 269.315 12.4866 263.444 10.3123L263.097 11.25ZM277.27 19.8184L276.574 20.5358C280.168 24.0255 283.172 28.2267 285.581 33.1505L286.479 32.7109L287.378 32.2714C284.876 27.1587 281.74 22.7649 277.967 19.1009L277.27 19.8184ZM286.479 32.7109L285.581 33.1505C287.997 38.0882 289.704 43.2338 290.701 48.5894L291.684 48.4062L292.668 48.2231C291.637 42.6881 289.873 37.3701 287.378 32.2714L286.479 32.7109ZM291.684 48.4062L290.701 48.5894C291.703 53.9682 292.206 59.6988 292.206 65.7832H293.206H294.206C294.206 59.589 293.694 53.7349 292.668 48.2231L291.684 48.4062ZM293.206 65.7832H292.206C292.206 85.622 287.854 100.486 279.311 110.54L280.073 111.188L280.835 111.835C289.803 101.282 294.206 85.8767 294.206 65.7832H293.206ZM280.073 111.188L279.309 110.542C270.819 120.595 259.288 125.643 244.599 125.643V126.643V127.643C259.805 127.643 271.923 122.387 280.837 111.833L280.073 111.188ZM244.599 126.643V125.643C233.951 125.643 224.879 122.788 217.332 117.115L216.731 117.914L216.13 118.713C224.065 124.678 233.572 127.643 244.599 127.643V126.643ZM216.731 117.914L217.338 117.119C209.837 111.39 205.225 104.073 203.458 95.1381L202.477 95.332L201.496 95.526C203.361 104.956 208.25 112.694 216.124 118.709L216.731 117.914ZM202.477 95.332V96.332H230.345V95.332V94.332H202.477V95.332ZM230.345 95.332L229.365 95.532C229.948 98.3903 231.517 100.969 233.987 103.271L234.669 102.539L235.351 101.807C233.122 99.7312 231.809 97.5055 231.324 95.1321L230.345 95.332ZM234.669 102.539L233.987 103.271C236.588 105.694 240.343 106.822 245.079 106.822V105.822V104.822C240.632 104.822 237.448 103.762 235.351 101.807L234.669 102.539ZM245.079 105.822V106.822C252.09 106.822 257.421 104.211 260.89 98.9235L260.054 98.375L259.217 97.8265C256.173 102.468 251.521 104.822 245.079 104.822V105.822ZM260.054 98.375L260.888 98.9256C264.338 93.6951 266.096 86.6807 266.259 77.9737L265.259 77.9551L264.259 77.9364C264.101 86.4195 262.389 93.0184 259.219 97.8244L260.054 98.375ZM265.259 77.9551H266.259V77.5547H265.259H264.259V77.9551H265.259ZM245.239 28.8672V27.8672C239.042 27.8672 233.967 29.7567 230.118 33.6054L230.825 34.3125L231.532 35.0196C234.944 31.6078 239.478 29.8672 245.239 29.8672V28.8672ZM230.825 34.3125L230.118 33.6054C226.333 37.3909 224.46 42.2467 224.46 48.0859H225.46H226.46C226.46 42.7142 228.164 38.3878 231.532 35.0196L230.825 34.3125ZM225.46 48.0859H224.46C224.46 53.8244 226.336 58.6247 230.118 62.4063L230.825 61.6992L231.532 60.9921C228.16 57.6201 226.46 53.3449 226.46 48.0859H225.46ZM230.825 61.6992L230.123 62.4115C233.973 66.2044 239.046 68.0645 245.239 68.0645V67.0645V66.0645C239.474 66.0645 234.938 64.3477 231.527 60.9869L230.825 61.6992ZM245.239 67.0645V68.0645C251.483 68.0645 256.584 66.2061 260.435 62.4115L259.733 61.6992L259.031 60.9869C255.622 64.346 251.061 66.0645 245.239 66.0645V67.0645ZM259.733 61.6992L260.43 62.4166C264.322 58.6372 266.259 53.8336 266.259 48.0859H265.259H264.259C264.259 53.3356 262.512 57.6076 259.037 60.9818L259.733 61.6992ZM265.259 48.0859H266.259C266.259 42.2421 264.356 37.3847 260.515 33.6002L259.813 34.3125L259.112 35.0248C262.531 38.394 264.259 42.7188 264.259 48.0859H265.259ZM259.813 34.3125L260.52 33.6054C256.668 29.7533 251.537 27.8672 245.239 27.8672V28.8672V29.8672C251.113 29.8672 255.698 31.6113 259.106 35.0196L259.813 34.3125Z" fill="#F6F6F6" fill-opacity="0.6" mask="url(#path-1-outside-1_2810_29848)"/>
</g>
<defs>
<filter id="filter0_g_2810_29848" x="0.914453" y="0.646875" width="299.691" height="133.394" filterUnits="userSpaceOnUse" color-interpolation-filters="sRGB">
<feFlood flood-opacity="0" result="BackgroundImageFix"/>
<feBlend mode="normal" in="SourceGraphic" in2="BackgroundImageFix" result="shape"/>
<feTurbulence type="fractalNoise" baseFrequency="1.6666666269302368 1.6666666269302368" numOctaves="3" seed="3810" />
<feDisplacementMap in="shape" scale="12.800000190734863" xChannelSelector="R" yChannelSelector="G" result="displacedImage" width="100%" height="100%" />
<feMerge result="effect1_texture_2810_29848">
<feMergeNode in="displacedImage"/>
</feMerge>
</filter>
<linearGradient id="paint0_linear_2810_29848" x1="-3.12141" y1="-49.6057" x2="92.0543" y2="215.662" gradientUnits="userSpaceOnUse">
<stop stop-color="#F6F6F6"/>
<stop offset="1" stop-color="#998EE0"/>
</linearGradient>
</defs>
</svg>
