<svg width="0" height="0" class="hidden">
  <symbol fill="none" xmlns="http://www.w3.org/2000/svg" viewBox="0 0 42 42" id="payment">
    <path d="M13 17.898C13 16.8729 13 16.3604 13.2027 15.9702C13.3734 15.6415 13.6415 15.3734 13.9702 15.2027C14.3604 15 14.8729 15 15.898 15H27.102C28.1271 15 28.6396 15 29.0298 15.2027C29.3585 15.3734 29.6266 15.6415 29.7973 15.9702C30 16.3604 30 16.8729 30 17.898V24.102C30 25.1271 30 25.6396 29.7973 26.0298C29.6266 26.3585 29.3585 26.6266 29.0298 26.7973C28.6396 27 28.1271 27 27.102 27H15.898C14.8729 27 14.3604 27 13.9702 26.7973C13.6415 26.6266 13.3734 26.3585 13.2027 26.0298C13 25.6396 13 25.1271 13 24.102V17.898Z" stroke="var(--accent,  #2A2E4A)"></path>
    <path d="M13 19L30 19" stroke="var(--accent,  #2A2E4A)" stroke-linecap="round"></path>
    <circle cx="16" cy="24" r="0.5" fill="var(--accent,  #2A2E4A)"></circle>
  </symbol>
  <symbol fill="none" xmlns="http://www.w3.org/2000/svg" viewBox="0 0 42 42" id="settings">
    <path d="M23.1361 12.0724L23.6337 12.0226L23.1361 12.0724ZM22.9838 11.2525L22.5394 11.4817V11.4817L22.9838 11.2525ZM23.4311 13.5289L23.8286 13.2256V13.2256L23.4311 13.5289ZM24.3595 13.9134L24.2928 13.4179L24.2928 13.4179L24.3595 13.9134ZM25.5979 13.0921L25.9145 13.479V13.479L25.5979 13.0921ZM26.2853 12.6201L26.4375 13.0964L26.2853 12.6201ZM26.9872 12.6551L27.186 12.1963V12.1963L26.9872 12.6551ZM27.6243 13.1931L27.2707 13.5467V13.5467L27.6243 13.1931ZM28.5178 14.0866L28.8713 13.7331V13.7331L28.5178 14.0866ZM29.0558 14.7237L29.5146 14.5249L29.5146 14.5249L29.0558 14.7237ZM29.0908 15.4256L29.5671 15.5777L29.5671 15.5777L29.0908 15.4256ZM28.6188 16.113L28.2318 15.7964V15.7964L28.6188 16.113ZM27.7975 17.3515L27.3019 17.2848V17.2848L27.7975 17.3515ZM28.182 18.2799L27.8787 18.6774L28.182 18.2799ZM29.6385 18.5748L29.6883 18.0773L29.6385 18.5748ZM30.4584 18.7272L30.6876 18.2828L30.6876 18.2828L30.4584 18.7272ZM30.9299 19.2482L31.3949 19.0644V19.0644L30.9299 19.2482ZM30.93 22.1736L30.465 21.9897L30.465 21.9898L30.93 22.1736ZM30.4583 22.6947L30.6875 23.1391H30.6875L30.4583 22.6947ZM29.6386 22.8471L29.5889 22.3496L29.5726 22.3512L29.5564 22.3539L29.6386 22.8471ZM29.6386 22.8471L29.6884 23.3446L29.7047 23.343L29.7208 23.3403L29.6386 22.8471ZM28.1825 23.1419L27.8794 22.7443L28.1825 23.1419ZM27.7979 24.0705L27.3023 24.1373V24.1373L27.7979 24.0705ZM28.619 25.3085L28.232 25.6251L28.619 25.3085ZM29.0908 25.9957L28.6145 26.1479L28.6145 26.1479L29.0908 25.9957ZM29.0558 26.6979L28.597 26.499L28.597 26.499L29.0558 26.6979ZM28.5179 27.3347L28.8715 27.6883L28.5179 27.3347ZM27.6243 28.2283L27.2708 27.8747V27.8747L27.6243 28.2283ZM26.9873 28.7663L27.1861 29.2251L27.1861 29.2251L26.9873 28.7663ZM26.2854 28.8013L26.1332 29.2776H26.1332L26.2854 28.8013ZM25.5979 28.3294L25.9146 27.9424L25.9103 27.9389L25.5979 28.3294ZM25.5979 28.3294L25.2813 28.7164L25.2856 28.7198L25.5979 28.3294ZM24.3595 27.508L24.4262 27.0125H24.4262L24.3595 27.508ZM23.4311 27.8926L23.8286 28.1958L23.8286 28.1958L23.4311 27.8926ZM23.1362 29.3493L22.6386 29.2995L23.1362 29.3493ZM22.9837 30.1694L22.5394 29.9402L22.5394 29.9402L22.9837 30.1694ZM22.4628 30.6408L22.2789 30.1759H22.2789L22.4628 30.6408ZM19.5373 30.6409L19.7211 30.1759H19.7211L19.5373 30.6409ZM19.0162 30.1693L19.4606 29.9401L19.0162 30.1693ZM18.8639 29.3495L18.3663 29.3992L18.8639 29.3495ZM18.5689 27.8929L18.1714 28.1962L18.1714 28.1962L18.5689 27.8929ZM17.6406 27.5084L17.5739 27.0129H17.5739L17.6406 27.5084ZM16.4021 28.3298L16.0855 27.9428L16.0775 27.9493L16.0699 27.9561L16.4021 28.3298ZM16.4021 28.3298L16.7187 28.7168L16.7266 28.7103L16.7342 28.7035L16.4021 28.3298ZM15.7146 28.8018L15.8667 29.2781H15.8667L15.7146 28.8018ZM15.0127 28.7668L14.8139 29.2256H14.8139L15.0127 28.7668ZM14.3756 28.2287L14.7292 27.8752H14.7292L14.3756 28.2287ZM13.4822 27.3353L13.1286 27.6888H13.1286L13.4822 27.3353ZM12.9441 26.6982L13.4029 26.4994L12.9441 26.6982ZM12.9091 25.9963L13.3854 26.1485L12.9091 25.9963ZM13.3811 25.3088L13.7681 25.6255L13.3811 25.3088ZM14.2025 24.0704L14.698 24.137L14.2025 24.0704ZM13.8179 23.142L14.1212 22.7445H14.1212L13.8179 23.142ZM12.3614 22.8471L12.3117 23.3446H12.3117L12.3614 22.8471ZM11.5416 22.6947L11.7708 22.2503H11.7708L11.5416 22.6947ZM11.07 22.1736L10.6051 22.3575H10.6051L11.07 22.1736ZM11.0701 19.2482L10.6051 19.0643L10.6051 19.0643L11.0701 19.2482ZM11.5415 18.7272L11.3123 18.2829L11.3123 18.2829L11.5415 18.7272ZM12.3616 18.5748V18.0748H12.3366L12.3118 18.0773L12.3616 18.5748ZM12.3616 18.5748V19.0748H12.3865L12.4113 19.0723L12.3616 18.5748ZM13.8184 18.2797L13.5151 17.8823L13.5151 17.8823L13.8184 18.2797ZM14.2029 17.3516L14.6984 17.285H14.6984L14.2029 17.3516ZM13.3813 16.1128L13.7683 15.7961L13.3813 16.1128ZM12.9091 15.425L13.3854 15.2729H13.3854L12.9091 15.425ZM12.9441 14.7234L12.4853 14.5246L12.4853 14.5246L12.9441 14.7234ZM13.4823 14.086L13.8359 14.4396L13.8359 14.4396L13.4823 14.086ZM14.3757 13.1927L14.0221 12.8392H14.0221L14.3757 13.1927ZM15.0128 12.6547L14.814 12.1959H14.814L15.0128 12.6547ZM15.7146 12.6197L15.8668 12.1434L15.7146 12.6197ZM16.4022 13.0917L16.7188 12.7047V12.7047L16.4022 13.0917ZM17.6404 13.913L17.7072 13.4175L17.6404 13.913ZM18.5691 13.5284L18.1715 13.2252L18.5691 13.5284ZM18.8639 12.0722L19.3614 12.122V12.122L18.8639 12.0722ZM19.0162 11.2526L18.5718 11.0235L18.5718 11.0235L19.0162 11.2526ZM19.5374 10.7809L19.7212 11.2459L19.7212 11.2459L19.5374 10.7809ZM22.4627 10.781L22.6465 10.316L22.6465 10.316L22.4627 10.781ZM23.6337 12.0226C23.6126 11.8124 23.5947 11.6304 23.5695 11.4805C23.5435 11.3258 23.5051 11.1726 23.4281 11.0234L22.5394 11.4817C22.5497 11.5018 22.5658 11.5417 22.5833 11.6461C22.6017 11.7554 22.6163 11.8987 22.6386 12.1221L23.6337 12.0226ZM23.8286 13.2256C23.8173 13.2108 23.7806 13.1497 23.7421 12.9354C23.7044 12.726 23.6755 12.4414 23.6337 12.0226L22.6386 12.1221C22.6788 12.5242 22.7116 12.8553 22.7579 13.1126C22.8033 13.3651 22.8731 13.6218 23.0335 13.8321L23.8286 13.2256ZM24.2928 13.4179C24.1148 13.4418 23.9375 13.3684 23.8286 13.2256L23.0335 13.8321C23.3604 14.2606 23.892 14.4808 24.4261 14.409L24.2928 13.4179ZM25.2813 12.7051C24.9555 12.9716 24.7339 13.1525 24.5592 13.2739C24.3804 13.3981 24.3113 13.4154 24.2928 13.4179L24.4261 14.409C24.6883 14.3737 24.9192 14.2415 25.1298 14.0951C25.3445 13.9459 25.6018 13.7349 25.9145 13.479L25.2813 12.7051ZM26.1332 12.1438C25.9732 12.1949 25.8377 12.2761 25.7099 12.3671C25.5861 12.4553 25.4448 12.5713 25.2813 12.7051L25.9145 13.479C26.0883 13.3369 26.1999 13.2459 26.2902 13.1816C26.3764 13.1201 26.416 13.1033 26.4375 13.0964L26.1332 12.1438ZM27.186 12.1963C26.853 12.052 26.4789 12.0334 26.1332 12.1438L26.4375 13.0964C26.5527 13.0596 26.6774 13.0658 26.7884 13.1139L27.186 12.1963ZM27.9778 12.8396C27.8285 12.6902 27.6993 12.5607 27.5849 12.4606C27.4668 12.3573 27.3401 12.2631 27.186 12.1963L26.7884 13.1139C26.8092 13.1229 26.8469 13.1436 26.9265 13.2133C27.01 13.2863 27.112 13.3879 27.2707 13.5467L27.9778 12.8396ZM28.8713 13.7331L27.9778 12.8396L27.2707 13.5467L28.1642 14.4402L28.8713 13.7331ZM29.5146 14.5249C29.4478 14.3708 29.3536 14.2441 29.2503 14.126C29.1502 14.0116 29.0207 13.8824 28.8713 13.7331L28.1642 14.4402C28.323 14.5989 28.4246 14.7009 28.4976 14.7844C28.5673 14.864 28.588 14.9018 28.597 14.9225L29.5146 14.5249ZM29.5671 15.5777C29.6775 15.232 29.6589 14.8579 29.5146 14.5249L28.597 14.9225C28.6451 15.0335 28.6513 15.1582 28.6145 15.2734L29.5671 15.5777ZM29.0058 16.4297C29.1396 16.2661 29.2556 16.1248 29.3438 16.001C29.4348 15.8732 29.516 15.7377 29.5671 15.5777L28.6145 15.2734C28.6076 15.2949 28.5908 15.3345 28.5293 15.4207C28.465 15.511 28.374 15.6226 28.2318 15.7964L29.0058 16.4297ZM28.293 17.4182C28.2955 17.3997 28.3128 17.3305 28.437 17.1518C28.5584 16.977 28.7393 16.7554 29.0058 16.4297L28.2318 15.7964C27.976 16.1091 27.765 16.3664 27.6158 16.5811C27.4694 16.7918 27.3372 17.0226 27.3019 17.2848L28.293 17.4182ZM28.4853 17.8823C28.3424 17.7734 28.2691 17.5962 28.293 17.4181L27.3019 17.2848C27.2301 17.8189 27.4503 18.3505 27.8787 18.6774L28.4853 17.8823ZM29.6883 18.0773C29.2694 18.0354 28.9849 18.0066 28.7754 17.9689C28.5612 17.9303 28.5001 17.8937 28.4853 17.8823L27.8787 18.6774C28.0891 18.8379 28.3458 18.9076 28.5983 18.9531C28.8556 18.9994 29.1867 19.0321 29.5888 19.0723L29.6883 18.0773ZM30.6876 18.2828C30.5384 18.2058 30.3852 18.1674 30.2304 18.1414C30.0805 18.1162 29.8985 18.0983 29.6883 18.0773L29.5888 19.0723C29.8122 19.0947 29.9555 19.1092 30.0648 19.1276C30.1692 19.1451 30.2091 19.1612 30.2292 19.1716L30.6876 18.2828ZM31.3949 19.0644C31.2615 18.7269 31.0102 18.4492 30.6876 18.2828L30.2292 19.1716C30.3367 19.227 30.4205 19.3196 30.465 19.4321L31.3949 19.0644ZM31.5 20.0792C31.5 19.8679 31.5003 19.685 31.4901 19.5334C31.4797 19.3768 31.4567 19.2205 31.3949 19.0644L30.465 19.4321C30.4733 19.4531 30.4853 19.4944 30.4924 19.6C30.4997 19.7106 30.5 19.8546 30.5 20.0792H31.5ZM31.5 21.3428V20.0792H30.5V21.3428H31.5ZM31.395 22.3574C31.4567 22.2012 31.4797 22.045 31.4901 21.8885C31.5003 21.7369 31.5 21.554 31.5 21.3428H30.5C30.5 21.5673 30.4997 21.7113 30.4924 21.8218C30.4853 21.9274 30.4733 21.9687 30.465 21.9897L31.395 22.3574ZM30.6875 23.1391C31.0101 22.9727 31.2615 22.695 31.395 22.3574L30.465 21.9898C30.4205 22.1023 30.3367 22.1949 30.2292 22.2503L30.6875 23.1391ZM29.6884 23.3446C29.8986 23.3236 30.0805 23.3056 30.2304 23.2805C30.3851 23.2545 30.5383 23.2161 30.6875 23.1391L30.2292 22.2503C30.2091 22.2607 30.1692 22.2768 30.0648 22.2943C29.9555 22.3126 29.8123 22.3272 29.5889 22.3496L29.6884 23.3446ZM29.7208 23.3403L29.7208 23.3403L29.5564 22.3539L29.5564 22.3539L29.7208 23.3403ZM28.4857 23.5394C28.5006 23.5281 28.5617 23.4915 28.7758 23.453C28.9852 23.4153 29.2697 23.3865 29.6884 23.3446L29.5889 22.3496C29.1869 22.3898 28.856 22.4225 28.5987 22.4688C28.3463 22.5142 28.0897 22.5839 27.8794 22.7443L28.4857 23.5394ZM28.2934 24.0038C28.2694 23.8257 28.3428 23.6484 28.4857 23.5394L27.8794 22.7443C27.4507 23.0712 27.2304 23.603 27.3023 24.1373L28.2934 24.0038ZM29.006 24.9919C28.7395 24.6663 28.5588 24.4447 28.4373 24.2701C28.3132 24.0914 28.2959 24.0223 28.2934 24.0038L27.3023 24.1373C27.3377 24.3994 27.4698 24.6302 27.6162 24.8408C27.7653 25.0554 27.9762 25.3125 28.232 25.6251L29.006 24.9919ZM29.5671 25.8435C29.5159 25.6836 29.4348 25.5482 29.3438 25.4204C29.2557 25.2967 29.1397 25.1554 29.006 24.9919L28.232 25.6251C28.3741 25.7989 28.4651 25.9104 28.5294 26.0007C28.5908 26.0869 28.6076 26.1264 28.6145 26.1479L29.5671 25.8435ZM29.5145 26.8967C29.6589 26.5636 29.6776 26.1894 29.5671 25.8435L28.6145 26.1479C28.6514 26.2632 28.6451 26.388 28.597 26.499L29.5145 26.8967ZM28.8715 27.6883C29.0208 27.5389 29.1503 27.4098 29.2503 27.2955C29.3536 27.1774 29.4478 27.0507 29.5145 26.8967L28.597 26.499C28.588 26.5197 28.5673 26.5574 28.4976 26.6371C28.4247 26.7205 28.3231 26.8224 28.1644 26.9812L28.8715 27.6883ZM27.9779 28.5818L28.8715 27.6883L28.1644 26.9812L27.2708 27.8747L27.9779 28.5818ZM27.1861 29.2251C27.3401 29.1583 27.4669 29.0641 27.585 28.9608C27.6994 28.8607 27.8285 28.7312 27.9779 28.5818L27.2708 27.8747C27.112 28.0335 27.01 28.1352 26.9266 28.2081C26.8469 28.2778 26.8092 28.2985 26.7885 28.3075L27.1861 29.2251ZM26.1332 29.2776C26.4789 29.3881 26.853 29.3694 27.1861 29.2251L26.7885 28.3075C26.6775 28.3556 26.5528 28.3618 26.4375 28.325L26.1332 29.2776ZM25.2813 28.7163C25.4448 28.8501 25.5862 28.9661 25.7099 29.0543C25.8378 29.1454 25.9732 29.2265 26.1332 29.2776L26.4375 28.325C26.416 28.3182 26.3764 28.3013 26.2902 28.2399C26.1999 28.1756 26.0883 28.0846 25.9145 27.9424L25.2813 28.7163ZM25.2856 28.7198L25.2856 28.7198L25.9103 27.9389L25.9103 27.9389L25.2856 28.7198ZM24.2928 28.0036C24.3113 28.006 24.3805 28.0233 24.5592 28.1475C24.7339 28.269 24.9555 28.4498 25.2813 28.7163L25.9145 27.9424C25.6018 27.6865 25.3446 27.4756 25.1299 27.3264C24.9192 27.1799 24.6884 27.0478 24.4262 27.0125L24.2928 28.0036ZM23.8286 28.1958C23.9376 28.053 24.1148 27.9796 24.2928 28.0036L24.4262 27.0125C23.892 26.9406 23.3604 27.1608 23.0336 27.5893L23.8286 28.1958ZM23.6337 29.399C23.6756 28.9801 23.7044 28.6955 23.7421 28.486C23.7807 28.2718 23.8173 28.2107 23.8286 28.1958L23.0336 27.5893C22.8731 27.7997 22.8033 28.0564 22.7579 28.3089C22.7116 28.5663 22.6789 28.8974 22.6386 29.2995L23.6337 29.399ZM23.4281 30.3987C23.5051 30.2494 23.5435 30.0962 23.5695 29.9413C23.5947 29.7914 23.6127 29.6093 23.6337 29.399L22.6386 29.2995C22.6163 29.5231 22.6017 29.6664 22.5833 29.7757C22.5658 29.8802 22.5497 29.9201 22.5394 29.9402L23.4281 30.3987ZM22.6467 31.1058C22.9841 30.9724 23.2617 30.7211 23.4281 30.3987L22.5394 29.9402C22.4839 30.0477 22.3914 30.1314 22.2789 30.1759L22.6467 31.1058ZM21.6316 31.2109C21.843 31.2109 22.0259 31.2112 22.1776 31.2011C22.3342 31.1906 22.4905 31.1676 22.6467 31.1058L22.2789 30.1759C22.2579 30.1842 22.2166 30.1962 22.1109 30.2033C22.0003 30.2107 21.8563 30.2109 21.6316 30.2109V31.2109ZM20.3682 31.2109H21.6316V30.2109H20.3682V31.2109ZM19.3534 31.1059C19.5096 31.1676 19.6658 31.1906 19.8224 31.2011C19.9741 31.2112 20.157 31.2109 20.3682 31.2109V30.2109C20.1437 30.2109 19.9997 30.2107 19.8891 30.2033C19.7835 30.1962 19.7421 30.1842 19.7211 30.1759L19.3534 31.1059ZM18.5719 30.3985C18.7382 30.7211 19.0159 30.9724 19.3534 31.1059L19.7211 30.1759C19.6086 30.1314 19.5161 30.0477 19.4606 29.9401L18.5719 30.3985ZM18.3663 29.3992C18.3874 29.6095 18.4053 29.7915 18.4305 29.9413C18.4565 30.0961 18.4949 30.2493 18.5719 30.3985L19.4606 29.9401C19.4503 29.9201 19.4342 29.8801 19.4167 29.7758C19.3983 29.6664 19.3837 29.5232 19.3614 29.2997L18.3663 29.3992ZM18.1714 28.1962C18.1827 28.211 18.2194 28.2722 18.2579 28.4864C18.2956 28.6958 18.3245 28.9804 18.3663 29.3992L19.3614 29.2997C19.3212 28.8977 19.2884 28.5666 19.2421 28.3093C19.1967 28.0567 19.1269 27.8 18.9664 27.5897L18.1714 28.1962ZM17.7072 28.0039C17.8852 27.98 18.0624 28.0534 18.1714 28.1962L18.9664 27.5897C18.6396 27.1612 18.108 26.941 17.5739 27.0129L17.7072 28.0039ZM16.7187 28.7168C17.0445 28.4502 17.2661 28.2694 17.4408 28.1479C17.6196 28.0237 17.6887 28.0064 17.7072 28.0039L17.5739 27.0129C17.3117 27.0481 17.0809 27.1803 16.8702 27.3268C16.6555 27.476 16.3982 27.6869 16.0855 27.9428L16.7187 28.7168ZM16.7342 28.7035L16.7343 28.7035L16.0699 27.9561L16.0699 27.9561L16.7342 28.7035ZM15.8667 29.2781C16.0267 29.227 16.1622 29.1458 16.29 29.0548C16.4138 28.9666 16.5552 28.8506 16.7187 28.7168L16.0854 27.9428C15.9116 28.085 15.8 28.176 15.7098 28.2403C15.6235 28.3018 15.584 28.3186 15.5624 28.3255L15.8667 29.2781ZM14.8139 29.2256C15.147 29.3698 15.521 29.3885 15.8667 29.2781L15.5624 28.3255C15.4472 28.3623 15.3225 28.3561 15.2115 28.308L14.8139 29.2256ZM14.0221 28.5823C14.1715 28.7317 14.3006 28.8612 14.415 28.9612C14.5331 29.0646 14.6598 29.1588 14.8139 29.2256L15.2115 28.308C15.1908 28.299 15.1531 28.2783 15.0734 28.2086C14.99 28.1356 14.888 28.034 14.7292 27.8752L14.0221 28.5823ZM13.1286 27.6888L14.0221 28.5823L14.7292 27.8752L13.8357 26.9817L13.1286 27.6888ZM12.4854 26.897C12.5521 27.0511 12.6463 27.1778 12.7497 27.2959C12.8497 27.4103 12.9792 27.5394 13.1286 27.6888L13.8357 26.9817C13.6769 26.8229 13.5753 26.7209 13.5023 26.6375C13.4326 26.5578 13.4119 26.5201 13.4029 26.4994L12.4854 26.897ZM12.4328 25.8442C12.3224 26.1899 12.3411 26.5639 12.4854 26.897L13.4029 26.4994C13.3548 26.3884 13.3486 26.2637 13.3854 26.1485L12.4328 25.8442ZM12.9941 24.9922C12.8603 25.1557 12.7443 25.2971 12.6561 25.4209C12.5651 25.5487 12.4839 25.6842 12.4328 25.8442L13.3854 26.1485C13.3923 26.1269 13.4092 26.0874 13.4706 26.0011C13.5349 25.9109 13.6259 25.7993 13.7681 25.6255L12.9941 24.9922ZM13.7069 24.0037C13.7044 24.0222 13.6872 24.0914 13.5629 24.2701C13.4415 24.4448 13.2607 24.6664 12.9941 24.9922L13.7681 25.6255C14.0239 25.3127 14.2349 25.0555 14.3841 24.8408C14.5305 24.6301 14.6627 24.3993 14.698 24.137L13.7069 24.0037ZM13.5147 23.5395C13.6575 23.6485 13.7309 23.8257 13.7069 24.0037L14.698 24.137C14.7699 23.6029 14.5497 23.0713 14.1212 22.7445L13.5147 23.5395ZM12.3117 23.3446C12.7305 23.3865 13.0151 23.4153 13.2245 23.453C13.4387 23.4915 13.4998 23.5282 13.5147 23.5395L14.1212 22.7445C13.9108 22.584 13.6541 22.5142 13.4016 22.4688C13.1443 22.4225 12.8132 22.3898 12.4112 22.3496L12.3117 23.3446ZM11.3124 23.1391C11.4617 23.2161 11.6148 23.2545 11.7696 23.2805C11.9195 23.3056 12.1015 23.3236 12.3117 23.3446L12.4112 22.3496C12.1877 22.3272 12.0445 22.3126 11.9352 22.2943C11.8308 22.2768 11.7909 22.2607 11.7708 22.2503L11.3124 23.1391ZM10.6051 22.3575C10.7385 22.695 10.9898 22.9727 11.3124 23.1391L11.7708 22.2503C11.6633 22.1949 11.5795 22.1023 11.535 21.9898L10.6051 22.3575ZM10.5 21.3427C10.5 21.554 10.4997 21.7369 10.5099 21.8885C10.5203 22.0451 10.5433 22.2013 10.6051 22.3575L11.535 21.9898C11.5267 21.9688 11.5147 21.9275 11.5076 21.8219C11.5003 21.7113 11.5 21.5673 11.5 21.3427H10.5ZM10.5 20.0793V21.3427H11.5V20.0793H10.5ZM10.6051 19.0643C10.5434 19.2205 10.5203 19.3767 10.5099 19.5334C10.4997 19.685 10.5 19.868 10.5 20.0793H11.5C11.5 19.8547 11.5003 19.7106 11.5076 19.6C11.5147 19.4944 11.5267 19.453 11.535 19.432L10.6051 19.0643ZM11.3123 18.2829C10.9898 18.4492 10.7386 18.7268 10.6051 19.0643L11.535 19.432C11.5795 19.3196 11.6633 19.227 11.7708 19.1716L11.3123 18.2829ZM12.3118 18.0773C12.1015 18.0983 11.9195 18.1162 11.7696 18.1414C11.6148 18.1674 11.4616 18.2059 11.3123 18.2829L11.7708 19.1716C11.7908 19.1612 11.8308 19.1451 11.9352 19.1276C12.0445 19.1092 12.1878 19.0947 12.4113 19.0723L12.3118 18.0773ZM12.3616 18.0748H12.3616V19.0748H12.3616V18.0748ZM12.3616 18.0748H12.3616V19.0748H12.3616V18.0748ZM13.5151 17.8823C13.5003 17.8936 13.4391 17.9303 13.2249 17.9688C13.0154 18.0065 12.7307 18.0354 12.3118 18.0773L12.4113 19.0723C12.8135 19.0321 13.1446 18.9993 13.402 18.953C13.6546 18.9076 13.9113 18.8378 14.1217 18.6772L13.5151 17.8823ZM13.7073 17.4182C13.7312 17.5962 13.6579 17.7733 13.5151 17.8823L14.1217 18.6772C14.55 18.3504 14.7702 17.819 14.6984 17.285L13.7073 17.4182ZM12.9943 16.4294C13.2609 16.7553 13.4418 16.9769 13.5633 17.1517C13.6876 17.3305 13.7048 17.3997 13.7073 17.4182L14.6984 17.285C14.6632 17.0227 14.5309 16.7918 14.3845 16.5811C14.2352 16.3663 14.0242 16.109 13.7683 15.7961L12.9943 16.4294ZM12.4328 15.5771C12.4839 15.7371 12.5651 15.8727 12.6562 16.0005C12.7444 16.1243 12.8604 16.2658 12.9943 16.4294L13.7683 15.7961C13.626 15.6223 13.535 15.5106 13.4706 15.4203C13.4092 15.334 13.3923 15.2944 13.3854 15.2729L12.4328 15.5771ZM12.4853 14.5246C12.3411 14.8576 12.3225 15.2315 12.4328 15.5771L13.3854 15.2729C13.3487 15.1577 13.3549 15.0331 13.4029 14.9221L12.4853 14.5246ZM13.1288 13.7325C12.9793 13.8819 12.8498 14.0111 12.7497 14.1255C12.6463 14.2437 12.5521 14.3705 12.4853 14.5246L13.4029 14.9221C13.4119 14.9014 13.4326 14.8636 13.5024 14.7839C13.5754 14.7005 13.677 14.5984 13.8359 14.4396L13.1288 13.7325ZM14.0221 12.8392L13.1288 13.7325L13.8359 14.4396L14.7292 13.5463L14.0221 12.8392ZM14.0221 12.8392L14.0221 12.8392L14.7292 13.5463L14.7292 13.5463L14.0221 12.8392ZM14.814 12.1959C14.6599 12.2626 14.5332 12.3569 14.415 12.4602C14.3006 12.5602 14.1715 12.6897 14.0221 12.8392L14.7292 13.5463C14.888 13.3875 14.99 13.2858 15.0734 13.2128C15.1531 13.1431 15.1908 13.1224 15.2116 13.1135L14.814 12.1959ZM15.8668 12.1434C15.521 12.0329 15.147 12.0516 14.814 12.1959L15.2116 13.1135C15.3226 13.0654 15.4472 13.0591 15.5625 13.0959L15.8668 12.1434ZM16.7188 12.7047C16.5553 12.5709 16.4139 12.4549 16.2901 12.3667C16.1622 12.2756 16.0268 12.1945 15.8668 12.1434L15.5625 13.0959C15.584 13.1028 15.6236 13.1197 15.7098 13.1811C15.8001 13.2454 15.9117 13.3365 16.0856 13.4787L16.7188 12.7047ZM17.7072 13.4175C17.6887 13.415 17.6196 13.3977 17.4409 13.2735C17.2661 13.152 17.0445 12.9712 16.7188 12.7047L16.0856 13.4787C16.3983 13.7345 16.6555 13.9455 16.8701 14.0946C17.0808 14.241 17.3116 14.3732 17.5737 14.4085L17.7072 13.4175ZM18.1715 13.2252C18.0625 13.368 17.8853 13.4415 17.7072 13.4175L17.5737 14.4085C18.108 14.4805 18.6397 14.2602 18.9666 13.8316L18.1715 13.2252ZM18.3664 12.0225C18.3245 12.4412 18.2957 12.7257 18.258 12.9351C18.2195 13.1492 18.1828 13.2103 18.1715 13.2252L18.9666 13.8316C19.127 13.6212 19.1968 13.3646 19.2422 13.1122C19.2885 12.8549 19.3212 12.5239 19.3614 12.122L18.3664 12.0225ZM18.5718 11.0235C18.4949 11.1727 18.4564 11.3258 18.4305 11.4806C18.4053 11.6304 18.3874 11.8123 18.3664 12.0225L19.3614 12.122C19.3837 11.8986 19.3983 11.7554 19.4167 11.6461C19.4342 11.5418 19.4502 11.5019 19.4606 11.4818L18.5718 11.0235ZM19.3536 10.316C19.016 10.4494 18.7382 10.7008 18.5718 11.0235L19.4606 11.4818C19.5161 11.3742 19.6086 11.2904 19.7212 11.2459L19.3536 10.316ZM20.3681 10.2109C20.1569 10.2109 19.974 10.2107 19.8225 10.2208C19.6659 10.2313 19.5097 10.2542 19.3536 10.316L19.7212 11.2459C19.7422 11.2376 19.7835 11.2256 19.8891 11.2186C19.9997 11.2112 20.1436 11.2109 20.3681 11.2109V10.2109ZM21.6318 10.2109H20.3681V11.2109H21.6318V10.2109ZM22.6465 10.316C22.4904 10.2543 22.3341 10.2313 22.1776 10.2208C22.0259 10.2107 21.8431 10.2109 21.6318 10.2109V11.2109C21.8563 11.2109 22.0003 11.2112 22.1109 11.2186C22.2165 11.2256 22.2578 11.2377 22.2789 11.246L22.6465 10.316ZM23.4281 11.0234C23.2618 10.7008 22.9841 10.4495 22.6465 10.316L22.2789 11.246C22.3914 11.2904 22.4839 11.3742 22.5394 11.4817L23.4281 11.0234ZM24.5 20.7109C24.5 22.6439 22.933 24.2109 21 24.2109V25.2109C23.4853 25.2109 25.5 23.1962 25.5 20.7109H24.5ZM21 17.2109C22.933 17.2109 24.5 18.7779 24.5 20.7109H25.5C25.5 18.2257 23.4853 16.2109 21 16.2109V17.2109ZM17.5 20.7109C17.5 18.7779 19.067 17.2109 21 17.2109V16.2109C18.5147 16.2109 16.5 18.2257 16.5 20.7109H17.5ZM21 24.2109C19.067 24.2109 17.5 22.6439 17.5 20.7109H16.5C16.5 23.1962 18.5147 25.2109 21 25.2109V24.2109Z" fill="var(--accent,  #2A2E4A)"></path>
  </symbol>
  <symbol fill="none" xmlns="http://www.w3.org/2000/svg" viewBox="0 0 42 42" id="profile">
    <circle cx="21.5" cy="17.4297" r="3.5" stroke="var(--accent,  #2A2E4A)" stroke-linecap="round"></circle>
    <path d="M14.3491 26.3776C14.9888 24.0331 17.4147 22.9297 19.845 22.9297H23.155C25.5853 22.9297 28.0112 24.0331 28.6509 26.3776C28.782 26.8584 28.8868 27.3786 28.9462 27.9312C29.0052 28.4804 28.5523 28.9297 28 28.9297H15C14.4477 28.9297 13.9948 28.4804 14.0538 27.9312C14.1132 27.3786 14.218 26.8584 14.3491 26.3776Z" stroke="var(--accent,  #2A2E4A)" stroke-linecap="round"></path>
  </symbol>
  <symbol fill="none" xmlns="http://www.w3.org/2000/svg" viewBox="0 0 42 42" id="documents">
    <path d="M18 21.8594L25 21.8594" stroke="var(--accent,  #2A2E4A)" stroke-linecap="round"></path>
    <path d="M18 24.8594L22 24.8594" stroke="var(--accent,  #2A2E4A)" stroke-linecap="round"></path>
    <path d="M15 15.2594C15 14.4193 15 13.9993 15.1635 13.6784C15.3073 13.3961 15.5368 13.1667 15.819 13.0229C16.1399 12.8594 16.5599 12.8594 17.4 12.8594H22.0059C22.3728 12.8594 22.5562 12.8594 22.7288 12.9008C22.8819 12.9376 23.0282 12.9982 23.1624 13.0804C23.3138 13.1732 23.4435 13.3029 23.7029 13.5623L27.2971 17.1564C27.5565 17.4159 27.6862 17.5456 27.779 17.6969C27.8612 17.8312 27.9218 17.9775 27.9586 18.1305C28 18.3032 28 18.4866 28 18.8535V27.4594C28 28.2995 28 28.7195 27.8365 29.0404C27.6927 29.3226 27.4632 29.5521 27.181 29.6959C26.8601 29.8594 26.4401 29.8594 25.6 29.8594H17.4C16.5599 29.8594 16.1399 29.8594 15.819 29.6959C15.5368 29.5521 15.3073 29.3226 15.1635 29.0404C15 28.7195 15 28.2995 15 27.4594V15.2594Z" stroke="var(--accent,  #2A2E4A)"></path>
    <path d="M22 12.8594V16.4594C22 17.2995 22 17.7195 22.1635 18.0404C22.3073 18.3226 22.5368 18.5521 22.819 18.6959C23.1399 18.8594 23.5599 18.8594 24.4 18.8594H28" stroke="var(--accent,  #2A2E4A)"></path>
  </symbol>
  <symbol fill="none" xmlns="http://www.w3.org/2000/svg" viewBox="0 0 42 42" id="messages">
    <rect x="13" y="15.1406" width="16" height="12" rx="2" stroke="var(--accent,  #2A2E4A)"></rect>
    <path d="M13 18.1406L20.1056 21.6934C20.6686 21.9749 21.3314 21.9749 21.8944 21.6934L29 18.1406" stroke="var(--accent,  #2A2E4A)"></path>
  </symbol>
  <symbol fill="none" xmlns="http://www.w3.org/2000/svg" viewBox="0 0 42 42" id="cargo">
    <path d="M15 28.5703H27C28.1046 28.5703 29 27.6749 29 26.5703V14.5703C29 13.4657 28.1046 12.5703 27 12.5703H15C13.8954 12.5703 13 13.4657 13 14.5703V26.5703C13 27.6749 13.8954 28.5703 15 28.5703Z" stroke="var(--accent,  #2A2E4A)" stroke-linecap="round"></path>
    <path d="M24 12.5703V19.5703L21 17.5703L18 19.5703V12.5703" stroke="var(--accent,  #2A2E4A)" stroke-linecap="round" stroke-linejoin="round"></path>
  </symbol>
  <symbol fill="none" xmlns="http://www.w3.org/2000/svg" viewBox="0 0 42 42" id="notifications">
    <path d="M15.4478 17.2585C15.7622 14.4294 18.1535 12.2891 21 12.2891V12.2891C23.8465 12.2891 26.2378 14.4294 26.5522 17.2585L26.804 19.5247C26.8072 19.5536 26.8088 19.568 26.8104 19.5823C26.9394 20.706 27.3051 21.7896 27.8836 22.7616C27.8909 22.7739 27.8984 22.7864 27.9133 22.8113L28.4914 23.7747C29.0159 24.6489 29.2782 25.0861 29.2216 25.4449C29.1839 25.6837 29.061 25.9007 28.8757 26.0559C28.5971 26.2891 28.0873 26.2891 27.0678 26.2891H14.9322C13.9127 26.2891 13.4029 26.2891 13.1243 26.0559C12.939 25.9007 12.8161 25.6837 12.7784 25.4449C12.7218 25.0861 12.9841 24.6489 13.5086 23.7747L14.0867 22.8113C14.1016 22.7864 14.1091 22.7739 14.1164 22.7616C14.6949 21.7896 15.0606 20.706 15.1896 19.5823C15.1912 19.568 15.1928 19.5536 15.196 19.5247L15.4478 17.2585Z" stroke="var(--accent,  #2A2E4A)"></path>
    <path d="M18.1022 26.6949C18.2731 27.4391 18.6498 28.0968 19.1737 28.5658C19.6976 29.0348 20.3396 29.2891 21 29.2891C21.6604 29.2891 22.3024 29.0348 22.8263 28.5658C23.3502 28.0968 23.7269 27.4391 23.8978 26.6949" stroke="var(--accent,  #2A2E4A)" stroke-linecap="round"></path>
  </symbol>
  <symbol fill="none" xmlns="http://www.w3.org/2000/svg" viewBox="0 0 42 42" id="dashboard">
    <rect x="13" y="13" width="6" height="6" rx="1" stroke="var(--accent,  #2A2E4A)" stroke-linejoin="round"></rect>
    <rect x="13" y="23" width="6" height="6" rx="1" stroke="var(--accent,  #2A2E4A)" stroke-linejoin="round"></rect>
    <rect x="23" y="23" width="6" height="6" rx="1" stroke="var(--accent,  #2A2E4A)" stroke-linejoin="round"></rect>
    <rect x="23" y="13" width="6" height="6" rx="1" stroke="var(--accent,  #2A2E4A)" stroke-linejoin="round"></rect>
  </symbol>
  <symbol fill="none" xmlns="http://www.w3.org/2000/svg" viewBox="0 0 24 24" id="clock">
    <circle cx="12" cy="12" r="8.5" stroke="var(--card-color, #F79B39)"></circle>
    <path d="M16.5 12H12.25C12.1119 12 12 11.8881 12 11.75V8.5" stroke="var(--card-color, #F79B39)" stroke-linecap="round"></path>
  </symbol>
  <symbol fill="none" xmlns="http://www.w3.org/2000/svg" viewBox="0 0 24 24" id="refresh">
    <g id="Refresh_light">
      <path id="Vector 9" d="M14 15L10 19L14 23" stroke="var(--color, #FFF)" stroke-linecap="round"></path>
      <path id="Ellipse 57" d="M5.93782 15.5C5.14475 14.1264 4.84171 12.5241 5.07833 10.9557C5.31495 9.38734 6.07722 7.94581 7.24024 6.86729C8.40327 5.78877 9.8981 5.13721 11.4798 5.01935C13.0616 4.90149 14.6365 5.32432 15.9465 6.21856C17.2565 7.1128 18.224 8.42544 18.6905 9.94144C19.1569 11.4574 19.0947 13.0869 18.5139 14.5629C17.9332 16.0389 16.8684 17.2739 15.494 18.0656C14.1196 18.8573 12.517 19.1588 10.9489 18.9206" stroke="var(--color, #FFF)" stroke-linecap="round"></path>
    </g>
  </symbol>
  <symbol fill="none" xmlns="http://www.w3.org/2000/svg" viewBox="0 0 29 29" id="check-circle">
    <path d="M9 14.5L13.5 19L21 10" stroke="#64DB78"></path>
    <circle cx="14.5" cy="14.5" r="13.5" stroke="#64DB78"></circle>
  </symbol>
</svg>