<svg width="140" height="24" viewBox="0 0 140 24" fill="none" xmlns="http://www.w3.org/2000/svg">
<g clip-path="url(#clip0_13_1158)">
<path d="M22.3625 24L18.398 17.6602C17.4819 16.1971 17.0535 14.4176 17.3539 12.69C17.6543 10.9624 18.6245 9.36965 20.0576 8.37873L32.1285 0L34.4875 3.77173L20.7126 13.38L25.9429 21.5097L22.3625 23.9948V24Z" fill="white"/>
<path d="M12.13 0L16.0945 6.33982C17.0105 7.80285 17.439 9.58236 17.1386 11.31C16.8283 13.0895 15.8679 14.6304 14.4348 15.6213L2.35902 24L0 20.2283L13.7749 10.62L8.54466 2.49027L12.13 0Z" fill="white"/>
<path d="M47.9483 1.56201H50.7506L57.8276 22.4336H54.8284L49.3372 5.40637L43.8459 22.4336H40.8467L47.9483 1.56201ZM44.6044 14.418H54.0601L54.4837 17.1314H44.1808L44.6044 14.418Z" fill="white"/>
<path d="M57.8281 10.2227V7.4108H61.9601C62.9401 7.4108 63.7183 7.7169 64.2945 8.31872C64.8707 8.92572 65.1563 9.74543 65.1563 10.7779V22.4354H62.4132V10.2175H57.8281V10.2227ZM65.3287 1.11768V4.75451H62.2704V1.11768H65.3287Z" fill="white"/>
<path d="M113.175 10.2227V7.4108H117.307C118.287 7.4108 119.065 7.7169 119.641 8.31872C120.217 8.92572 120.503 9.74543 120.503 10.7779V22.4354H117.76V10.2175H113.175V10.2227ZM120.68 1.11768V4.75451H117.622V1.11768H120.68Z" fill="white"/>
<path d="M69.8057 1.56201H75.6367C77.4294 1.56201 79.0398 1.96668 80.4631 2.77083C81.8864 3.57498 83.0142 4.76824 83.8465 6.3506C84.6788 7.93296 85.0925 9.81623 85.0925 12.0004C85.0925 14.1846 84.6788 16.073 83.8465 17.6502C83.0142 19.2326 81.8864 20.4258 80.4631 21.23C79.0398 22.0341 77.4294 22.4388 75.6367 22.4388H69.8057V1.56201ZM78.7936 18.8902C79.7835 18.3558 80.5714 17.5101 81.1575 16.3532C81.7436 15.2014 82.0341 13.7488 82.0341 12.0004C82.0341 10.252 81.7436 8.79937 81.1575 7.64762C80.5714 6.49586 79.7835 5.65021 78.7936 5.11065C77.8037 4.57109 76.6956 4.3065 75.4693 4.3065H72.7507V19.6943H75.4693C76.6956 19.6943 77.8037 19.4245 78.7936 18.8902Z" fill="white"/>
<path d="M91.8217 21.6038C90.7481 20.8878 89.9158 19.9332 89.3298 18.74C88.7437 17.5467 88.4531 16.2445 88.4531 14.8334C88.4531 13.4222 88.7289 12.1356 89.2756 10.9734C89.8222 9.81132 90.6151 8.88784 91.6543 8.20302C92.6934 7.51819 93.9197 7.17578 95.3332 7.17578C96.7466 7.17578 97.9631 7.49744 98.9727 8.14595C99.9823 8.79446 100.751 9.65568 101.277 10.74C101.804 11.8243 102.07 13.0124 102.07 14.3042C102.07 14.7244 102.051 15.1083 102.016 15.4663H90.0439V13.2303H99.3026C99.2091 12.0785 98.8151 11.1654 98.1256 10.5013C97.4361 9.83726 96.5053 9.50004 95.3381 9.50004C94.4516 9.50004 93.6932 9.70237 93.0579 10.1122C92.4275 10.5221 91.9449 11.1239 91.6149 11.9177C91.2849 12.7114 91.1175 13.6764 91.1175 14.8126C91.1175 15.845 91.3046 16.7737 91.6838 17.5986C92.0631 18.4235 92.59 19.0668 93.2697 19.5234C93.9493 19.9799 94.7225 20.2082 95.5893 20.2082C96.6284 20.2082 97.4755 19.9799 98.1354 19.5234C98.7954 19.0668 99.2288 18.4079 99.4356 17.5571H102.184C101.937 19.1083 101.218 20.3483 100.032 21.2821C98.8446 22.216 97.3622 22.6829 95.5893 22.6829C94.1561 22.6829 92.9003 22.3249 91.8267 21.609L91.8217 21.6038Z" fill="white"/>
<path d="M102.871 3.62351V1.11768H106.974C107.973 1.11768 108.756 1.4134 109.323 2.01002C109.889 2.60665 110.17 3.43155 110.17 4.48473V22.4354H107.422V3.62351H102.866H102.871Z" fill="white"/>
<path d="M124.35 7.41016H127.181L131.2 18.8032L135.219 7.41016H138.08L132.559 22.44H129.841L124.35 7.41016Z" fill="white"/>
</g>
<defs>
<clipPath id="clip0_13_1158">
<rect width="140" height="24" fill="white"/>
</clipPath>
</defs>
</svg>
