<svg width="146" height="44" viewBox="0 0 146 44" fill="none" xmlns="http://www.w3.org/2000/svg">
<path d="M23.3224 34L19.188 27.6602C18.2327 26.1971 17.7859 24.4176 18.0992 22.69C18.4125 20.9624 19.4242 19.3696 20.9188 18.3787L33.507 10L35.9671 13.7717L21.6019 23.38L27.0562 31.5097L23.3224 33.9948V34Z" fill="#2A2E4A"/>
<path d="M12.6498 10L16.7843 16.3398C17.7395 17.8029 18.1864 19.5824 17.8731 21.31C17.5495 23.0895 16.548 24.6304 15.0534 25.6213L2.46012 34L0 30.2283L14.3652 20.62L8.91086 12.4903L12.6498 10Z" fill="#2A2E4A"/>
<path d="M50.0037 11.5625H52.926L60.3064 32.4341H57.1786L51.452 15.4069L45.7254 32.4341H42.5977L50.0037 11.5625ZM46.5164 24.4185H56.3774L56.8191 27.1319H46.0747L46.5164 24.4185Z" fill="#2A2E4A"/>
<path d="M60.3066 20.2222V17.4103H64.6157C65.6377 17.4103 66.4492 17.7164 67.0501 18.3182C67.651 18.9252 67.9489 19.7449 67.9489 20.7774V32.435H65.0882V20.2171H60.3066V20.2222ZM68.1287 11.1172V14.754H64.9393V11.1172H68.1287Z" fill="#2A2E4A"/>
<path d="M118.027 20.2222V17.4103H122.336C123.358 17.4103 124.17 17.7164 124.771 18.3182C125.372 18.9252 125.67 19.7449 125.67 20.7774V32.435H122.809V20.2171H118.027V20.2222ZM125.855 11.1172V14.754H122.665V11.1172H125.855Z" fill="#2A2E4A"/>
<path d="M72.7969 11.5625H78.8778C80.7473 11.5625 82.4268 11.9672 83.911 12.7713C85.3953 13.5755 86.5715 14.7687 87.4394 16.3511C88.3074 17.9334 88.7388 19.8167 88.7388 22.0009C88.7388 24.1851 88.3074 26.0735 87.4394 27.6507C86.5715 29.2331 85.3953 30.4263 83.911 31.2305C82.4268 32.0346 80.7473 32.4393 78.8778 32.4393H72.7969V11.5625ZM82.17 28.8906C83.2023 28.3563 84.024 27.5106 84.6352 26.3537C85.2464 25.2019 85.5494 23.7493 85.5494 22.0009C85.5494 20.2525 85.2464 18.7999 84.6352 17.6481C84.024 16.4964 83.2023 15.6507 82.17 15.1111C81.1376 14.5716 79.9821 14.307 78.7032 14.307H75.8682V29.6948H78.7032C79.9821 29.6948 81.1376 29.425 82.17 28.8906Z" fill="#2A2E4A"/>
<path d="M95.7591 31.6038C94.6394 30.8878 93.7715 29.9332 93.1603 28.74C92.5491 27.5467 92.2461 26.2445 92.2461 24.8334C92.2461 23.4222 92.5337 22.1356 93.1038 20.9734C93.6739 19.8113 94.5008 18.8878 95.5845 18.203C96.6681 17.5182 97.947 17.1758 99.421 17.1758C100.895 17.1758 102.164 17.4974 103.216 18.1459C104.269 18.7945 105.071 19.6557 105.62 20.74C106.17 21.8243 106.447 23.0124 106.447 24.3042C106.447 24.7244 106.426 25.1083 106.39 25.4663H93.905V23.2303H103.561C103.463 22.0785 103.052 21.1654 102.333 20.5013C101.614 19.8373 100.643 19.5 99.4261 19.5C98.5017 19.5 97.7107 19.7024 97.0482 20.1122C96.3908 20.5221 95.8875 21.1239 95.5434 21.9177C95.1993 22.7114 95.0246 23.6764 95.0246 24.8126C95.0246 25.845 95.2198 26.7737 95.6153 27.5986C96.0107 28.4235 96.5603 29.0668 97.269 29.5234C97.9778 29.9799 98.7841 30.2082 99.6881 30.2082C100.772 30.2082 101.655 29.9799 102.343 29.5234C103.032 29.0668 103.484 28.4079 103.699 27.5571H106.565C106.308 29.1083 105.558 30.3483 104.321 31.2821C103.083 32.216 101.537 32.6829 99.6881 32.6829C98.1935 32.6829 96.8838 32.3249 95.7642 31.609L95.7591 31.6038Z" fill="#2A2E4A"/>
<path d="M107.282 13.623V11.1172H111.561C112.603 11.1172 113.42 11.4129 114.011 12.0095C114.601 12.6062 114.894 13.4311 114.894 14.4842V32.435H112.028V13.623H107.277H107.282Z" fill="#2A2E4A"/>
<path d="M129.68 17.4102H132.633L136.824 28.8032L141.015 17.4102H143.999L138.241 32.44H135.406L129.68 17.4102Z" fill="#2A2E4A"/>
</svg>
