<svg width="16" height="12" viewBox="0 0 16 12" fill="none" xmlns="http://www.w3.org/2000/svg">
<path d="M4.6353 0.661061C5.20474 0.296703 5.93734 0.639745 6.08768 1.29885C6.14662 1.55723 6.05195 1.82571 5.8491 1.99626C5.16811 2.56882 4.55993 3.16569 4.02454 3.78688C3.43558 4.5082 3.1411 5.32787 3.1411 6.2459C3.1411 6.63934 3.1411 7 3.1411 7.32787C3.17382 7.62295 3.23926 7.88525 3.33742 8.11475C3.17382 8.11475 2.87935 8.11475 2.45399 8.11475C2.06135 8.11475 1.79959 8.11475 1.66871 8.11475C1.66871 7.55738 1.93047 7.08197 2.45399 6.68852C3.01023 6.29508 3.56646 6.09836 4.1227 6.09836C4.80982 6.09836 5.41513 6.34426 5.93865 6.83607C6.49489 7.29508 6.77301 7.95082 6.77301 8.80328C6.77301 9.72131 6.49489 10.4918 5.93865 11.1148C5.38241 11.7049 4.6135 12 3.6319 12C2.58487 12 1.71779 11.6885 1.03068 11.0656C0.343558 10.4098 0 9.32787 0 7.81967C0 6.44262 0.507158 5.03279 1.52147 3.59016C2.33324 2.44628 3.37118 1.46991 4.6353 0.661061ZM13.9854 0.583296C14.4962 0.264495 15.1484 0.569819 15.2823 1.15688C15.361 1.50209 15.2342 1.86035 14.965 2.0904C14.3288 2.63416 13.7576 3.19966 13.2515 3.78688C12.6626 4.5082 12.3681 5.32787 12.3681 6.2459C12.3681 6.63934 12.3681 7 12.3681 7.32787C12.4008 7.62295 12.4663 7.88525 12.5644 8.11475C12.4008 8.11475 12.1063 8.11475 11.681 8.11475C11.2883 8.11475 11.0266 8.11475 10.8957 8.11475C10.8957 7.55738 11.1575 7.08197 11.681 6.68852C12.2372 6.29508 12.7935 6.09836 13.3497 6.09836C14.0368 6.09836 14.6421 6.34426 15.1656 6.83607C15.7219 7.29508 16 7.95082 16 8.80328C16 9.72131 15.7219 10.4918 15.1656 11.1148C14.6094 11.7049 13.8405 12 12.8589 12C11.8119 12 10.9448 11.6885 10.2577 11.0656C9.57055 10.4098 9.22699 9.32787 9.22699 7.81967C9.22699 6.44262 9.73415 5.03279 10.7485 3.59016C11.5864 2.40937 12.6654 1.40709 13.9854 0.583296Z" fill="#2A2E4A"/>
</svg>
