<svg width="104" height="96" viewBox="0 0 104 96" fill="none" xmlns="http://www.w3.org/2000/svg">
<g clip-path="url(#clip0_5174_46537)">
<path d="M28.0308 37.7429C27.4777 37.7429 27.0234 37.2971 27.0234 36.7398V33.7699C27.0234 30.7935 29.4529 28.3809 32.4354 28.3809H56.7104C57.2635 28.3809 57.7178 28.8267 57.7178 29.3839C57.7178 29.9412 57.2701 30.387 56.7104 30.387H32.4354C30.559 30.387 29.0315 31.908 29.0315 33.7765V36.7464C29.0315 37.2971 28.5838 37.7494 28.0242 37.7494L28.0308 37.7429Z" fill="#2A2E4A"/>
<path d="M28.0308 37.7429C27.4777 37.7429 27.0234 37.2971 27.0234 36.7398V33.7699C27.0234 30.7935 29.4529 28.3809 32.4354 28.3809H56.7104C57.2635 28.3809 57.7178 28.8267 57.7178 29.3839C57.7178 29.9412 57.2701 30.387 56.7104 30.387H32.4354C30.559 30.387 29.0315 31.908 29.0315 33.7765V36.7464C29.0315 37.2971 28.5838 37.7494 28.0242 37.7494L28.0308 37.7429Z" fill="url(#paint0_linear_5174_46537)"/>
<path d="M71.5558 67.5268H47.2808C46.7277 67.5268 46.2734 67.081 46.2734 66.5237C46.2734 65.9664 46.7211 65.5206 47.2808 65.5206H71.5558C73.4322 65.5206 74.9597 63.9996 74.9597 62.1312V59.1613C74.9597 58.6106 75.4074 58.1582 75.967 58.1582C76.5267 58.1582 76.9744 58.604 76.9744 59.1613V62.1312C76.9744 65.1076 74.5449 67.5202 71.5624 67.5202L71.5558 67.5268Z" fill="#2A2E4A"/>
<path d="M71.5558 67.5268H47.2808C46.7277 67.5268 46.2734 67.081 46.2734 66.5237C46.2734 65.9664 46.7211 65.5206 47.2808 65.5206H71.5558C73.4322 65.5206 74.9597 63.9996 74.9597 62.1312V59.1613C74.9597 58.6106 75.4074 58.1582 75.967 58.1582C76.5267 58.1582 76.9744 58.604 76.9744 59.1613V62.1312C76.9744 65.1076 74.5449 67.5202 71.5624 67.5202L71.5558 67.5268Z" fill="url(#paint1_linear_5174_46537)"/>
<path d="M75.9633 44.8488C71.5389 44.8488 67.9375 41.2627 67.9375 36.857C67.9375 32.4514 71.5389 28.8652 75.9633 28.8652C80.3877 28.8652 83.9892 32.4514 83.9892 36.857C83.9892 41.2627 80.3877 44.8488 75.9633 44.8488ZM75.9633 30.8648C72.645 30.8648 69.9456 33.5528 69.9456 36.857C69.9456 40.1613 72.645 42.8493 75.9633 42.8493C79.2816 42.8493 81.9811 40.1613 81.9811 36.857C81.9811 33.5528 79.2816 30.8648 75.9633 30.8648Z" fill="#2A2E4A"/>
<path d="M75.9633 44.8488C71.5389 44.8488 67.9375 41.2627 67.9375 36.857C67.9375 32.4514 71.5389 28.8652 75.9633 28.8652C80.3877 28.8652 83.9892 32.4514 83.9892 36.857C83.9892 41.2627 80.3877 44.8488 75.9633 44.8488ZM75.9633 30.8648C72.645 30.8648 69.9456 33.5528 69.9456 36.857C69.9456 40.1613 72.645 42.8493 75.9633 42.8493C79.2816 42.8493 81.9811 40.1613 81.9811 36.857C81.9811 33.5528 79.2816 30.8648 75.9633 30.8648Z" fill="url(#paint2_linear_5174_46537)"/>
<path d="M78.5555 56.8604H73.3739C72.8735 56.8604 72.4521 56.4933 72.3797 56.0016L71.8596 52.3957C70.4506 52.0286 69.0943 51.4713 67.8302 50.7305L64.9004 52.9137C64.4987 53.2152 63.9391 53.1693 63.5836 52.8219L59.9229 49.1767C59.5674 48.8227 59.5279 48.2654 59.8307 47.8655L62.0232 44.9546C61.2858 43.7024 60.7261 42.3519 60.3509 40.9423L56.7297 40.4244C56.2359 40.3523 55.8672 39.9327 55.8672 39.4345V34.2749C55.8672 33.7766 56.2359 33.357 56.7297 33.2849L60.3509 32.767C60.7196 31.3574 61.2726 30.0069 62.0166 28.7547L59.8241 25.8438C59.5213 25.4439 59.5608 24.8866 59.9163 24.5326L63.577 20.8874C63.9325 20.5334 64.4922 20.4941 64.8938 20.7956L67.817 22.9788C69.0812 22.238 70.4309 21.6807 71.8464 21.3201L72.3666 17.7143C72.439 17.2226 72.8604 16.8555 73.3607 16.8555H78.5423C79.0427 16.8555 79.464 17.2226 79.5365 17.7143L80.05 21.3136C81.4787 21.6807 82.8284 22.238 84.086 22.9788L87.0093 20.7956C87.4109 20.4941 87.9705 20.5334 88.326 20.8874L91.9867 24.5326C92.3422 24.8866 92.3818 25.4439 92.0789 25.8438L89.8864 28.7547C90.6238 30.0069 91.1835 31.3509 91.5588 32.7735L95.1733 33.2849C95.6671 33.357 96.0358 33.7766 96.0358 34.2749V39.4345C96.0358 39.9327 95.6671 40.3523 95.1733 40.4244L91.5522 40.9423C91.1835 42.3584 90.6238 43.7024 89.8864 44.9546L92.0789 47.8655C92.3818 48.2654 92.3422 48.8227 91.9867 49.1767L88.326 52.8219C87.9705 53.1759 87.4109 53.2152 87.0093 52.9137L84.086 50.7305C82.8219 51.4648 81.4722 52.022 80.0566 52.3892L79.5365 55.995C79.464 56.4867 79.0427 56.8538 78.5423 56.8538L78.5555 56.8604ZM74.243 54.8542H77.6798L78.1736 51.432C78.2328 51.0124 78.5489 50.6846 78.9637 50.5928C80.6228 50.2454 82.1898 49.6029 83.6119 48.685C83.9675 48.4556 84.4218 48.4752 84.7641 48.7244L87.536 50.7961L89.9654 48.3769L87.8849 45.6102C87.6347 45.2759 87.615 44.817 87.8454 44.4629C88.7672 43.0468 89.4124 41.493 89.7679 39.8344C89.8535 39.4213 90.1893 39.1132 90.6107 39.0542L94.0475 38.5625V35.1402L90.6173 34.6551C90.2025 34.5961 89.8667 34.2814 89.7745 33.8749C89.419 32.2097 88.7672 30.6494 87.852 29.2464C87.6742 28.9776 87.6347 28.6367 87.7598 28.322C87.7927 28.2433 87.8388 28.1646 87.8915 28.0925L89.972 25.3324L87.5426 22.9132L84.7707 24.985C84.5337 25.162 84.2374 25.2275 83.9477 25.162C83.8292 25.1357 83.7173 25.0898 83.6119 25.0243C82.203 24.113 80.636 23.464 78.9637 23.1099C78.5489 23.0247 78.2394 22.6903 78.1802 22.2708L77.693 18.8551H74.2561L73.7624 22.2773C73.7031 22.6903 73.3871 23.0247 72.9789 23.1165C71.3197 23.4705 69.7527 24.113 68.3306 25.0308C67.9751 25.2603 67.5208 25.2472 67.1784 24.9915L64.4066 22.9198L61.9771 25.339L64.0576 28.0991C64.3078 28.4334 64.3276 28.8923 64.0971 29.2464C63.1754 30.6625 62.5301 32.2163 62.1746 33.8749C62.089 34.288 61.7532 34.5961 61.3319 34.6551L57.895 35.1468V38.5691L61.3253 39.0608C61.7335 39.1198 62.0627 39.4148 62.1614 39.8081C62.5236 41.493 63.1688 43.0468 64.0839 44.4564C64.321 44.8038 64.3144 45.2693 64.0576 45.6168L61.9771 48.3834L64.4066 50.8026L67.185 48.7309C67.5208 48.4818 67.9816 48.4621 68.3372 48.6916C69.7593 49.6094 71.3197 50.2519 72.9854 50.6125C73.4002 50.6977 73.7097 51.0386 73.7755 51.4517L74.2693 54.8674L74.243 54.8542Z" fill="#2A2E4A"/>
<path d="M78.5555 56.8604H73.3739C72.8735 56.8604 72.4521 56.4933 72.3797 56.0016L71.8596 52.3957C70.4506 52.0286 69.0943 51.4713 67.8302 50.7305L64.9004 52.9137C64.4987 53.2152 63.9391 53.1693 63.5836 52.8219L59.9229 49.1767C59.5674 48.8227 59.5279 48.2654 59.8307 47.8655L62.0232 44.9546C61.2858 43.7024 60.7261 42.3519 60.3509 40.9423L56.7297 40.4244C56.2359 40.3523 55.8672 39.9327 55.8672 39.4345V34.2749C55.8672 33.7766 56.2359 33.357 56.7297 33.2849L60.3509 32.767C60.7196 31.3574 61.2726 30.0069 62.0166 28.7547L59.8241 25.8438C59.5213 25.4439 59.5608 24.8866 59.9163 24.5326L63.577 20.8874C63.9325 20.5334 64.4922 20.4941 64.8938 20.7956L67.817 22.9788C69.0812 22.238 70.4309 21.6807 71.8464 21.3201L72.3666 17.7143C72.439 17.2226 72.8604 16.8555 73.3607 16.8555H78.5423C79.0427 16.8555 79.464 17.2226 79.5365 17.7143L80.05 21.3136C81.4787 21.6807 82.8284 22.238 84.086 22.9788L87.0093 20.7956C87.4109 20.4941 87.9705 20.5334 88.326 20.8874L91.9867 24.5326C92.3422 24.8866 92.3818 25.4439 92.0789 25.8438L89.8864 28.7547C90.6238 30.0069 91.1835 31.3509 91.5588 32.7735L95.1733 33.2849C95.6671 33.357 96.0358 33.7766 96.0358 34.2749V39.4345C96.0358 39.9327 95.6671 40.3523 95.1733 40.4244L91.5522 40.9423C91.1835 42.3584 90.6238 43.7024 89.8864 44.9546L92.0789 47.8655C92.3818 48.2654 92.3422 48.8227 91.9867 49.1767L88.326 52.8219C87.9705 53.1759 87.4109 53.2152 87.0093 52.9137L84.086 50.7305C82.8219 51.4648 81.4722 52.022 80.0566 52.3892L79.5365 55.995C79.464 56.4867 79.0427 56.8538 78.5423 56.8538L78.5555 56.8604ZM74.243 54.8542H77.6798L78.1736 51.432C78.2328 51.0124 78.5489 50.6846 78.9637 50.5928C80.6228 50.2454 82.1898 49.6029 83.6119 48.685C83.9675 48.4556 84.4218 48.4752 84.7641 48.7244L87.536 50.7961L89.9654 48.3769L87.8849 45.6102C87.6347 45.2759 87.615 44.817 87.8454 44.4629C88.7672 43.0468 89.4124 41.493 89.7679 39.8344C89.8535 39.4213 90.1893 39.1132 90.6107 39.0542L94.0475 38.5625V35.1402L90.6173 34.6551C90.2025 34.5961 89.8667 34.2814 89.7745 33.8749C89.419 32.2097 88.7672 30.6494 87.852 29.2464C87.6742 28.9776 87.6347 28.6367 87.7598 28.322C87.7927 28.2433 87.8388 28.1646 87.8915 28.0925L89.972 25.3324L87.5426 22.9132L84.7707 24.985C84.5337 25.162 84.2374 25.2275 83.9477 25.162C83.8292 25.1357 83.7173 25.0898 83.6119 25.0243C82.203 24.113 80.636 23.464 78.9637 23.1099C78.5489 23.0247 78.2394 22.6903 78.1802 22.2708L77.693 18.8551H74.2561L73.7624 22.2773C73.7031 22.6903 73.3871 23.0247 72.9789 23.1165C71.3197 23.4705 69.7527 24.113 68.3306 25.0308C67.9751 25.2603 67.5208 25.2472 67.1784 24.9915L64.4066 22.9198L61.9771 25.339L64.0576 28.0991C64.3078 28.4334 64.3276 28.8923 64.0971 29.2464C63.1754 30.6625 62.5301 32.2163 62.1746 33.8749C62.089 34.288 61.7532 34.5961 61.3319 34.6551L57.895 35.1468V38.5691L61.3253 39.0608C61.7335 39.1198 62.0627 39.4148 62.1614 39.8081C62.5236 41.493 63.1688 43.0468 64.0839 44.4564C64.321 44.8038 64.3144 45.2693 64.0576 45.6168L61.9771 48.3834L64.4066 50.8026L67.185 48.7309C67.5208 48.4818 67.9816 48.4621 68.3372 48.6916C69.7593 49.6094 71.3197 50.2519 72.9854 50.6125C73.4002 50.6977 73.7097 51.0386 73.7755 51.4517L74.2693 54.8674L74.243 54.8542Z" fill="url(#paint3_linear_5174_46537)"/>
<path d="M28.0336 67.0403C23.6092 67.0403 20.0078 63.4541 20.0078 59.0484C20.0078 54.6428 23.6092 51.0566 28.0336 51.0566C32.4581 51.0566 36.0595 54.6428 36.0595 59.0484C36.0595 63.4541 32.4581 67.0403 28.0336 67.0403ZM28.0336 53.0562C24.7153 53.0562 22.0159 55.7442 22.0159 59.0484C22.0159 62.3527 24.7153 65.0407 28.0336 65.0407C31.352 65.0407 34.0514 62.3527 34.0514 59.0484C34.0514 55.7442 31.352 53.0562 28.0336 53.0562Z" fill="#2A2E4A"/>
<path d="M28.0336 67.0403C23.6092 67.0403 20.0078 63.4541 20.0078 59.0484C20.0078 54.6428 23.6092 51.0566 28.0336 51.0566C32.4581 51.0566 36.0595 54.6428 36.0595 59.0484C36.0595 63.4541 32.4581 67.0403 28.0336 67.0403ZM28.0336 53.0562C24.7153 53.0562 22.0159 55.7442 22.0159 59.0484C22.0159 62.3527 24.7153 65.0407 28.0336 65.0407C31.352 65.0407 34.0514 62.3527 34.0514 59.0484C34.0514 55.7442 31.352 53.0562 28.0336 53.0562Z" fill="url(#paint4_linear_5174_46537)"/>
<path d="M30.6192 79.0518H25.4376C24.9372 79.0518 24.5159 78.6847 24.4435 78.193L23.9233 74.5871C22.5144 74.22 21.1581 73.6627 19.8939 72.9219L16.9707 75.1051C16.5691 75.4066 16.0094 75.3673 15.6539 75.0133L11.9932 71.3681C11.6377 71.0141 11.5982 70.4568 11.901 70.0569L14.0935 67.146C13.3561 65.8873 12.7965 64.5433 12.4212 63.1337L8.8 62.6158C8.3062 62.5437 7.9375 62.1241 7.9375 61.6259V56.4663C7.9375 55.968 8.3062 55.5484 8.8 55.4763L12.4212 54.9584C12.7899 53.5488 13.3429 52.1983 14.0869 50.9461L11.8945 48.0352C11.5916 47.6353 11.6311 47.078 11.9866 46.724L15.6473 43.0788C16.0028 42.7248 16.5625 42.6855 16.9641 42.9871L19.8874 45.1702C21.1515 44.4294 22.5012 43.8721 23.9167 43.5115L24.4369 39.9057C24.5093 39.414 24.9307 39.0469 25.431 39.0469H30.6126C31.113 39.0469 31.5344 39.414 31.6068 39.9057L32.1203 43.505C33.549 43.8721 34.8988 44.4294 36.1563 45.1702L39.0796 42.9871C39.4812 42.6855 40.0408 42.7314 40.3964 43.0788L44.057 46.724C44.4126 47.078 44.4521 47.6353 44.1492 48.0352L41.9567 50.9461C42.6941 52.1983 43.2538 53.5423 43.6291 54.9649L47.2437 55.4828C47.7375 55.555 48.1062 55.9746 48.1062 56.4728V61.6324C48.1062 62.1307 47.7375 62.5503 47.2437 62.6224L43.6225 63.1403C43.2538 64.5564 42.6941 65.9004 41.9567 67.1526L44.1492 70.0635C44.4521 70.4634 44.4126 71.0207 44.057 71.3747L40.3964 75.0198C40.0408 75.3739 39.4812 75.4132 39.0796 75.1116L36.1563 72.9285C34.8922 73.6627 33.5425 74.22 32.1269 74.5871L31.6068 78.193C31.5344 78.6847 31.113 79.0518 30.6126 79.0518H30.6192ZM26.3133 77.0522H29.7501L30.2439 73.63C30.3032 73.2169 30.6192 72.8826 31.0274 72.7908C32.6931 72.4368 34.2535 71.7943 35.6757 70.8764C36.0312 70.647 36.4855 70.6666 36.8279 70.9158L39.5997 72.9875L42.0292 70.5683L39.9486 67.8016C39.6985 67.4673 39.6787 67.0084 39.9091 66.6543C40.8309 65.2382 41.4761 63.6779 41.8317 62.0258C41.9172 61.6127 42.253 61.3046 42.6744 61.2456L46.1112 60.7539V57.3317L42.681 56.8399C42.2662 56.7809 41.9304 56.4663 41.8382 56.0598C41.4827 54.3946 40.8309 52.8342 39.9157 51.4312C39.7248 51.1362 39.6985 50.756 39.8565 50.4347C39.8828 50.3823 39.9157 50.3298 39.9486 50.2839L42.0292 47.5238L39.5997 45.1047L36.8279 47.1764C36.5513 47.3796 36.1892 47.432 35.8732 47.314C35.8073 47.2878 35.7349 47.255 35.6757 47.2157C34.2601 46.3044 32.6997 45.6554 31.0274 45.3013C30.6126 45.2161 30.3032 44.8817 30.2439 44.4622L29.7567 41.0465H26.3199L25.8261 44.4687C25.7668 44.8817 25.4508 45.2161 25.0426 45.3079C23.3834 45.6619 21.8165 46.3044 20.3943 47.2222C20.0388 47.4517 19.5779 47.432 19.2421 47.1829L16.4703 45.1112L14.0408 47.5304L16.1213 50.2905C16.3715 50.6248 16.3913 51.0838 16.1608 51.4378C15.2391 52.8539 14.5939 54.4077 14.2449 56.0663C14.1593 56.4794 13.8235 56.7875 13.4022 56.8465L9.96536 57.3382V60.7605L13.3956 61.2522C13.784 61.3046 14.1067 61.58 14.2186 61.9537C14.5939 63.6779 15.2391 65.2317 16.1477 66.6412C16.3847 66.9887 16.3847 67.4542 16.1213 67.8082L14.0408 70.5748L16.4703 72.994L19.2487 70.9223C19.5845 70.6732 20.0454 70.6535 20.4009 70.883C21.823 71.8008 23.3834 72.4433 25.0492 72.8039C25.464 72.8891 25.7734 73.23 25.8392 73.6431L26.333 77.0588L26.3133 77.0522Z" fill="#2A2E4A"/>
<path d="M30.6192 79.0518H25.4376C24.9372 79.0518 24.5159 78.6847 24.4435 78.193L23.9233 74.5871C22.5144 74.22 21.1581 73.6627 19.8939 72.9219L16.9707 75.1051C16.5691 75.4066 16.0094 75.3673 15.6539 75.0133L11.9932 71.3681C11.6377 71.0141 11.5982 70.4568 11.901 70.0569L14.0935 67.146C13.3561 65.8873 12.7965 64.5433 12.4212 63.1337L8.8 62.6158C8.3062 62.5437 7.9375 62.1241 7.9375 61.6259V56.4663C7.9375 55.968 8.3062 55.5484 8.8 55.4763L12.4212 54.9584C12.7899 53.5488 13.3429 52.1983 14.0869 50.9461L11.8945 48.0352C11.5916 47.6353 11.6311 47.078 11.9866 46.724L15.6473 43.0788C16.0028 42.7248 16.5625 42.6855 16.9641 42.9871L19.8874 45.1702C21.1515 44.4294 22.5012 43.8721 23.9167 43.5115L24.4369 39.9057C24.5093 39.414 24.9307 39.0469 25.431 39.0469H30.6126C31.113 39.0469 31.5344 39.414 31.6068 39.9057L32.1203 43.505C33.549 43.8721 34.8988 44.4294 36.1563 45.1702L39.0796 42.9871C39.4812 42.6855 40.0408 42.7314 40.3964 43.0788L44.057 46.724C44.4126 47.078 44.4521 47.6353 44.1492 48.0352L41.9567 50.9461C42.6941 52.1983 43.2538 53.5423 43.6291 54.9649L47.2437 55.4828C47.7375 55.555 48.1062 55.9746 48.1062 56.4728V61.6324C48.1062 62.1307 47.7375 62.5503 47.2437 62.6224L43.6225 63.1403C43.2538 64.5564 42.6941 65.9004 41.9567 67.1526L44.1492 70.0635C44.4521 70.4634 44.4126 71.0207 44.057 71.3747L40.3964 75.0198C40.0408 75.3739 39.4812 75.4132 39.0796 75.1116L36.1563 72.9285C34.8922 73.6627 33.5425 74.22 32.1269 74.5871L31.6068 78.193C31.5344 78.6847 31.113 79.0518 30.6126 79.0518H30.6192ZM26.3133 77.0522H29.7501L30.2439 73.63C30.3032 73.2169 30.6192 72.8826 31.0274 72.7908C32.6931 72.4368 34.2535 71.7943 35.6757 70.8764C36.0312 70.647 36.4855 70.6666 36.8279 70.9158L39.5997 72.9875L42.0292 70.5683L39.9486 67.8016C39.6985 67.4673 39.6787 67.0084 39.9091 66.6543C40.8309 65.2382 41.4761 63.6779 41.8317 62.0258C41.9172 61.6127 42.253 61.3046 42.6744 61.2456L46.1112 60.7539V57.3317L42.681 56.8399C42.2662 56.7809 41.9304 56.4663 41.8382 56.0598C41.4827 54.3946 40.8309 52.8342 39.9157 51.4312C39.7248 51.1362 39.6985 50.756 39.8565 50.4347C39.8828 50.3823 39.9157 50.3298 39.9486 50.2839L42.0292 47.5238L39.5997 45.1047L36.8279 47.1764C36.5513 47.3796 36.1892 47.432 35.8732 47.314C35.8073 47.2878 35.7349 47.255 35.6757 47.2157C34.2601 46.3044 32.6997 45.6554 31.0274 45.3013C30.6126 45.2161 30.3032 44.8817 30.2439 44.4622L29.7567 41.0465H26.3199L25.8261 44.4687C25.7668 44.8817 25.4508 45.2161 25.0426 45.3079C23.3834 45.6619 21.8165 46.3044 20.3943 47.2222C20.0388 47.4517 19.5779 47.432 19.2421 47.1829L16.4703 45.1112L14.0408 47.5304L16.1213 50.2905C16.3715 50.6248 16.3913 51.0838 16.1608 51.4378C15.2391 52.8539 14.5939 54.4077 14.2449 56.0663C14.1593 56.4794 13.8235 56.7875 13.4022 56.8465L9.96536 57.3382V60.7605L13.3956 61.2522C13.784 61.3046 14.1067 61.58 14.2186 61.9537C14.5939 63.6779 15.2391 65.2317 16.1477 66.6412C16.3847 66.9887 16.3847 67.4542 16.1213 67.8082L14.0408 70.5748L16.4703 72.994L19.2487 70.9223C19.5845 70.6732 20.0454 70.6535 20.4009 70.883C21.823 71.8008 23.3834 72.4433 25.0492 72.8039C25.464 72.8891 25.7734 73.23 25.8392 73.6431L26.333 77.0588L26.3133 77.0522Z" fill="url(#paint5_linear_5174_46537)"/>
<path d="M83.5617 89.9933H50.3589C49.8059 89.9933 49.3516 89.5474 49.3516 88.9902C49.3516 88.4329 49.7993 87.9871 50.3589 87.9871H83.5617C93.7274 87.9871 101.997 79.7527 101.997 69.6302V26.3669C101.997 16.2444 93.7274 8.01005 83.5617 8.01005H65.7851C65.232 8.01005 64.7777 7.56424 64.7777 7.00698C64.7777 6.44972 65.2255 6.00391 65.7851 6.00391H83.5617C94.8335 6.00391 104.005 15.1365 104.005 26.3604V69.6237C104.005 80.8476 94.8335 89.9801 83.5617 89.9801V89.9933Z" fill="#2A2E4A"/>
<path d="M83.5617 89.9933H50.3589C49.8059 89.9933 49.3516 89.5474 49.3516 88.9902C49.3516 88.4329 49.7993 87.9871 50.3589 87.9871H83.5617C93.7274 87.9871 101.997 79.7527 101.997 69.6302V26.3669C101.997 16.2444 93.7274 8.01005 83.5617 8.01005H65.7851C65.232 8.01005 64.7777 7.56424 64.7777 7.00698C64.7777 6.44972 65.2255 6.00391 65.7851 6.00391H83.5617C94.8335 6.00391 104.005 15.1365 104.005 26.3604V69.6237C104.005 80.8476 94.8335 89.9801 83.5617 89.9801V89.9933Z" fill="url(#paint6_linear_5174_46537)"/>
<path d="M55.1698 95.9987C54.9131 95.9987 54.6563 95.9003 54.4588 95.7036L48.4213 89.6918C48.2303 89.5016 48.125 89.2525 48.125 88.9837C48.125 88.7149 48.2303 88.4658 48.4213 88.2756L54.4588 82.2638C54.8538 81.8704 55.4859 81.8704 55.8809 82.2638C56.2759 82.6571 56.2759 83.2865 55.8809 83.6799L50.5545 88.9837L55.8809 94.2875C56.2759 94.6809 56.2759 95.3103 55.8809 95.7036C55.6834 95.9003 55.4266 95.9987 55.1698 95.9987Z" fill="#2A2E4A"/>
<path d="M55.1698 95.9987C54.9131 95.9987 54.6563 95.9003 54.4588 95.7036L48.4213 89.6918C48.2303 89.5016 48.125 89.2525 48.125 88.9837C48.125 88.7149 48.2303 88.4658 48.4213 88.2756L54.4588 82.2638C54.8538 81.8704 55.4859 81.8704 55.8809 82.2638C56.2759 82.6571 56.2759 83.2865 55.8809 83.6799L50.5545 88.9837L55.8809 94.2875C56.2759 94.6809 56.2759 95.3103 55.8809 95.7036C55.6834 95.9003 55.4266 95.9987 55.1698 95.9987Z" fill="url(#paint7_linear_5174_46537)"/>
<path d="M38.2198 89.9945H20.4431C9.17143 89.9945 0 80.862 0 69.638V26.3682C0 15.1443 9.17143 6.01172 20.4431 6.01172H50.3079C50.861 6.01172 51.3153 6.45753 51.3153 7.01479C51.3153 7.57205 50.8676 8.01786 50.3079 8.01786H20.4431C10.2775 8.01786 2.0081 16.2522 2.0081 26.3748V69.638C2.0081 79.7606 10.2775 87.9949 20.4431 87.9949H38.2198C38.7729 87.9949 39.2271 88.4407 39.2271 88.998C39.2271 89.5553 38.7794 90.0011 38.2198 90.0011V89.9945Z" fill="#2A2E4A"/>
<path d="M38.2198 89.9945H20.4431C9.17143 89.9945 0 80.862 0 69.638V26.3682C0 15.1443 9.17143 6.01172 20.4431 6.01172H50.3079C50.861 6.01172 51.3153 6.45753 51.3153 7.01479C51.3153 7.57205 50.8676 8.01786 50.3079 8.01786H20.4431C10.2775 8.01786 2.0081 16.2522 2.0081 26.3748V69.638C2.0081 79.7606 10.2775 87.9949 20.4431 87.9949H38.2198C38.7729 87.9949 39.2271 88.4407 39.2271 88.998C39.2271 89.5553 38.7794 90.0011 38.2198 90.0011V89.9945Z" fill="url(#paint8_linear_5174_46537)"/>
<path d="M45.1089 14.0221C44.8521 14.0221 44.5954 13.9238 44.3978 13.7271C44.0028 13.3337 44.0028 12.7043 44.3978 12.311L49.7242 7.00714L44.3978 1.70331C44.0028 1.30995 44.0028 0.680571 44.3978 0.287209C44.7929 -0.106153 45.4249 -0.106153 45.82 0.287209L51.8575 6.29909C52.2525 6.69245 52.2525 7.32183 51.8575 7.7152L45.82 13.7271C45.6225 13.9238 45.3657 14.0221 45.1089 14.0221Z" fill="#2A2E4A"/>
<path d="M45.1089 14.0221C44.8521 14.0221 44.5954 13.9238 44.3978 13.7271C44.0028 13.3337 44.0028 12.7043 44.3978 12.311L49.7242 7.00714L44.3978 1.70331C44.0028 1.30995 44.0028 0.680571 44.3978 0.287209C44.7929 -0.106153 45.4249 -0.106153 45.82 0.287209L51.8575 6.29909C52.2525 6.69245 52.2525 7.32183 51.8575 7.7152L45.82 13.7271C45.6225 13.9238 45.3657 14.0221 45.1089 14.0221Z" fill="url(#paint9_linear_5174_46537)"/>
</g>
<defs>
<linearGradient id="paint0_linear_5174_46537" x1="27.0234" y1="33.0651" x2="57.7178" y2="33.0651" gradientUnits="userSpaceOnUse">
<stop/>
<stop offset="0.0001" stop-color="#2C2840"/>
<stop offset="0.0002" stop-color="#2A2E4A"/>
<stop offset="0.4375" stop-color="#5D5A8F"/>
<stop offset="0.9999" stop-color="#998EE0"/>
</linearGradient>
<linearGradient id="paint1_linear_5174_46537" x1="46.2734" y1="62.8425" x2="76.9744" y2="62.8425" gradientUnits="userSpaceOnUse">
<stop/>
<stop offset="0.0001" stop-color="#2C2840"/>
<stop offset="0.0002" stop-color="#2A2E4A"/>
<stop offset="0.4375" stop-color="#5D5A8F"/>
<stop offset="0.9999" stop-color="#998EE0"/>
</linearGradient>
<linearGradient id="paint2_linear_5174_46537" x1="67.9375" y1="36.857" x2="83.9892" y2="36.857" gradientUnits="userSpaceOnUse">
<stop/>
<stop offset="0.0001" stop-color="#2C2840"/>
<stop offset="0.0002" stop-color="#2A2E4A"/>
<stop offset="0.4375" stop-color="#5D5A8F"/>
<stop offset="0.9999" stop-color="#998EE0"/>
</linearGradient>
<linearGradient id="paint3_linear_5174_46537" x1="55.8672" y1="36.8579" x2="96.0358" y2="36.8579" gradientUnits="userSpaceOnUse">
<stop/>
<stop offset="0.0001" stop-color="#2C2840"/>
<stop offset="0.0002" stop-color="#2A2E4A"/>
<stop offset="0.4375" stop-color="#5D5A8F"/>
<stop offset="0.9999" stop-color="#998EE0"/>
</linearGradient>
<linearGradient id="paint4_linear_5174_46537" x1="20.0078" y1="59.0484" x2="36.0595" y2="59.0484" gradientUnits="userSpaceOnUse">
<stop/>
<stop offset="0.0001" stop-color="#2C2840"/>
<stop offset="0.0002" stop-color="#2A2E4A"/>
<stop offset="0.4375" stop-color="#5D5A8F"/>
<stop offset="0.9999" stop-color="#998EE0"/>
</linearGradient>
<linearGradient id="paint5_linear_5174_46537" x1="7.9375" y1="59.0493" x2="48.1062" y2="59.0493" gradientUnits="userSpaceOnUse">
<stop/>
<stop offset="0.0001" stop-color="#2C2840"/>
<stop offset="0.0002" stop-color="#2A2E4A"/>
<stop offset="0.4375" stop-color="#5D5A8F"/>
<stop offset="0.9999" stop-color="#998EE0"/>
</linearGradient>
<linearGradient id="paint6_linear_5174_46537" x1="49.3516" y1="47.9986" x2="104.005" y2="47.9986" gradientUnits="userSpaceOnUse">
<stop/>
<stop offset="0.0001" stop-color="#2C2840"/>
<stop offset="0.0002" stop-color="#2A2E4A"/>
<stop offset="0.4375" stop-color="#5D5A8F"/>
<stop offset="0.9999" stop-color="#998EE0"/>
</linearGradient>
<linearGradient id="paint7_linear_5174_46537" x1="48.125" y1="88.9837" x2="56.1772" y2="88.9837" gradientUnits="userSpaceOnUse">
<stop/>
<stop offset="0.0001" stop-color="#2C2840"/>
<stop offset="0.0002" stop-color="#2A2E4A"/>
<stop offset="0.4375" stop-color="#5D5A8F"/>
<stop offset="0.9999" stop-color="#998EE0"/>
</linearGradient>
<linearGradient id="paint8_linear_5174_46537" x1="0" y1="48.0064" x2="51.3153" y2="48.0064" gradientUnits="userSpaceOnUse">
<stop/>
<stop offset="0.0001" stop-color="#2C2840"/>
<stop offset="0.0002" stop-color="#2A2E4A"/>
<stop offset="0.4375" stop-color="#5D5A8F"/>
<stop offset="0.9999" stop-color="#998EE0"/>
</linearGradient>
<linearGradient id="paint9_linear_5174_46537" x1="44.1016" y1="7.00714" x2="52.1537" y2="7.00714" gradientUnits="userSpaceOnUse">
<stop/>
<stop offset="0.0001" stop-color="#2C2840"/>
<stop offset="0.0002" stop-color="#2A2E4A"/>
<stop offset="0.4375" stop-color="#5D5A8F"/>
<stop offset="0.9999" stop-color="#998EE0"/>
</linearGradient>
<clipPath id="clip0_5174_46537">
<rect width="104" height="96" fill="white"/>
</clipPath>
</defs>
</svg>
