<svg width="113" height="96" viewBox="0 0 113 96" fill="none" xmlns="http://www.w3.org/2000/svg">
<path d="M11.3125 14.4824H101.702" stroke="#2A2E4A" stroke-width="2" stroke-linecap="round" stroke-linejoin="round"/>
<path d="M11.3125 14.4824H101.702" stroke="url(#paint0_linear_5174_46601)" stroke-width="2" stroke-linecap="round" stroke-linejoin="round"/>
<path d="M56.5 8.06055L56.5 30.0453" stroke="#2A2E4A" stroke-width="2" stroke-linecap="round" stroke-linejoin="round"/>
<path d="M56.5 8.06055L56.5 30.0453" stroke="url(#paint1_linear_5174_46601)" stroke-width="2" stroke-linecap="round" stroke-linejoin="round"/>
<path d="M56.2031 72.7598L56.2031 93.548" stroke="#2A2E4A" stroke-width="2" stroke-linecap="round" stroke-linejoin="round"/>
<path d="M56.2031 72.7598L56.2031 93.548" stroke="url(#paint2_linear_5174_46601)" stroke-width="2" stroke-linecap="round" stroke-linejoin="round"/>
<path d="M4.71094 46.5998L18.5057 14.4824L32.7082 46.5998" stroke="#2A2E4A" stroke-width="2" stroke-linecap="round" stroke-linejoin="round"/>
<path d="M4.71094 46.5998L18.5057 14.4824L32.7082 46.5998" stroke="url(#paint3_linear_5174_46601)" stroke-width="2" stroke-linecap="round" stroke-linejoin="round"/>
<path d="M18.2521 60.9878C27.7798 60.9878 35.5042 54.5449 35.5042 46.5957H1C1 54.5449 8.72439 60.9878 18.2521 60.9878Z" stroke="#2A2E4A" stroke-width="2" stroke-linecap="round" stroke-linejoin="round"/>
<path d="M18.2521 60.9878C27.7798 60.9878 35.5042 54.5449 35.5042 46.5957H1C1 54.5449 8.72439 60.9878 18.2521 60.9878Z" stroke="url(#paint4_linear_5174_46601)" stroke-width="2" stroke-linecap="round" stroke-linejoin="round"/>
<path d="M81.1953 46.5998L94.9958 14.4824L109.193 46.5998" stroke="#2A2E4A" stroke-width="2" stroke-linecap="round" stroke-linejoin="round"/>
<path d="M81.1953 46.5998L94.9958 14.4824L109.193 46.5998" stroke="url(#paint5_linear_5174_46601)" stroke-width="2" stroke-linecap="round" stroke-linejoin="round"/>
<path d="M94.7443 60.9878C104.272 60.9878 111.996 54.5449 111.996 46.5957H77.4922C77.4922 54.5449 85.2166 60.9878 94.7443 60.9878Z" stroke="#2A2E4A" stroke-width="2" stroke-linecap="round" stroke-linejoin="round"/>
<path d="M94.7443 60.9878C104.272 60.9878 111.996 54.5449 111.996 46.5957H77.4922C77.4922 54.5449 85.2166 60.9878 94.7443 60.9878Z" stroke="url(#paint6_linear_5174_46601)" stroke-width="2" stroke-linecap="round" stroke-linejoin="round"/>
<path d="M56.497 72.6098C68.0804 72.6098 77.4706 63.2457 77.4706 51.6946C77.4706 40.1434 68.0804 30.7793 56.497 30.7793C44.9136 30.7793 35.5234 40.1434 35.5234 51.6946C35.5234 63.2457 44.9136 72.6098 56.497 72.6098Z" stroke="#2A2E4A" stroke-width="2" stroke-linecap="round" stroke-linejoin="round"/>
<path d="M56.497 72.6098C68.0804 72.6098 77.4706 63.2457 77.4706 51.6946C77.4706 40.1434 68.0804 30.7793 56.497 30.7793C44.9136 30.7793 35.5234 40.1434 35.5234 51.6946C35.5234 63.2457 44.9136 72.6098 56.497 72.6098Z" stroke="url(#paint7_linear_5174_46601)" stroke-width="2" stroke-linecap="round" stroke-linejoin="round"/>
<path d="M56.5038 56.0345C58.6892 56.0345 60.4608 54.2678 60.4608 52.0885C60.4608 49.9092 58.6892 48.1426 56.5038 48.1426C54.3185 48.1426 52.5469 49.9092 52.5469 52.0885C52.5469 54.2678 54.3185 56.0345 56.5038 56.0345Z" stroke="#2A2E4A" stroke-width="2" stroke-linecap="round" stroke-linejoin="round"/>
<path d="M56.5038 56.0345C58.6892 56.0345 60.4608 54.2678 60.4608 52.0885C60.4608 49.9092 58.6892 48.1426 56.5038 48.1426C54.3185 48.1426 52.5469 49.9092 52.5469 52.0885C52.5469 54.2678 54.3185 56.0345 56.5038 56.0345Z" stroke="url(#paint8_linear_5174_46601)" stroke-width="2" stroke-linecap="round" stroke-linejoin="round"/>
<path d="M56.5044 8.06916C58.4614 8.06916 60.0478 6.48711 60.0478 4.53556C60.0478 2.584 58.4614 1.00195 56.5044 1.00195C54.5474 1.00195 52.9609 2.584 52.9609 4.53556C52.9609 6.48711 54.5474 8.06916 56.5044 8.06916Z" stroke="#2A2E4A" stroke-width="2" stroke-linecap="round" stroke-linejoin="round"/>
<path d="M56.5044 8.06916C58.4614 8.06916 60.0478 6.48711 60.0478 4.53556C60.0478 2.584 58.4614 1.00195 56.5044 1.00195C54.5474 1.00195 52.9609 2.584 52.9609 4.53556C52.9609 6.48711 54.5474 8.06916 56.5044 8.06916Z" stroke="url(#paint9_linear_5174_46601)" stroke-width="2" stroke-linecap="round" stroke-linejoin="round"/>
<path d="M56.4988 61.2804C61.5895 61.2804 65.7164 57.165 65.7164 52.0884C65.7164 47.0119 61.5895 42.8965 56.4988 42.8965C51.4081 42.8965 47.2812 47.0119 47.2812 52.0884C47.2812 57.165 51.4081 61.2804 56.4988 61.2804Z" stroke="#2A2E4A" stroke-width="2" stroke-linecap="round" stroke-linejoin="round"/>
<path d="M56.4988 61.2804C61.5895 61.2804 65.7164 57.165 65.7164 52.0884C65.7164 47.0119 61.5895 42.8965 56.4988 42.8965C51.4081 42.8965 47.2812 47.0119 47.2812 52.0884C47.2812 57.165 51.4081 61.2804 56.4988 61.2804Z" stroke="url(#paint10_linear_5174_46601)" stroke-width="2" stroke-linecap="round" stroke-linejoin="round"/>
<path d="M29.1016 93.8008H83.0976" stroke="#2A2E4A" stroke-width="2" stroke-linecap="round" stroke-linejoin="round"/>
<path d="M29.1016 93.8008H83.0976" stroke="url(#paint11_linear_5174_46601)" stroke-width="2" stroke-linecap="round" stroke-linejoin="round"/>
<defs>
<linearGradient id="paint0_linear_5174_46601" x1="11.3125" y1="14.9824" x2="101.702" y2="14.9824" gradientUnits="userSpaceOnUse">
<stop/>
<stop offset="0.0001" stop-color="#2C2840"/>
<stop offset="0.0002" stop-color="#2A2E4A"/>
<stop offset="0.4375" stop-color="#5D5A8F"/>
<stop offset="0.9999" stop-color="#998EE0"/>
</linearGradient>
<linearGradient id="paint1_linear_5174_46601" x1="56.5" y1="19.0529" x2="57.5" y2="19.0529" gradientUnits="userSpaceOnUse">
<stop/>
<stop offset="0.0001" stop-color="#2C2840"/>
<stop offset="0.0002" stop-color="#2A2E4A"/>
<stop offset="0.4375" stop-color="#5D5A8F"/>
<stop offset="0.9999" stop-color="#998EE0"/>
</linearGradient>
<linearGradient id="paint2_linear_5174_46601" x1="56.2031" y1="83.1539" x2="57.2031" y2="83.1539" gradientUnits="userSpaceOnUse">
<stop/>
<stop offset="0.0001" stop-color="#2C2840"/>
<stop offset="0.0002" stop-color="#2A2E4A"/>
<stop offset="0.4375" stop-color="#5D5A8F"/>
<stop offset="0.9999" stop-color="#998EE0"/>
</linearGradient>
<linearGradient id="paint3_linear_5174_46601" x1="4.71094" y1="30.5411" x2="32.7082" y2="30.5411" gradientUnits="userSpaceOnUse">
<stop/>
<stop offset="0.0001" stop-color="#2C2840"/>
<stop offset="0.0002" stop-color="#2A2E4A"/>
<stop offset="0.4375" stop-color="#5D5A8F"/>
<stop offset="0.9999" stop-color="#998EE0"/>
</linearGradient>
<linearGradient id="paint4_linear_5174_46601" x1="1" y1="53.7918" x2="35.5042" y2="53.7918" gradientUnits="userSpaceOnUse">
<stop/>
<stop offset="0.0001" stop-color="#2C2840"/>
<stop offset="0.0002" stop-color="#2A2E4A"/>
<stop offset="0.4375" stop-color="#5D5A8F"/>
<stop offset="0.9999" stop-color="#998EE0"/>
</linearGradient>
<linearGradient id="paint5_linear_5174_46601" x1="81.1953" y1="30.5411" x2="109.193" y2="30.5411" gradientUnits="userSpaceOnUse">
<stop/>
<stop offset="0.0001" stop-color="#2C2840"/>
<stop offset="0.0002" stop-color="#2A2E4A"/>
<stop offset="0.4375" stop-color="#5D5A8F"/>
<stop offset="0.9999" stop-color="#998EE0"/>
</linearGradient>
<linearGradient id="paint6_linear_5174_46601" x1="77.4922" y1="53.7918" x2="111.996" y2="53.7918" gradientUnits="userSpaceOnUse">
<stop/>
<stop offset="0.0001" stop-color="#2C2840"/>
<stop offset="0.0002" stop-color="#2A2E4A"/>
<stop offset="0.4375" stop-color="#5D5A8F"/>
<stop offset="0.9999" stop-color="#998EE0"/>
</linearGradient>
<linearGradient id="paint7_linear_5174_46601" x1="35.5234" y1="51.6946" x2="77.4706" y2="51.6946" gradientUnits="userSpaceOnUse">
<stop/>
<stop offset="0.0001" stop-color="#2C2840"/>
<stop offset="0.0002" stop-color="#2A2E4A"/>
<stop offset="0.4375" stop-color="#5D5A8F"/>
<stop offset="0.9999" stop-color="#998EE0"/>
</linearGradient>
<linearGradient id="paint8_linear_5174_46601" x1="52.5469" y1="52.0885" x2="60.4608" y2="52.0885" gradientUnits="userSpaceOnUse">
<stop/>
<stop offset="0.0001" stop-color="#2C2840"/>
<stop offset="0.0002" stop-color="#2A2E4A"/>
<stop offset="0.4375" stop-color="#5D5A8F"/>
<stop offset="0.9999" stop-color="#998EE0"/>
</linearGradient>
<linearGradient id="paint9_linear_5174_46601" x1="52.9609" y1="4.53556" x2="60.0478" y2="4.53556" gradientUnits="userSpaceOnUse">
<stop/>
<stop offset="0.0001" stop-color="#2C2840"/>
<stop offset="0.0002" stop-color="#2A2E4A"/>
<stop offset="0.4375" stop-color="#5D5A8F"/>
<stop offset="0.9999" stop-color="#998EE0"/>
</linearGradient>
<linearGradient id="paint10_linear_5174_46601" x1="47.2812" y1="52.0884" x2="65.7164" y2="52.0884" gradientUnits="userSpaceOnUse">
<stop/>
<stop offset="0.0001" stop-color="#2C2840"/>
<stop offset="0.0002" stop-color="#2A2E4A"/>
<stop offset="0.4375" stop-color="#5D5A8F"/>
<stop offset="0.9999" stop-color="#998EE0"/>
</linearGradient>
<linearGradient id="paint11_linear_5174_46601" x1="29.1016" y1="94.3008" x2="83.0976" y2="94.3008" gradientUnits="userSpaceOnUse">
<stop/>
<stop offset="0.0001" stop-color="#2C2840"/>
<stop offset="0.0002" stop-color="#2A2E4A"/>
<stop offset="0.4375" stop-color="#5D5A8F"/>
<stop offset="0.9999" stop-color="#998EE0"/>
</linearGradient>
</defs>
</svg>
