<svg width="92" height="92" viewBox="0 0 92 92" fill="none" xmlns="http://www.w3.org/2000/svg">
<g clip-path="url(#clip0_5174_46556)">
<path d="M84.9372 38.4732C84.5011 38.0371 83.7902 38.0371 83.3481 38.4732C81.317 40.5044 77.9954 40.5044 75.9583 38.4732C73.9211 36.436 73.9211 33.1205 75.9583 31.0833C76.3944 30.6472 76.3944 29.9363 75.9583 29.4942L63.2276 16.7636C64.1715 15.4911 64.6733 13.9558 64.6733 12.3368C64.6733 10.3355 63.9027 8.45968 62.4928 7.05578C59.9479 4.51682 55.6227 4.2241 52.785 6.32098L46.7931 0.329031C46.357 -0.107073 45.646 -0.107073 45.204 0.329031L38.4712 7.06176C38.0351 7.49786 38.0351 8.20877 38.4712 8.65085C40.5084 10.688 40.5084 14.0036 38.4712 16.0407C36.4401 18.0779 33.1185 18.0779 31.0814 16.0407C30.6453 15.6046 29.9344 15.6046 29.4923 16.0407L16.7616 28.7714C13.8463 26.6267 9.70033 26.8657 7.05383 29.5062C4.41331 32.1467 4.16838 36.2927 6.31903 39.214L0.327078 45.2059C-0.109026 45.642 -0.109026 46.3529 0.327078 46.795L7.05981 53.5277C7.49591 53.9638 8.20682 53.9638 8.6489 53.5277C10.6801 51.4966 14.0016 51.4966 16.0388 53.5277C18.0759 55.5649 18.0759 58.8805 16.0388 60.9176C15.6027 61.3537 15.6027 62.0646 16.0388 62.5067L28.7694 75.2373C27.8255 76.5098 27.3237 78.0451 27.3237 79.6641C27.3237 81.6654 28.0944 83.5412 29.5042 84.9451C32.0432 87.4901 36.3744 87.7828 39.212 85.6799L45.2099 91.6779C45.431 91.8989 45.7118 92.0064 46.0045 92.0064C46.2972 92.0064 46.578 91.8989 46.799 91.6779L53.5318 84.9451C53.9679 84.509 53.9679 83.7981 53.5318 83.356C51.4946 81.3189 51.4946 78.0033 53.5318 75.9662C55.5629 73.935 58.8845 73.935 60.9216 75.9662C61.3577 76.4023 62.0686 76.4023 62.5107 75.9662L75.2414 63.2355C78.1567 65.3921 82.3086 65.1472 84.9492 62.5007C87.5897 59.8602 87.8346 55.7142 85.684 52.7929L91.6819 46.795C92.118 46.3589 92.118 45.648 91.6819 45.2059L84.9492 38.4732H84.9372ZM30.3525 18.3586C33.1902 20.4555 37.5154 20.1628 40.0603 17.6238C42.7008 14.9833 42.9458 10.8373 40.7951 7.91604L46.0045 2.71267L51.9427 8.65085C52.3788 9.08695 53.0897 9.08695 53.5318 8.65085C55.5629 6.61371 58.8845 6.61371 60.9216 8.65085C61.9014 9.63059 62.445 10.9449 62.445 12.3428C62.445 13.7407 61.9073 15.055 60.9216 16.0347C60.4855 16.4708 60.4855 17.1818 60.9216 17.6238L66.8598 23.562L61.6564 28.7654C58.7471 26.6207 54.5892 26.8597 51.9486 29.5002C49.3081 32.1407 49.0632 36.2867 51.2138 39.208L46.0045 44.4173L40.0663 38.4792C39.6302 38.0431 38.9193 38.0431 38.4772 38.4792C36.446 40.5103 33.1245 40.5103 31.0873 38.4792C29.0502 36.448 29.0502 33.1264 31.0873 31.0893C31.5234 30.6532 31.5234 29.9423 31.0873 29.5002L25.1492 23.562L30.3585 18.3586H30.3525ZM18.3507 61.6464C20.5073 58.7251 20.2624 54.5792 17.6159 51.9386C14.9754 49.2921 10.8234 49.0532 7.90812 51.2038L2.69877 45.9945L8.63695 40.0563C9.07305 39.6202 9.07305 38.9093 8.63695 38.4672C6.59981 36.4301 6.59981 33.1145 8.63695 31.0773C10.6681 29.0402 13.9897 29.0402 16.0268 31.0773C16.4629 31.5134 17.1738 31.5134 17.6159 31.0773L23.5541 25.1392L28.7634 30.3425C26.6068 33.2638 26.8518 37.4098 29.4983 40.0503C32.1447 42.6908 36.2907 42.9358 39.206 40.7851L44.4154 45.9945L38.4772 51.9327C38.0411 52.3688 38.0411 53.0797 38.4772 53.5218C40.5144 55.5589 40.5144 58.8745 38.4772 60.9116C36.4401 62.9488 33.1245 62.9428 31.0873 60.9116C30.6512 60.4755 29.9403 60.4755 29.4983 60.9116L23.5601 66.8498L18.3507 61.6405V61.6464ZM61.6445 73.6482C58.8009 71.5454 54.4816 71.8321 51.9367 74.3831C49.2962 77.0236 49.0512 81.1695 51.2019 84.0908L45.9925 89.3002L40.0544 83.362C39.6183 82.9259 38.9073 82.9259 38.4653 83.362C36.4341 85.3932 33.1125 85.3932 31.0754 83.362C30.0957 82.3823 29.552 81.068 29.552 79.6701C29.552 78.2721 30.0897 76.9579 31.0754 75.9781C31.5115 75.542 31.5115 74.8311 31.0754 74.389L25.1372 68.4508L30.3466 63.2415C33.2679 65.3981 37.4138 65.1532 40.0544 62.5067C42.6949 59.8662 42.9398 55.7202 40.7892 52.7989L45.9985 47.5896L51.9367 53.5277C52.3728 53.9638 53.0837 53.9638 53.5258 53.5277C55.557 51.4966 58.8785 51.4966 60.9157 53.5277C62.9528 55.5649 62.9528 58.8805 60.9157 60.9176C60.4796 61.3537 60.4796 62.0646 60.9157 62.5067L66.8538 68.4449L61.6445 73.6542V73.6482ZM83.3541 51.9386C82.918 52.3747 82.918 53.0857 83.3541 53.5277C85.3912 55.5649 85.3912 58.8805 83.3541 60.9176C81.3229 62.9488 78.0014 62.9488 75.9642 60.9176C75.5281 60.4815 74.8172 60.4815 74.3751 60.9176L68.437 66.8558L63.2276 61.6464C65.3842 58.7251 65.1393 54.5792 62.4928 51.9386C59.8523 49.2921 55.7063 49.0532 52.785 51.2038L47.5757 45.9945L53.5138 40.0563C53.9499 39.6202 53.9499 38.9093 53.5138 38.4672C51.4767 36.4301 51.4767 33.1145 53.5138 31.0773C55.545 29.0402 58.8666 29.0402 60.9037 31.0773C61.3398 31.5134 62.0507 31.5134 62.4928 31.0773L68.431 25.1392L73.6403 30.3425C71.4837 33.2638 71.7286 37.4098 74.3751 40.0503C77.0157 42.6908 81.1616 42.9358 84.0829 40.7851L89.2923 45.9945L83.3541 51.9327V51.9386Z" fill="#2A2E4A"/>
<path d="M84.9372 38.4732C84.5011 38.0371 83.7902 38.0371 83.3481 38.4732C81.317 40.5044 77.9954 40.5044 75.9583 38.4732C73.9211 36.436 73.9211 33.1205 75.9583 31.0833C76.3944 30.6472 76.3944 29.9363 75.9583 29.4942L63.2276 16.7636C64.1715 15.4911 64.6733 13.9558 64.6733 12.3368C64.6733 10.3355 63.9027 8.45968 62.4928 7.05578C59.9479 4.51682 55.6227 4.2241 52.785 6.32098L46.7931 0.329031C46.357 -0.107073 45.646 -0.107073 45.204 0.329031L38.4712 7.06176C38.0351 7.49786 38.0351 8.20877 38.4712 8.65085C40.5084 10.688 40.5084 14.0036 38.4712 16.0407C36.4401 18.0779 33.1185 18.0779 31.0814 16.0407C30.6453 15.6046 29.9344 15.6046 29.4923 16.0407L16.7616 28.7714C13.8463 26.6267 9.70033 26.8657 7.05383 29.5062C4.41331 32.1467 4.16838 36.2927 6.31903 39.214L0.327078 45.2059C-0.109026 45.642 -0.109026 46.3529 0.327078 46.795L7.05981 53.5277C7.49591 53.9638 8.20682 53.9638 8.6489 53.5277C10.6801 51.4966 14.0016 51.4966 16.0388 53.5277C18.0759 55.5649 18.0759 58.8805 16.0388 60.9176C15.6027 61.3537 15.6027 62.0646 16.0388 62.5067L28.7694 75.2373C27.8255 76.5098 27.3237 78.0451 27.3237 79.6641C27.3237 81.6654 28.0944 83.5412 29.5042 84.9451C32.0432 87.4901 36.3744 87.7828 39.212 85.6799L45.2099 91.6779C45.431 91.8989 45.7118 92.0064 46.0045 92.0064C46.2972 92.0064 46.578 91.8989 46.799 91.6779L53.5318 84.9451C53.9679 84.509 53.9679 83.7981 53.5318 83.356C51.4946 81.3189 51.4946 78.0033 53.5318 75.9662C55.5629 73.935 58.8845 73.935 60.9216 75.9662C61.3577 76.4023 62.0686 76.4023 62.5107 75.9662L75.2414 63.2355C78.1567 65.3921 82.3086 65.1472 84.9492 62.5007C87.5897 59.8602 87.8346 55.7142 85.684 52.7929L91.6819 46.795C92.118 46.3589 92.118 45.648 91.6819 45.2059L84.9492 38.4732H84.9372ZM30.3525 18.3586C33.1902 20.4555 37.5154 20.1628 40.0603 17.6238C42.7008 14.9833 42.9458 10.8373 40.7951 7.91604L46.0045 2.71267L51.9427 8.65085C52.3788 9.08695 53.0897 9.08695 53.5318 8.65085C55.5629 6.61371 58.8845 6.61371 60.9216 8.65085C61.9014 9.63059 62.445 10.9449 62.445 12.3428C62.445 13.7407 61.9073 15.055 60.9216 16.0347C60.4855 16.4708 60.4855 17.1818 60.9216 17.6238L66.8598 23.562L61.6564 28.7654C58.7471 26.6207 54.5892 26.8597 51.9486 29.5002C49.3081 32.1407 49.0632 36.2867 51.2138 39.208L46.0045 44.4173L40.0663 38.4792C39.6302 38.0431 38.9193 38.0431 38.4772 38.4792C36.446 40.5103 33.1245 40.5103 31.0873 38.4792C29.0502 36.448 29.0502 33.1264 31.0873 31.0893C31.5234 30.6532 31.5234 29.9423 31.0873 29.5002L25.1492 23.562L30.3585 18.3586H30.3525ZM18.3507 61.6464C20.5073 58.7251 20.2624 54.5792 17.6159 51.9386C14.9754 49.2921 10.8234 49.0532 7.90812 51.2038L2.69877 45.9945L8.63695 40.0563C9.07305 39.6202 9.07305 38.9093 8.63695 38.4672C6.59981 36.4301 6.59981 33.1145 8.63695 31.0773C10.6681 29.0402 13.9897 29.0402 16.0268 31.0773C16.4629 31.5134 17.1738 31.5134 17.6159 31.0773L23.5541 25.1392L28.7634 30.3425C26.6068 33.2638 26.8518 37.4098 29.4983 40.0503C32.1447 42.6908 36.2907 42.9358 39.206 40.7851L44.4154 45.9945L38.4772 51.9327C38.0411 52.3688 38.0411 53.0797 38.4772 53.5218C40.5144 55.5589 40.5144 58.8745 38.4772 60.9116C36.4401 62.9488 33.1245 62.9428 31.0873 60.9116C30.6512 60.4755 29.9403 60.4755 29.4983 60.9116L23.5601 66.8498L18.3507 61.6405V61.6464ZM61.6445 73.6482C58.8009 71.5454 54.4816 71.8321 51.9367 74.3831C49.2962 77.0236 49.0512 81.1695 51.2019 84.0908L45.9925 89.3002L40.0544 83.362C39.6183 82.9259 38.9073 82.9259 38.4653 83.362C36.4341 85.3932 33.1125 85.3932 31.0754 83.362C30.0957 82.3823 29.552 81.068 29.552 79.6701C29.552 78.2721 30.0897 76.9579 31.0754 75.9781C31.5115 75.542 31.5115 74.8311 31.0754 74.389L25.1372 68.4508L30.3466 63.2415C33.2679 65.3981 37.4138 65.1532 40.0544 62.5067C42.6949 59.8662 42.9398 55.7202 40.7892 52.7989L45.9985 47.5896L51.9367 53.5277C52.3728 53.9638 53.0837 53.9638 53.5258 53.5277C55.557 51.4966 58.8785 51.4966 60.9157 53.5277C62.9528 55.5649 62.9528 58.8805 60.9157 60.9176C60.4796 61.3537 60.4796 62.0646 60.9157 62.5067L66.8538 68.4449L61.6445 73.6542V73.6482ZM83.3541 51.9386C82.918 52.3747 82.918 53.0857 83.3541 53.5277C85.3912 55.5649 85.3912 58.8805 83.3541 60.9176C81.3229 62.9488 78.0014 62.9488 75.9642 60.9176C75.5281 60.4815 74.8172 60.4815 74.3751 60.9176L68.437 66.8558L63.2276 61.6464C65.3842 58.7251 65.1393 54.5792 62.4928 51.9386C59.8523 49.2921 55.7063 49.0532 52.785 51.2038L47.5757 45.9945L53.5138 40.0563C53.9499 39.6202 53.9499 38.9093 53.5138 38.4672C51.4767 36.4301 51.4767 33.1145 53.5138 31.0773C55.545 29.0402 58.8666 29.0402 60.9037 31.0773C61.3398 31.5134 62.0507 31.5134 62.4928 31.0773L68.431 25.1392L73.6403 30.3425C71.4837 33.2638 71.7286 37.4098 74.3751 40.0503C77.0157 42.6908 81.1616 42.9358 84.0829 40.7851L89.2923 45.9945L83.3541 51.9327V51.9386Z" fill="url(#paint0_linear_5174_46556)"/>
</g>
<defs>
<linearGradient id="paint0_linear_5174_46556" x1="0" y1="46.0042" x2="92.009" y2="46.0042" gradientUnits="userSpaceOnUse">
<stop/>
<stop offset="0.0001" stop-color="#2C2840"/>
<stop offset="0.0002" stop-color="#2A2E4A"/>
<stop offset="0.4375" stop-color="#5D5A8F"/>
<stop offset="0.9999" stop-color="#998EE0"/>
</linearGradient>
<clipPath id="clip0_5174_46556">
<rect width="92" height="92" fill="white"/>
</clipPath>
</defs>
</svg>
