<svg width="93" height="94" viewBox="0 0 93 94" fill="none" xmlns="http://www.w3.org/2000/svg">
<path d="M83.321 1H9.67898C4.88571 1 1 4.92841 1 9.77436V84.2256C1 89.0716 4.88571 93 9.67898 93H83.321C88.1143 93 92 89.0716 92 84.2256V9.77436C92 4.92841 88.1143 1 83.321 1Z" stroke="#2A2E4A" stroke-width="2" stroke-miterlimit="10"/>
<path d="M83.321 1H9.67898C4.88571 1 1 4.92841 1 9.77436V84.2256C1 89.0716 4.88571 93 9.67898 93H83.321C88.1143 93 92 89.0716 92 84.2256V9.77436C92 4.92841 88.1143 1 83.321 1Z" stroke="url(#paint0_linear_5174_46600)" stroke-width="2" stroke-miterlimit="10"/>
<path d="M1.40625 19.7773H91.2334" stroke="#2A2E4A" stroke-width="2" stroke-miterlimit="10"/>
<path d="M1.40625 19.7773H91.2334" stroke="url(#paint1_linear_5174_46600)" stroke-width="2" stroke-miterlimit="10"/>
<path d="M9.82812 12.3412C11.0406 12.3412 12.0234 11.3475 12.0234 10.1218C12.0234 8.89602 11.0406 7.90234 9.82812 7.90234C8.61568 7.90234 7.63281 8.89602 7.63281 10.1218C7.63281 11.3475 8.61568 12.3412 9.82812 12.3412Z" stroke="#2A2E4A" stroke-width="2" stroke-miterlimit="10"/>
<path d="M9.82812 12.3412C11.0406 12.3412 12.0234 11.3475 12.0234 10.1218C12.0234 8.89602 11.0406 7.90234 9.82812 7.90234C8.61568 7.90234 7.63281 8.89602 7.63281 10.1218C7.63281 11.3475 8.61568 12.3412 9.82812 12.3412Z" stroke="url(#paint2_linear_5174_46600)" stroke-width="2" stroke-miterlimit="10"/>
<path d="M19.5391 12.3412C20.7515 12.3412 21.7344 11.3475 21.7344 10.1218C21.7344 8.89602 20.7515 7.90234 19.5391 7.90234C18.3266 7.90234 17.3438 8.89602 17.3438 10.1218C17.3438 11.3475 18.3266 12.3412 19.5391 12.3412Z" stroke="#2A2E4A" stroke-width="2" stroke-miterlimit="10"/>
<path d="M19.5391 12.3412C20.7515 12.3412 21.7344 11.3475 21.7344 10.1218C21.7344 8.89602 20.7515 7.90234 19.5391 7.90234C18.3266 7.90234 17.3438 8.89602 17.3438 10.1218C17.3438 11.3475 18.3266 12.3412 19.5391 12.3412Z" stroke="url(#paint3_linear_5174_46600)" stroke-width="2" stroke-miterlimit="10"/>
<path d="M29.25 12.3412C30.4624 12.3412 31.4453 11.3475 31.4453 10.1218C31.4453 8.89602 30.4624 7.90234 29.25 7.90234C28.0376 7.90234 27.0547 8.89602 27.0547 10.1218C27.0547 11.3475 28.0376 12.3412 29.25 12.3412Z" stroke="#2A2E4A" stroke-width="2" stroke-miterlimit="10"/>
<path d="M29.25 12.3412C30.4624 12.3412 31.4453 11.3475 31.4453 10.1218C31.4453 8.89602 30.4624 7.90234 29.25 7.90234C28.0376 7.90234 27.0547 8.89602 27.0547 10.1218C27.0547 11.3475 28.0376 12.3412 29.25 12.3412Z" stroke="url(#paint4_linear_5174_46600)" stroke-width="2" stroke-miterlimit="10"/>
<path d="M51.1172 10.1699H84.3415" stroke="#2A2E4A" stroke-width="2" stroke-linecap="round" stroke-linejoin="round"/>
<path d="M51.1172 10.1699H84.3415" stroke="url(#paint5_linear_5174_46600)" stroke-width="2" stroke-linecap="round" stroke-linejoin="round"/>
<path d="M51.5499 43.5221C51.2612 43.5221 50.9665 43.4492 50.6958 43.3032L47.3577 41.5277C47.2194 41.4547 47.069 41.4547 46.9427 41.5277L43.6047 43.3032C42.9852 43.6316 42.2454 43.5829 41.68 43.1695C41.1086 42.756 40.8259 42.0567 40.9402 41.3574L41.5778 37.5935C41.6078 37.4415 41.5597 37.2956 41.4515 37.1861L38.7509 34.5228C38.2517 34.0363 38.0713 33.3188 38.2818 32.6439C38.4983 31.9629 39.0637 31.4764 39.7674 31.373L43.4964 30.8136C43.6528 30.7954 43.7671 30.7102 43.8332 30.5704L45.5053 27.1531C45.806 26.5207 46.4315 26.1194 47.1292 26.1133H47.1412C47.8389 26.1133 48.4704 26.5085 48.7892 27.147L50.4612 30.5582C50.5274 30.7042 50.6417 30.7893 50.774 30.8014L54.5331 31.3669C55.2248 31.4703 55.7901 31.9568 56.0066 32.6317C56.2171 33.3067 56.0367 34.0242 55.5315 34.5167L52.843 37.18C52.843 37.18 52.843 37.18 52.837 37.1861C52.6926 37.3199 52.6986 37.5023 52.7107 37.5996L53.3422 41.3453C53.4625 42.0385 53.1858 42.7377 52.6144 43.1573C52.2957 43.3944 51.9228 43.5161 51.5439 43.5161L51.5499 43.5221ZM47.1472 27.5179C47.063 27.5179 46.8645 27.5422 46.7563 27.7733L45.0842 31.1906C44.8196 31.75 44.2903 32.1331 43.6828 32.2061L39.9779 32.7594C39.7193 32.7959 39.6351 32.9905 39.611 33.0756C39.5869 33.1547 39.5448 33.3553 39.7193 33.5195L42.4318 36.195C42.8649 36.6328 43.0573 37.2469 42.9491 37.8428L42.3175 41.5885C42.2754 41.85 42.4499 41.9959 42.504 42.0385C42.5702 42.0871 42.7566 42.1905 42.9731 42.0689L46.2992 40.2933C46.8345 40.0015 47.478 40.0015 48.0193 40.2933L51.3574 42.0628C51.5739 42.1783 51.7544 42.0749 51.8205 42.0263C51.8867 41.9777 52.0431 41.8317 52.001 41.5885L51.3634 37.8246C51.2732 37.1922 51.4657 36.6024 51.8987 36.1828L54.5932 33.5195C54.7737 33.3432 54.7376 33.1425 54.7075 33.0634C54.6834 32.9844 54.5992 32.7898 54.3526 32.7533L50.6236 32.1939C50.0402 32.127 49.517 31.7439 49.2463 31.1724L47.5743 27.7733C47.46 27.5361 47.2495 27.5118 47.1653 27.5118L47.1472 27.5179Z" fill="#2A2E4A"/>
<path d="M51.5499 43.5221C51.2612 43.5221 50.9665 43.4492 50.6958 43.3032L47.3577 41.5277C47.2194 41.4547 47.069 41.4547 46.9427 41.5277L43.6047 43.3032C42.9852 43.6316 42.2454 43.5829 41.68 43.1695C41.1086 42.756 40.8259 42.0567 40.9402 41.3574L41.5778 37.5935C41.6078 37.4415 41.5597 37.2956 41.4515 37.1861L38.7509 34.5228C38.2517 34.0363 38.0713 33.3188 38.2818 32.6439C38.4983 31.9629 39.0637 31.4764 39.7674 31.373L43.4964 30.8136C43.6528 30.7954 43.7671 30.7102 43.8332 30.5704L45.5053 27.1531C45.806 26.5207 46.4315 26.1194 47.1292 26.1133H47.1412C47.8389 26.1133 48.4704 26.5085 48.7892 27.147L50.4612 30.5582C50.5274 30.7042 50.6417 30.7893 50.774 30.8014L54.5331 31.3669C55.2248 31.4703 55.7901 31.9568 56.0066 32.6317C56.2171 33.3067 56.0367 34.0242 55.5315 34.5167L52.843 37.18C52.843 37.18 52.843 37.18 52.837 37.1861C52.6926 37.3199 52.6986 37.5023 52.7107 37.5996L53.3422 41.3453C53.4625 42.0385 53.1858 42.7377 52.6144 43.1573C52.2957 43.3944 51.9228 43.5161 51.5439 43.5161L51.5499 43.5221ZM47.1472 27.5179C47.063 27.5179 46.8645 27.5422 46.7563 27.7733L45.0842 31.1906C44.8196 31.75 44.2903 32.1331 43.6828 32.2061L39.9779 32.7594C39.7193 32.7959 39.6351 32.9905 39.611 33.0756C39.5869 33.1547 39.5448 33.3553 39.7193 33.5195L42.4318 36.195C42.8649 36.6328 43.0573 37.2469 42.9491 37.8428L42.3175 41.5885C42.2754 41.85 42.4499 41.9959 42.504 42.0385C42.5702 42.0871 42.7566 42.1905 42.9731 42.0689L46.2992 40.2933C46.8345 40.0015 47.478 40.0015 48.0193 40.2933L51.3574 42.0628C51.5739 42.1783 51.7544 42.0749 51.8205 42.0263C51.8867 41.9777 52.0431 41.8317 52.001 41.5885L51.3634 37.8246C51.2732 37.1922 51.4657 36.6024 51.8987 36.1828L54.5932 33.5195C54.7737 33.3432 54.7376 33.1425 54.7075 33.0634C54.6834 32.9844 54.5992 32.7898 54.3526 32.7533L50.6236 32.1939C50.0402 32.127 49.517 31.7439 49.2463 31.1724L47.5743 27.7733C47.46 27.5361 47.2495 27.5118 47.1653 27.5118L47.1472 27.5179Z" fill="url(#paint6_linear_5174_46600)"/>
<path d="M52.3618 36.6936H52.3739M51.5499 43.5221C51.2612 43.5221 50.9665 43.4492 50.6958 43.3032L47.3577 41.5277C47.2194 41.4547 47.069 41.4547 46.9427 41.5277L43.6047 43.3032C42.9852 43.6316 42.2454 43.5829 41.68 43.1695C41.1086 42.756 40.8259 42.0567 40.9402 41.3574L41.5778 37.5935C41.6078 37.4415 41.5597 37.2956 41.4515 37.1861L38.7509 34.5228C38.2517 34.0363 38.0713 33.3188 38.2818 32.6439C38.4983 31.9629 39.0637 31.4764 39.7674 31.373L43.4964 30.8136C43.6528 30.7954 43.7671 30.7102 43.8332 30.5704L45.5053 27.1531C45.806 26.5207 46.4315 26.1194 47.1292 26.1133H47.1412C47.8389 26.1133 48.4704 26.5085 48.7892 27.147L50.4612 30.5582C50.5274 30.7042 50.6417 30.7893 50.774 30.8014L54.5331 31.3669C55.2248 31.4703 55.7901 31.9568 56.0066 32.6317C56.2171 33.3067 56.0367 34.0242 55.5315 34.5167L52.843 37.18C52.843 37.18 52.843 37.18 52.837 37.1861C52.6926 37.3199 52.6986 37.5023 52.7107 37.5996L53.3422 41.3453C53.4625 42.0385 53.1858 42.7377 52.6144 43.1573C52.2957 43.3944 51.9228 43.5161 51.5439 43.5161L51.5499 43.5221ZM47.1472 27.5179C47.063 27.5179 46.8645 27.5422 46.7563 27.7733L45.0842 31.1906C44.8196 31.75 44.2903 32.1331 43.6828 32.2061L39.9779 32.7594C39.7193 32.7959 39.6351 32.9905 39.611 33.0756C39.5869 33.1547 39.5448 33.3553 39.7193 33.5195L42.4318 36.195C42.8649 36.6328 43.0573 37.2469 42.9491 37.8428L42.3175 41.5885C42.2754 41.85 42.4499 41.9959 42.504 42.0385C42.5702 42.0871 42.7566 42.1905 42.9731 42.0689L46.2992 40.2933C46.8345 40.0015 47.478 40.0015 48.0193 40.2933L51.3574 42.0628C51.5739 42.1783 51.7544 42.0749 51.8205 42.0263C51.8867 41.9777 52.0431 41.8317 52.001 41.5885L51.3634 37.8246C51.2732 37.1922 51.4657 36.6024 51.8987 36.1828L54.5932 33.5195C54.7737 33.3432 54.7376 33.1425 54.7075 33.0634C54.6834 32.9844 54.5992 32.7898 54.3526 32.7533L50.6236 32.1939C50.0402 32.127 49.517 31.7439 49.2463 31.1724L47.5743 27.7733C47.46 27.5361 47.2495 27.5118 47.1653 27.5118L47.1472 27.5179Z" stroke="#2A2E4A" stroke-width="0.5" stroke-miterlimit="10"/>
<path d="M52.3618 36.6936H52.3739M51.5499 43.5221C51.2612 43.5221 50.9665 43.4492 50.6958 43.3032L47.3577 41.5277C47.2194 41.4547 47.069 41.4547 46.9427 41.5277L43.6047 43.3032C42.9852 43.6316 42.2454 43.5829 41.68 43.1695C41.1086 42.756 40.8259 42.0567 40.9402 41.3574L41.5778 37.5935C41.6078 37.4415 41.5597 37.2956 41.4515 37.1861L38.7509 34.5228C38.2517 34.0363 38.0713 33.3188 38.2818 32.6439C38.4983 31.9629 39.0637 31.4764 39.7674 31.373L43.4964 30.8136C43.6528 30.7954 43.7671 30.7102 43.8332 30.5704L45.5053 27.1531C45.806 26.5207 46.4315 26.1194 47.1292 26.1133H47.1412C47.8389 26.1133 48.4704 26.5085 48.7892 27.147L50.4612 30.5582C50.5274 30.7042 50.6417 30.7893 50.774 30.8014L54.5331 31.3669C55.2248 31.4703 55.7901 31.9568 56.0066 32.6317C56.2171 33.3067 56.0367 34.0242 55.5315 34.5167L52.843 37.18C52.843 37.18 52.843 37.18 52.837 37.1861C52.6926 37.3199 52.6986 37.5023 52.7107 37.5996L53.3422 41.3453C53.4625 42.0385 53.1858 42.7377 52.6144 43.1573C52.2957 43.3944 51.9228 43.5161 51.5439 43.5161L51.5499 43.5221ZM47.1472 27.5179C47.063 27.5179 46.8645 27.5422 46.7563 27.7733L45.0842 31.1906C44.8196 31.75 44.2903 32.1331 43.6828 32.2061L39.9779 32.7594C39.7193 32.7959 39.6351 32.9905 39.611 33.0756C39.5869 33.1547 39.5448 33.3553 39.7193 33.5195L42.4318 36.195C42.8649 36.6328 43.0573 37.2469 42.9491 37.8428L42.3175 41.5885C42.2754 41.85 42.4499 41.9959 42.504 42.0385C42.5702 42.0871 42.7566 42.1905 42.9731 42.0689L46.2992 40.2933C46.8345 40.0015 47.478 40.0015 48.0193 40.2933L51.3574 42.0628C51.5739 42.1783 51.7544 42.0749 51.8205 42.0263C51.8867 41.9777 52.0431 41.8317 52.001 41.5885L51.3634 37.8246C51.2732 37.1922 51.4657 36.6024 51.8987 36.1828L54.5932 33.5195C54.7737 33.3432 54.7376 33.1425 54.7075 33.0634C54.6834 32.9844 54.5992 32.7898 54.3526 32.7533L50.6236 32.1939C50.0402 32.127 49.517 31.7439 49.2463 31.1724L47.5743 27.7733C47.46 27.5361 47.2495 27.5118 47.1653 27.5118L47.1472 27.5179Z" stroke="url(#paint7_linear_5174_46600)" stroke-width="0.5" stroke-miterlimit="10"/>
<path d="M55.143 48.6543H39.427C38.0219 48.6543 36.8828 49.8059 36.8828 51.2264V81.8667C36.8828 83.2873 38.0219 84.4388 39.427 84.4388H55.143C56.5481 84.4388 57.6871 83.2873 57.6871 81.8667V51.2264C57.6871 49.8059 56.5481 48.6543 55.143 48.6543Z" stroke="#2A2E4A" stroke-width="2" stroke-miterlimit="10"/>
<path d="M55.143 48.6543H39.427C38.0219 48.6543 36.8828 49.8059 36.8828 51.2264V81.8667C36.8828 83.2873 38.0219 84.4388 39.427 84.4388H55.143C56.5481 84.4388 57.6871 83.2873 57.6871 81.8667V51.2264C57.6871 49.8059 56.5481 48.6543 55.143 48.6543Z" stroke="url(#paint8_linear_5174_46600)" stroke-width="2" stroke-miterlimit="10"/>
<path d="M75.9476 57.5859H60.2317C58.8266 57.5859 57.6875 58.7375 57.6875 60.158V81.8598C57.6875 83.2804 58.8266 84.4319 60.2317 84.4319H75.9476C77.3527 84.4319 78.4918 83.2804 78.4918 81.8598V60.158C78.4918 58.7375 77.3527 57.5859 75.9476 57.5859Z" stroke="#2A2E4A" stroke-width="2" stroke-miterlimit="10"/>
<path d="M75.9476 57.5859H60.2317C58.8266 57.5859 57.6875 58.7375 57.6875 60.158V81.8598C57.6875 83.2804 58.8266 84.4319 60.2317 84.4319H75.9476C77.3527 84.4319 78.4918 83.2804 78.4918 81.8598V60.158C78.4918 58.7375 77.3527 57.5859 75.9476 57.5859Z" stroke="url(#paint9_linear_5174_46600)" stroke-width="2" stroke-miterlimit="10"/>
<path d="M33.932 64.6328H18.216C16.8109 64.6328 15.6719 65.7844 15.6719 67.2049V81.8592C15.6719 83.2798 16.8109 84.4314 18.216 84.4314H33.932C35.3371 84.4314 36.4762 83.2798 36.4762 81.8592V67.2049C36.4762 65.7844 35.3371 64.6328 33.932 64.6328Z" stroke="#2A2E4A" stroke-width="2" stroke-miterlimit="10"/>
<path d="M33.932 64.6328H18.216C16.8109 64.6328 15.6719 65.7844 15.6719 67.2049V81.8592C15.6719 83.2798 16.8109 84.4314 18.216 84.4314H33.932C35.3371 84.4314 36.4762 83.2798 36.4762 81.8592V67.2049C36.4762 65.7844 35.3371 64.6328 33.932 64.6328Z" stroke="url(#paint10_linear_5174_46600)" stroke-width="2" stroke-miterlimit="10"/>
<defs>
<linearGradient id="paint0_linear_5174_46600" x1="1" y1="47" x2="92" y2="47" gradientUnits="userSpaceOnUse">
<stop/>
<stop offset="0.0001" stop-color="#2C2840"/>
<stop offset="0.0002" stop-color="#2A2E4A"/>
<stop offset="0.4375" stop-color="#5D5A8F"/>
<stop offset="0.9999" stop-color="#998EE0"/>
</linearGradient>
<linearGradient id="paint1_linear_5174_46600" x1="1.40625" y1="20.2773" x2="91.2334" y2="20.2773" gradientUnits="userSpaceOnUse">
<stop/>
<stop offset="0.0001" stop-color="#2C2840"/>
<stop offset="0.0002" stop-color="#2A2E4A"/>
<stop offset="0.4375" stop-color="#5D5A8F"/>
<stop offset="0.9999" stop-color="#998EE0"/>
</linearGradient>
<linearGradient id="paint2_linear_5174_46600" x1="7.63281" y1="10.1218" x2="12.0234" y2="10.1218" gradientUnits="userSpaceOnUse">
<stop/>
<stop offset="0.0001" stop-color="#2C2840"/>
<stop offset="0.0002" stop-color="#2A2E4A"/>
<stop offset="0.4375" stop-color="#5D5A8F"/>
<stop offset="0.9999" stop-color="#998EE0"/>
</linearGradient>
<linearGradient id="paint3_linear_5174_46600" x1="17.3438" y1="10.1218" x2="21.7344" y2="10.1218" gradientUnits="userSpaceOnUse">
<stop/>
<stop offset="0.0001" stop-color="#2C2840"/>
<stop offset="0.0002" stop-color="#2A2E4A"/>
<stop offset="0.4375" stop-color="#5D5A8F"/>
<stop offset="0.9999" stop-color="#998EE0"/>
</linearGradient>
<linearGradient id="paint4_linear_5174_46600" x1="27.0547" y1="10.1218" x2="31.4453" y2="10.1218" gradientUnits="userSpaceOnUse">
<stop/>
<stop offset="0.0001" stop-color="#2C2840"/>
<stop offset="0.0002" stop-color="#2A2E4A"/>
<stop offset="0.4375" stop-color="#5D5A8F"/>
<stop offset="0.9999" stop-color="#998EE0"/>
</linearGradient>
<linearGradient id="paint5_linear_5174_46600" x1="51.1172" y1="10.6699" x2="84.3415" y2="10.6699" gradientUnits="userSpaceOnUse">
<stop/>
<stop offset="0.0001" stop-color="#2C2840"/>
<stop offset="0.0002" stop-color="#2A2E4A"/>
<stop offset="0.4375" stop-color="#5D5A8F"/>
<stop offset="0.9999" stop-color="#998EE0"/>
</linearGradient>
<linearGradient id="paint6_linear_5174_46600" x1="38.1953" y1="34.8177" x2="56.093" y2="34.8177" gradientUnits="userSpaceOnUse">
<stop/>
<stop offset="0.0001" stop-color="#2C2840"/>
<stop offset="0.0002" stop-color="#2A2E4A"/>
<stop offset="0.4375" stop-color="#5D5A8F"/>
<stop offset="0.9999" stop-color="#998EE0"/>
</linearGradient>
<linearGradient id="paint7_linear_5174_46600" x1="38.1953" y1="34.8177" x2="56.093" y2="34.8177" gradientUnits="userSpaceOnUse">
<stop/>
<stop offset="0.0001" stop-color="#2C2840"/>
<stop offset="0.0002" stop-color="#2A2E4A"/>
<stop offset="0.4375" stop-color="#5D5A8F"/>
<stop offset="0.9999" stop-color="#998EE0"/>
</linearGradient>
<linearGradient id="paint8_linear_5174_46600" x1="36.8828" y1="66.5466" x2="57.6871" y2="66.5466" gradientUnits="userSpaceOnUse">
<stop/>
<stop offset="0.0001" stop-color="#2C2840"/>
<stop offset="0.0002" stop-color="#2A2E4A"/>
<stop offset="0.4375" stop-color="#5D5A8F"/>
<stop offset="0.9999" stop-color="#998EE0"/>
</linearGradient>
<linearGradient id="paint9_linear_5174_46600" x1="57.6875" y1="71.0089" x2="78.4918" y2="71.0089" gradientUnits="userSpaceOnUse">
<stop/>
<stop offset="0.0001" stop-color="#2C2840"/>
<stop offset="0.0002" stop-color="#2A2E4A"/>
<stop offset="0.4375" stop-color="#5D5A8F"/>
<stop offset="0.9999" stop-color="#998EE0"/>
</linearGradient>
<linearGradient id="paint10_linear_5174_46600" x1="15.6719" y1="74.5321" x2="36.4762" y2="74.5321" gradientUnits="userSpaceOnUse">
<stop/>
<stop offset="0.0001" stop-color="#2C2840"/>
<stop offset="0.0002" stop-color="#2A2E4A"/>
<stop offset="0.4375" stop-color="#5D5A8F"/>
<stop offset="0.9999" stop-color="#998EE0"/>
</linearGradient>
</defs>
</svg>
